<svg width="269" height="400" viewBox="0 0 269 400" fill="none" xmlns="http://www.w3.org/2000/svg">
<path d="M97.7154 344.334C98.8489 349.385 100.524 351.061 100.524 354.979C100.524 358.897 98.6024 365.525 100.278 365.525C100.475 365.525 100.845 365.476 101.313 365.377C101.855 365.279 102.57 365.106 103.407 364.934C105.453 364.515 108.163 364.022 110.627 364.096C112.525 364.145 114.274 364.539 115.481 365.525C118.783 368.186 123.884 369.665 127.358 369.813C129.601 369.911 131.153 369.468 131.153 368.433C131.153 365.624 130.02 361.706 130.02 352.17C130.02 342.634 128.886 341.525 127.21 324.695C127.063 323.241 126.939 321.886 126.816 320.654L95.0049 318.979C95.9166 327.184 96.8037 340.268 97.7154 344.334Z" stroke="#040913" stroke-miterlimit="10" stroke-linecap="round" stroke-linejoin="round"/>
<path d="M151.901 322.453C152.763 325.952 155.005 338.519 156.927 349.804C156.656 350.864 156.459 351.997 156.459 353.303C156.459 357.788 159.687 367.817 160.254 369.492C160.328 369.739 160.476 369.862 160.673 369.887C161.806 370.034 164.763 366.782 167.819 365.648C169.001 365.205 170.233 364.761 171.441 364.416C174.028 363.652 176.541 363.234 178.291 363.948C178.71 364.121 179.079 364.367 179.375 364.663C179.474 364.761 179.548 364.86 179.646 364.934C180.582 365.919 181.248 366.831 181.815 367.324C182.455 367.891 182.948 367.915 183.515 366.757C184.648 364.515 184.648 354.979 186.324 343.201C187.359 335.932 187.753 329.328 187.901 323.882L151.802 321.985C151.827 322.157 151.851 322.305 151.901 322.453Z" stroke="#040913" stroke-miterlimit="10" stroke-linecap="round" stroke-linejoin="round"/>
<path d="M178.291 363.948C178.783 364.293 179.252 364.638 179.646 364.934C179.547 364.835 179.473 364.737 179.375 364.663C179.054 364.343 178.685 364.121 178.291 363.948Z" stroke="#040913" stroke-miterlimit="10" stroke-linecap="round" stroke-linejoin="round"/>
<path d="M191.991 391.152C191.671 389.698 191.055 388.269 190.217 387.751C190.291 388.786 190.291 389.476 190.291 389.476C190.291 389.476 191.35 391.989 186.915 390.536C182.504 389.057 173.658 389.895 168.829 390.757C163.999 391.595 163.358 390.757 163.358 390.757C163.358 390.757 162.102 384.03 161.88 383.193C161.658 382.355 159.145 381.295 159.145 381.295C159.071 381.024 159.022 380.729 158.997 380.408C158.208 381 157.666 381.714 157.666 382.552C157.666 383.809 157.494 388.466 157.494 388.466C157.494 388.466 159.761 389.476 160.82 390.536C161.88 391.595 161.732 395.341 161.732 395.341C161.732 395.341 161.781 397.607 164.935 397.829C168.089 398.051 175.605 399.431 181.198 398.544C185.56 397.854 189.773 397.534 189.773 397.534C189.773 397.534 192.41 393.049 191.991 391.152Z" stroke="#040913" stroke-miterlimit="10" stroke-linecap="round" stroke-linejoin="round"/>
<path d="M161.929 383.168C162.151 384.006 163.408 390.733 163.408 390.733C163.408 390.733 164.048 391.57 168.878 390.733C173.707 389.895 182.553 389.057 186.964 390.511C191.375 391.989 190.34 389.451 190.34 389.451C190.34 389.451 190.34 388.761 190.266 387.726C190.094 385.607 189.601 382.034 188.024 379.767C185.708 376.392 183.613 372.4 182.775 370.084C182.332 368.876 182.11 367.989 181.839 367.299C181.297 366.806 180.632 365.87 179.671 364.909C179.252 364.589 178.783 364.268 178.315 363.923C178.389 366.708 178.931 372.227 181.937 375.036C186.077 378.905 184.352 378.116 181.272 378.116C178.192 378.116 173.51 376.515 172.451 372.622C171.859 370.502 171.588 367.028 171.49 364.342C170.258 364.712 169.026 365.155 167.868 365.574C164.812 366.708 161.855 369.96 160.722 369.813C160.327 370.231 160.106 370.478 160.106 370.478C160.106 370.478 158.677 376.712 159.12 380.334C159.169 380.654 159.219 380.95 159.268 381.221C159.194 381.271 161.707 382.33 161.929 383.168Z" stroke="#040913" stroke-miterlimit="10" stroke-linecap="round" stroke-linejoin="round"/>
<path d="M171.441 364.392C171.564 367.078 171.835 370.527 172.402 372.671C173.461 376.54 178.143 378.166 181.223 378.166C184.303 378.166 186.028 378.979 181.888 375.086C178.882 372.277 178.34 366.757 178.266 363.973V363.948C176.541 363.209 174.028 363.628 171.441 364.392Z" stroke="#040913" stroke-miterlimit="10" stroke-linecap="round" stroke-linejoin="round"/>
<path d="M119.301 384.425C116.368 387.234 116.911 392.975 110.602 392.285C104.294 391.595 93.6496 389.772 91.4073 389.772C89.165 389.772 86.0849 389.772 86.0849 389.772C86.0849 389.772 85.9863 389.624 85.8877 389.353C84.9021 389.87 83.8426 390.585 83.8426 391.029C83.8426 391.718 83.9904 396.351 83.9904 396.351C83.9904 396.351 85.5428 396.499 93.5264 397.337C101.51 398.174 108.237 399.431 112.18 398.027C116.097 396.622 116.393 397.041 117.502 394.651C118.635 392.261 118.192 391.004 121.42 391.004C124.648 391.004 129.97 390.437 130.685 388.909C131.375 387.357 130.685 381.764 130.685 381.764C130.685 381.764 130.833 381.369 129.009 381.295L129.132 382.182C129.108 382.182 122.258 381.616 119.301 384.425Z" stroke="#040913" stroke-miterlimit="10" stroke-linecap="round" stroke-linejoin="round"/>
<path d="M110.603 364.121C110.504 367.004 110.233 371.069 109.543 373.509C108.41 377.574 103.506 379.25 100.303 379.25C97.0748 379.25 95.2514 380.088 99.6128 376.022C102.57 373.262 103.26 368.014 103.383 364.958C102.57 365.131 101.855 365.279 101.288 365.402C100.845 367.595 100.032 371.143 99.12 372.819C97.7154 375.332 94.0686 379.127 89.0172 382.774C85.0254 385.657 85.5182 388.367 85.8878 389.377C85.9864 389.649 86.085 389.796 86.085 389.796C86.085 389.796 89.1651 389.796 91.4074 389.796C93.6497 389.796 104.295 391.62 110.603 392.31C116.911 393 116.344 387.258 119.301 384.449C122.233 381.64 129.108 382.207 129.108 382.207L128.985 381.32L127.358 369.862C123.884 369.714 118.783 368.236 115.481 365.574C114.249 364.54 112.5 364.17 110.603 364.121Z" stroke="#040913" stroke-miterlimit="10" stroke-linecap="round" stroke-linejoin="round"/>
<path d="M100.303 379.226C103.531 379.226 108.434 377.55 109.543 373.484C110.208 371.069 110.479 367.004 110.603 364.096C108.138 364.022 105.428 364.49 103.383 364.934C103.26 367.989 102.57 373.238 99.6127 375.998C95.2513 380.088 97.0747 379.226 100.303 379.226Z" stroke="#040913" stroke-miterlimit="10" stroke-linecap="round" stroke-linejoin="round"/>
<path d="M102.594 367.94C102.594 367.94 107.35 365.968 110.997 367.521" stroke="#040913" stroke-miterlimit="10" stroke-linecap="round" stroke-linejoin="round"/>
<path d="M101.633 371.143C101.633 371.143 106.759 369.024 110.677 370.7" stroke="#040913" stroke-miterlimit="10" stroke-linecap="round" stroke-linejoin="round"/>
<path d="M100.278 373.829C100.278 373.829 105.995 371.464 110.381 373.337" stroke="#040913" stroke-miterlimit="10" stroke-linecap="round" stroke-linejoin="round"/>
<path d="M99.1199 376.145C99.1199 376.145 104.837 373.78 109.223 375.652" stroke="#040913" stroke-miterlimit="10" stroke-linecap="round" stroke-linejoin="round"/>
<path d="M96.163 378.462C96.163 378.462 101.88 376.096 106.266 377.969" stroke="#040913" stroke-miterlimit="10" stroke-linecap="round" stroke-linejoin="round"/>
<path d="M95.0542 367.275C95.0542 367.275 95.9905 358.872 104.319 360.967C112.598 363.086 102.52 371.587 95.0542 367.275Z" stroke="#040913" stroke-miterlimit="10" stroke-linecap="round" stroke-linejoin="round"/>
<path d="M111.169 365.525C104.639 365.648 112.278 354.166 116.689 359.02C118.118 360.622 117.674 365.402 111.169 365.525Z" stroke="#040913" stroke-miterlimit="10" stroke-linecap="round" stroke-linejoin="round"/>
<path d="M97.0748 371.956C101.214 367.25 107.596 364.046 107.596 364.046C107.596 364.046 108.927 363.135 113.757 370.281" stroke="#040913" stroke-miterlimit="10" stroke-linecap="round" stroke-linejoin="round"/>
<path d="M109.272 364.515C109.272 365.377 108.582 366.067 107.72 366.067C106.857 366.067 106.167 365.377 106.167 364.515C106.167 363.652 106.857 362.962 107.72 362.962C108.582 362.987 109.272 363.677 109.272 364.515Z" fill="#040913"/>
<path d="M179.055 367.398C179.055 367.398 174.496 365.525 171.022 367.003" stroke="#040913" stroke-miterlimit="10" stroke-linecap="round" stroke-linejoin="round"/>
<path d="M179.966 370.428C179.966 370.428 175.087 368.408 171.342 370.009" stroke="#040913" stroke-miterlimit="10" stroke-linecap="round" stroke-linejoin="round"/>
<path d="M181.272 373.016C181.272 373.016 175.827 370.774 171.638 372.523" stroke="#040913" stroke-miterlimit="10" stroke-linecap="round" stroke-linejoin="round"/>
<path d="M182.381 375.209C182.381 375.209 176.935 372.966 172.747 374.716" stroke="#040913" stroke-miterlimit="10" stroke-linecap="round" stroke-linejoin="round"/>
<path d="M185.19 377.426C185.19 377.426 179.745 375.184 175.556 376.934" stroke="#040913" stroke-miterlimit="10" stroke-linecap="round" stroke-linejoin="round"/>
<path d="M186.127 367.398C187.334 365.008 185.363 358.749 177.428 360.745C169.494 362.741 182.43 374.741 186.127 367.398Z" stroke="#040913" stroke-miterlimit="10" stroke-linecap="round" stroke-linejoin="round"/>
<path d="M171.145 364.663C177.576 364.786 170.061 353.451 165.699 358.256C164.295 359.808 164.713 364.515 171.145 364.663Z" stroke="#040913" stroke-miterlimit="10" stroke-linecap="round" stroke-linejoin="round"/>
<path d="M174.274 363.652C174.274 363.652 172.993 362.79 168.385 369.615" stroke="#040913" stroke-miterlimit="10" stroke-linecap="round" stroke-linejoin="round"/>
<path d="M172.673 364.121C172.673 364.934 173.338 365.599 174.151 365.599C174.964 365.599 175.63 364.934 175.63 364.121C175.63 363.307 174.964 362.642 174.151 362.642C173.338 362.642 172.673 363.307 172.673 364.121Z" fill="#040913"/>
<path d="M157.42 42.8044C157.42 42.8044 160.13 39.8968 162.545 41.868C164.96 43.8147 161.633 48.9153 160.106 51.8476C158.529 54.903 155.67 55.7162 154.389 53.2767" stroke="#040913" stroke-miterlimit="10" stroke-linecap="round" stroke-linejoin="round"/>
<path d="M161.732 45.4408C161.732 45.4408 158.898 44.0116 156.139 48.0774" stroke="#040913" stroke-miterlimit="10" stroke-linecap="round" stroke-linejoin="round"/>
<path d="M157.888 46.1553C157.888 46.1553 160.87 48.3729 158.356 50.6645" stroke="#040913" stroke-miterlimit="10" stroke-linecap="round" stroke-linejoin="round"/>
<path d="M114.471 36.4716C114.471 36.4716 112.721 32.9233 109.838 34.0814C106.955 35.2642 108.36 41.0548 109.346 44.2581C110.356 47.56 112.401 49.3341 114.348 47.3382" stroke="#040913" stroke-miterlimit="10" stroke-linecap="round" stroke-linejoin="round"/>
<path d="M109.592 37.7528C109.592 37.7528 112.721 37.1861 114.2 41.8925" stroke="#040913" stroke-miterlimit="10" stroke-linecap="round" stroke-linejoin="round"/>
<path d="M113.066 39.5269C113.066 39.5269 109.567 40.7835 111.317 43.7158" stroke="#040913" stroke-miterlimit="10" stroke-linecap="round" stroke-linejoin="round"/>
<path d="M158.578 35.0178C158.578 35.0178 155.399 74.8374 131.572 71.3384C107.719 67.8148 115.456 28.6605 115.456 28.6605C115.456 28.6605 117.773 5.02992 141.65 8.55356C163.876 11.8554 158.578 35.0178 158.578 35.0178Z" stroke="#040913" stroke-miterlimit="10"/>
<path d="M161.239 22.7713C161.781 19.0505 160.106 15.3544 156.927 13.3338L153.305 10.6726C152.147 5.76911 148.87 1.01343 140.787 0.0524333C140.048 -0.04613 139.284 0.00315054 138.545 0.126355C136.179 0.545249 131.301 1.92513 129.576 6.40977L123.76 8.4796C120.138 9.48987 117.452 12.5453 116.91 16.2661L114.841 30.336C114.668 31.3216 114.52 32.3073 114.397 33.2683L114.372 33.4161C114.372 33.4161 114.372 33.3668 114.397 33.2929C114.298 34.2046 114.249 35.0917 114.249 35.9048C114.249 35.9048 120.557 26.8617 120.533 20.6522C120.533 18.4838 121.149 16.3154 122.627 14.7137C123.021 14.2948 123.416 13.9252 123.834 13.5802C125.756 12.0279 127.703 11.0669 129.502 10.5001C130.142 13.9499 132.607 19.0998 141.009 22.3277C141.009 22.3277 135.859 17.6706 133.321 12.6685C135.711 15.7486 141.108 20.1101 153.034 22.722C153.034 22.722 153.896 19.568 153.847 15.6254C154.611 16.3647 155.325 17.2025 155.991 18.1881C155.991 18.2127 156.015 18.2127 156.015 18.2374C157.494 20.455 157.691 23.2887 156.73 25.7775C154.044 32.8247 157.518 42.3115 157.518 42.3115C157.913 41.0794 158.208 39.6502 158.43 38.1225C158.282 39.3299 158.134 40.1431 158.11 40.3156L161.239 22.7713Z" fill="#040913"/>
<path d="M135.662 38.8369L133.715 46.993C133.666 47.2394 133.691 47.5105 133.74 47.7323C133.962 48.6686 134.923 49.26 135.884 49.1368L137.954 48.8904" stroke="#040913" stroke-miterlimit="10" stroke-linecap="round" stroke-linejoin="round"/>
<path d="M134.972 25.334C134.75 25.5558 133.247 28.6852 133.247 28.6852L121.863 27.0096L126.052 25.3833C127.112 25.0383 128.22 24.8905 129.329 24.9644L134.972 25.334Z" fill="#040913"/>
<path d="M142.142 26.3936C142.266 26.6892 142.832 30.1143 142.832 30.1143L154.216 31.7899L150.668 29.0301C149.756 28.3895 148.746 27.9459 147.662 27.6995L142.142 26.3936Z" fill="#040913"/>
<path d="M133.937 64.4634L132.828 66.8043" stroke="#040913" stroke-miterlimit="10" stroke-linecap="round" stroke-linejoin="round"/>
<path d="M149.264 37.4818C149.19 37.3832 149.091 37.26 148.968 37.1368C148.919 37.0629 148.845 36.989 148.771 36.9397C148.697 36.8658 148.623 36.8165 148.524 36.7426C148.352 36.5947 148.179 36.4469 147.982 36.299C147.76 36.1758 147.539 36.028 147.317 35.8801C147.194 35.8062 147.071 35.7569 146.923 35.7077C146.8 35.6584 146.652 35.5845 146.528 35.5352C146.257 35.4366 145.962 35.3627 145.666 35.2888L145.223 35.2395C145.075 35.2148 144.927 35.2148 144.779 35.2148C144.631 35.2148 144.483 35.2148 144.335 35.2148C144.188 35.2148 144.04 35.2395 143.917 35.2641C143.645 35.2888 143.374 35.3873 143.128 35.4366C142.882 35.5352 142.66 35.6091 142.463 35.7077C142.364 35.7569 142.266 35.8062 142.192 35.8555C142.118 35.9048 142.019 35.9541 141.945 36.0033C141.797 36.1019 141.674 36.2005 141.576 36.2744C141.379 36.4469 141.28 36.5454 141.28 36.5454C141.28 36.5454 141.305 36.5208 141.379 36.4962C141.428 36.4715 141.526 36.4222 141.65 36.373C141.773 36.3237 141.896 36.2744 142.068 36.2251C142.241 36.1758 142.413 36.1266 142.611 36.0773C142.808 36.028 143.029 36.0033 143.251 35.9294C143.473 35.9048 143.719 35.8555 143.966 35.8555C144.089 35.8555 144.212 35.8309 144.335 35.8309C144.459 35.8309 144.582 35.8555 144.73 35.8555C144.804 35.8555 144.878 35.8555 144.951 35.8801C144.459 36.2005 144.04 36.9397 143.892 37.8268C143.695 39.1081 144.163 40.2169 144.902 40.3401C145.641 40.4387 146.405 39.5023 146.578 38.221C146.701 37.3586 146.553 36.5701 146.208 36.1266C146.233 36.1266 146.257 36.1266 146.257 36.1512C146.504 36.2498 146.75 36.3237 146.997 36.4222C147.218 36.5208 147.465 36.6194 147.662 36.7179C147.859 36.8411 148.056 36.9397 148.253 37.0383C148.352 37.0875 148.426 37.1368 148.524 37.1861C148.598 37.2354 148.672 37.2847 148.746 37.334C148.894 37.4325 149.017 37.5064 149.116 37.5557C149.338 37.6789 149.461 37.7528 149.461 37.7528C149.461 37.7528 149.411 37.6789 149.264 37.4818Z" fill="#040913"/>
<path d="M131.645 34.5743C131.596 34.5004 131.522 34.4265 131.448 34.3772C131.374 34.3033 131.3 34.254 131.202 34.1801C131.029 34.0322 130.857 33.8844 130.66 33.7365C130.438 33.6133 130.216 33.4655 129.995 33.3176C129.871 33.2437 129.748 33.1944 129.6 33.1452C129.477 33.0959 129.329 33.022 129.206 32.9727C128.935 32.8741 128.639 32.8002 128.344 32.7263L127.9 32.677C127.752 32.6523 127.604 32.6523 127.457 32.6523C127.309 32.6523 127.161 32.6523 127.013 32.6523C126.865 32.6523 126.717 32.677 126.594 32.7016C126.323 32.7263 126.052 32.8248 125.806 32.8741C125.559 32.9727 125.337 33.0466 125.14 33.1452C125.042 33.1944 124.943 33.2437 124.869 33.293C124.795 33.3423 124.697 33.3916 124.623 33.4408C124.475 33.5394 124.352 33.638 124.253 33.7119C124.056 33.8844 123.958 33.983 123.958 33.983C123.958 33.983 123.982 33.9583 124.056 33.9337C124.105 33.909 124.204 33.8597 124.327 33.8105C124.45 33.7612 124.574 33.7119 124.746 33.6626C124.919 33.6133 125.091 33.5641 125.288 33.5148C125.485 33.4655 125.707 33.4409 125.929 33.3669C126.151 33.3423 126.397 33.293 126.643 33.293C126.767 33.293 126.89 33.2684 127.013 33.2684C127.136 33.2684 127.259 33.293 127.407 33.293C127.481 33.293 127.555 33.293 127.629 33.3176C127.136 33.638 126.717 34.3772 126.569 35.2643C126.372 36.5456 126.841 37.6544 127.58 37.7776C128.319 37.8762 129.083 36.9398 129.255 35.6585C129.379 34.7961 129.231 34.0076 128.886 33.5641C128.91 33.5641 128.935 33.5641 128.935 33.5887C129.181 33.6873 129.428 33.7612 129.674 33.8597C129.896 33.9583 130.142 34.0569 130.34 34.1554C130.537 34.2786 130.734 34.3772 130.931 34.4758C131.029 34.525 131.103 34.5743 131.202 34.6236C131.276 34.6729 131.35 34.7222 131.424 34.7715C131.572 34.87 131.695 34.9439 131.793 34.9932C132.015 35.1164 132.138 35.1903 132.138 35.1903C132.138 35.1903 132.064 35.0671 131.892 34.8947C131.867 34.8207 131.769 34.6975 131.645 34.5743Z" fill="#040913"/>
<path d="M127.925 53.4492L139.531 55.1494" stroke="#040913" stroke-miterlimit="10" stroke-linecap="round" stroke-linejoin="round"/>
<path d="M248.123 164.973C248.344 164.628 250.463 164.751 250.71 166.008C250.587 166.945 249.527 167.511 248.739 167.018C247.507 166.205 247.63 165.712 248.123 164.973Z" stroke="#040913" stroke-miterlimit="10" stroke-linecap="round" stroke-linejoin="round"/>
<path d="M249.503 160.981C249.749 160.612 252.016 160.735 252.287 162.09C252.558 163.446 251.77 163.298 250.168 163.174C248.566 163.051 248.961 161.795 249.503 160.981Z" stroke="#040913" stroke-miterlimit="10" stroke-linecap="round" stroke-linejoin="round"/>
<path d="M250.513 156.325C250.735 155.906 253.174 155.782 253.593 157.187C254.012 158.592 253.174 158.518 251.474 158.567C249.774 158.616 250.02 157.236 250.513 156.325Z" stroke="#040913" stroke-miterlimit="10" stroke-linecap="round" stroke-linejoin="round"/>
<path d="M257.954 170.247H257.978C257.978 170.271 257.954 170.247 257.954 170.247Z" stroke="#040913" stroke-miterlimit="10" stroke-linecap="round" stroke-linejoin="round"/>
<path d="M249.231 163.692L248.936 163.667C248.246 163.865 246.743 165.417 248.443 166.723C249.724 167.733 253.125 168.891 255.761 169.655C256.501 169.877 257.166 170.049 257.733 170.197C257.806 170.222 257.88 170.247 257.954 170.247H257.979C260.665 170.173 261.946 169.902 263.129 169.187C264.632 167.906 264.213 165.787 264.041 164.826C260.197 165.639 252.164 164.308 249.231 163.692Z" stroke="#040913" stroke-miterlimit="10" stroke-linecap="round" stroke-linejoin="round"/>
<path d="M266.529 158.321C263.696 159.972 255.047 159.577 251.277 159.232C250.759 159.257 250.266 159.257 249.872 159.282C248.147 159.356 246.373 162.584 249.108 163.643C249.158 163.643 249.182 163.668 249.232 163.668C252.164 164.308 260.221 165.639 264.065 164.826C264.558 164.727 265.002 164.58 265.347 164.382C268.304 162.756 267.121 159.06 266.998 158.271L266.529 158.321Z" stroke="#040913" stroke-miterlimit="10" stroke-linecap="round" stroke-linejoin="round"/>
<path d="M266.529 158.321C266.603 158.271 266.677 158.247 266.751 158.197C269.535 156.275 267.884 151.002 265.026 148.415C262.143 151.569 256.328 154.403 254.874 155.265C254.209 155.659 253.125 155.314 252.41 154.526C251.819 154.6 251.252 154.674 250.808 154.748C249.108 154.994 247.679 158.395 250.513 159.183C250.734 159.208 250.981 159.232 251.276 159.257C255.047 159.577 263.695 159.972 266.529 158.321Z" stroke="#040913" stroke-miterlimit="10" stroke-linecap="round" stroke-linejoin="round"/>
<path d="M257.93 145.261C257.708 145.483 257.486 145.704 257.289 145.926C255.81 147.38 254.258 148.711 252.73 150.485C251.326 152.111 251.622 153.614 252.435 154.526C253.125 155.314 254.209 155.659 254.899 155.265C256.353 154.403 262.168 151.569 265.051 148.415C266.381 144.817 264.903 142.945 262.192 142.501C261.724 142.353 261.207 142.279 260.591 142.255C259.556 142.205 258.546 142.205 257.56 142.23L257.314 145.951C257.511 145.704 257.732 145.483 257.93 145.261Z" stroke="#040913" stroke-miterlimit="10" stroke-linecap="round" stroke-linejoin="round"/>
<path d="M254.776 154.279C254.061 153.934 253.47 151.865 253.864 151.569C254.283 151.273 256.057 150.411 257.289 151.84C257.782 152.801 254.973 154.156 254.776 154.279Z" stroke="#040913" stroke-miterlimit="10" stroke-linecap="round" stroke-linejoin="round"/>
<path d="M259.383 155.585C259.507 156.029 259.901 157.384 259.383 157.803" stroke="#040913" stroke-miterlimit="10" stroke-linecap="round" stroke-linejoin="round"/>
<path d="M258.201 156.521V157.113" stroke="#040913" stroke-miterlimit="10" stroke-linecap="round" stroke-linejoin="round"/>
<path d="M258.201 161.598C258.225 162.041 258.275 163.47 257.683 163.741" stroke="#040913" stroke-miterlimit="10" stroke-linecap="round" stroke-linejoin="round"/>
<path d="M256.846 162.189L256.698 162.78" stroke="#040913" stroke-miterlimit="10" stroke-linecap="round" stroke-linejoin="round"/>
<path d="M254.751 167.142L254.406 167.708" stroke="#040913" stroke-miterlimit="10" stroke-linecap="round" stroke-linejoin="round"/>
<path d="M255.934 167.438L255.441 168.472" stroke="#040913" stroke-miterlimit="10" stroke-linecap="round" stroke-linejoin="round"/>
<path d="M259.383 149.721L260.049 150.46" stroke="#040913" stroke-miterlimit="10" stroke-linecap="round" stroke-linejoin="round"/>
<path d="M260.049 148.168L261.65 149.721" stroke="#040913" stroke-miterlimit="10" stroke-linecap="round" stroke-linejoin="round"/>
<path d="M158.75 52.8332C157.346 54.1392 155.67 54.2624 154.635 52.8332H154.315C150.619 62.6403 143.818 72.2995 131.547 70.5007C121.567 69.0223 117.132 61.3097 115.333 52.8332H6.98734L13.4432 170.838L13.5664 172.908C15.2174 173.697 16.819 174.436 17.6568 174.756C19.5295 175.495 20.5151 177.417 18.2235 180.473C20.9094 181.779 20.3427 184.489 18.9381 185.499C22.0429 186.559 20.663 190.699 20.0223 191.093C20.7123 191.783 20.0223 191.118 20.0223 191.118C21.7226 192.547 21.7965 193.951 21.5994 195.651C20.7123 196.884 18.0511 198.017 15.0202 198.732L15.1927 201.836L21.3776 314.962L245.609 326.79L255.712 170.05L255.736 169.606C253.47 168.941 250.661 168.004 249.108 167.117C249.01 167.093 248.886 167.043 248.788 166.97C248.172 166.575 247.876 166.255 247.827 165.935C247.309 164.85 248.394 163.816 248.96 163.643L249.256 163.668C249.207 163.668 249.182 163.643 249.133 163.643C246.398 162.583 248.172 159.356 249.897 159.282C250.291 159.257 250.784 159.257 251.301 159.232C251.03 159.208 250.759 159.183 250.537 159.158C247.704 158.395 249.133 154.994 250.833 154.723C251.277 154.649 251.843 154.575 252.435 154.501C251.622 153.59 251.326 152.111 252.73 150.46C254.233 148.711 255.786 147.38 257.24 145.951L257.535 141.343L263.252 52.8086H158.75V52.8332Z" fill="#040913"/>
<path d="M16.0059 190.822C14.9463 191.265 14.01 187.199 15.4392 186.928C16.8683 186.657 19.6774 186.238 19.6035 188.85C19.5788 190.403 16.2277 190.723 16.0059 190.822Z" stroke="#040913" stroke-miterlimit="10" stroke-linecap="round" stroke-linejoin="round"/>
<path d="M17.6568 196.07C16.7697 196.44 15.9566 192.99 17.1886 192.768C18.4207 192.547 20.7862 192.202 20.7369 194.395C20.6876 195.725 17.8539 195.996 17.6568 196.07Z" stroke="#040913" stroke-miterlimit="10" stroke-linecap="round" stroke-linejoin="round"/>
<path d="M8.24403 187.077C8.07154 187.569 8.07153 189.023 8.26866 189.491" stroke="#040913" stroke-miterlimit="10" stroke-linecap="round" stroke-linejoin="round"/>
<path d="M9.08183 187.767L9.03256 188.703" stroke="#040913" stroke-miterlimit="10" stroke-linecap="round" stroke-linejoin="round"/>
<path d="M12.5315 194.493L12.6054 195.43" stroke="#040913" stroke-miterlimit="10" stroke-linecap="round" stroke-linejoin="round"/>
<path d="M11.6444 194.025L11.6937 196.169" stroke="#040913" stroke-miterlimit="10" stroke-linecap="round" stroke-linejoin="round"/>
<path d="M15.0449 184.933C13.9115 185.056 14.1825 180.892 15.6363 181.039C17.0901 181.187 19.8992 181.606 19.086 184.07C18.5932 185.573 15.2913 184.908 15.0449 184.933Z" stroke="#040913" stroke-miterlimit="10" stroke-linecap="round" stroke-linejoin="round"/>
<path d="M7.84985 180.621C7.67737 181.113 7.57879 182.444 7.77592 182.937" stroke="#040913" stroke-miterlimit="10" stroke-linecap="round" stroke-linejoin="round"/>
<path d="M8.61366 181.187L8.56439 182.123" stroke="#040913" stroke-miterlimit="10" stroke-linecap="round" stroke-linejoin="round"/>
<path d="M14.5768 192.153V192.128C14.1086 192.226 13.6404 192.3 13.1723 192.424L14.5768 192.153Z" stroke="#040913" stroke-miterlimit="10" stroke-linecap="round" stroke-linejoin="round"/>
<path d="M7.8252 193.656V193.705L13.1476 192.399C11.546 192.744 9.79646 193.138 7.8252 193.656Z" stroke="#040913" stroke-miterlimit="10" stroke-linecap="round" stroke-linejoin="round"/>
<path d="M7.67731 199.126C8.17012 199.692 11.0038 201.097 15.1681 202.699L14.9464 198.781C13.2708 199.175 11.4966 199.421 9.82105 199.471C8.90934 199.52 8.21941 199.372 7.67731 199.126Z" stroke="#040913" stroke-miterlimit="10" stroke-linecap="round" stroke-linejoin="round"/>
<path d="M13.5172 172.908L13.4433 171.676C11.2996 171.208 9.45149 170.838 8.39194 170.641C9.22973 170.888 11.4228 171.898 13.5172 172.908Z" stroke="#040913" stroke-miterlimit="10" stroke-linecap="round" stroke-linejoin="round"/>
<path d="M19.9978 191.167L14.5768 192.153L13.1723 192.399H13.1476L7.82522 193.705L6.54388 194.025C6.05106 194.888 5.38578 198.042 7.70202 199.126C8.24411 199.372 8.93405 199.52 9.84576 199.471C11.5213 199.397 13.2955 199.151 14.9711 198.781C18.0265 198.066 20.7124 196.933 21.5994 195.701C21.7719 194.001 21.698 192.596 19.9978 191.167Z" stroke="#040913" stroke-miterlimit="10" stroke-linecap="round" stroke-linejoin="round"/>
<path d="M13.1723 192.399C13.6651 192.3 14.1333 192.202 14.5768 192.103C16.5481 191.709 18.2976 191.413 19.9978 191.117C20.6385 190.723 22.0183 186.583 18.9136 185.524C18.5193 185.82 18.0512 185.967 17.5584 185.918C16.1785 185.795 4.9176 186.608 2.57672 186.214C2.23175 186.608 1.27075 187.816 1.34468 189.368C1.46788 191.635 3.24202 194.863 6.64245 193.951C7.03671 193.853 7.43098 193.729 7.80059 193.631C9.77186 193.113 11.5214 192.719 13.123 192.374C13.1476 192.399 13.1476 192.399 13.1723 192.399Z" stroke="#040913" stroke-miterlimit="10" stroke-linecap="round" stroke-linejoin="round"/>
<path d="M17.5583 185.943C18.0511 185.992 18.5193 185.844 18.9135 185.549C20.3427 184.514 20.9094 181.803 18.199 180.522C16.0059 180.325 4.8929 177.787 4.8929 177.787C4.86826 177.762 4.81897 177.738 4.79433 177.713C4.03047 177.762 1.6403 178.797 1.36925 179.684C1.0982 180.571 0.260414 185.844 2.60129 186.239C4.91753 186.608 16.2031 185.82 17.5583 185.943Z" stroke="#040913" stroke-miterlimit="10" stroke-linecap="round" stroke-linejoin="round"/>
<path d="M18.1988 180.497C20.4904 177.442 19.5048 175.52 17.6321 174.781C16.7943 174.46 15.1927 173.697 13.5171 172.908C11.398 171.922 9.20495 170.887 8.41644 170.641C6.96264 170.198 4.25213 174.091 3.90716 174.633C3.58683 175.15 4.00572 177.146 4.79423 177.738C4.81887 177.762 4.86815 177.787 4.89279 177.812C4.89279 177.787 16.0304 180.325 18.1988 180.497Z" stroke="#040913" stroke-miterlimit="10" stroke-linecap="round" stroke-linejoin="round"/>
<path d="M14.2811 178.699C13.1723 178.625 14.084 174.707 15.4392 175.101C16.7945 175.471 19.4064 176.284 18.2483 178.526C17.5337 179.857 14.5029 178.723 14.2811 178.699Z" stroke="#040913" stroke-miterlimit="10" stroke-linecap="round" stroke-linejoin="round"/>
<path d="M9.7964 172.883C9.37751 173.179 8.56435 174.239 8.46579 174.756" stroke="#040913" stroke-miterlimit="10" stroke-linecap="round" stroke-linejoin="round"/>
<path d="M10.0921 173.795L9.55002 174.534" stroke="#040913" stroke-miterlimit="10" stroke-linecap="round" stroke-linejoin="round"/>
<path d="M41.9033 93.1703C41.7555 101.597 42.0512 112.39 42.8397 121.458C44.2442 121.655 45.353 121.088 45.698 122.394C46.0676 124.07 45.698 126.312 45.8951 128.062C46.1662 129.836 44.0224 130.082 43.6528 128.259C43.4311 127.273 43.7514 125.08 43.6528 124.144C41.1641 123.577 31.2585 125.031 29.238 122.419C28.203 121.014 27.4638 119.561 27.5624 114.805C27.7102 107.733 27.2913 99.503 27.2913 92.8254C27.2913 90.9527 29.7308 91.273 29.7308 92.9239C29.7308 99.5769 29.8293 116.16 30.1497 118.871C30.7657 122.789 35.8663 121.778 40.351 121.581C39.6117 112.612 39.2175 100.439 39.4146 92.5297C39.5132 90.8787 42.0019 91.2976 41.9033 93.1703Z" fill="white" stroke="white" stroke-width="2"/>
<path d="M61.6407 94.0575C60.2855 94.0575 55.037 93.8358 51.4394 93.9097C51.5872 97.7044 51.5872 101.524 51.7597 105.318C55.6776 105.589 59.3245 105.368 61.5421 105.171C63.2177 105.023 63.3656 107.093 61.7639 107.265C57.9692 107.635 55.7269 107.635 51.8583 107.635C51.8583 108.325 52.0061 119.758 52.3265 121.631C56.9097 121.631 61.2218 121.409 62.5278 121.434C64.5483 121.532 64.0309 123.676 61.961 123.627C59.0041 123.528 56.3429 123.848 50.922 123.848C50.7002 123.848 50.1334 123.479 50.0349 123.06C49.2464 120.029 49.0492 97.3348 48.9014 93.959C47.5954 93.959 46.6098 92.0863 49.271 91.7167C51.2915 91.4456 57.7474 91.6674 61.616 91.7167C63.4641 91.6674 63.3163 93.959 61.6407 94.0575Z" fill="white" stroke="white" stroke-width="2"/>
<path d="M94.8073 122.641C94.9551 124.316 92.565 124.711 92.5157 122.863C92.3678 119.536 92.0968 116.136 91.7272 112.858C88.1789 112.908 83.7682 113.08 80.1214 112.908C80.5402 117.86 80.3924 120.669 80.3431 123.38C80.2938 124.785 77.9037 125.401 77.9529 123.7C78.0022 120.152 78.2733 118.649 77.6326 112.858C76.7455 112.809 75.8092 112.908 75.0207 112.858C73.3451 112.809 73.5669 110.567 74.8236 110.616C75.5628 110.665 76.4498 110.567 77.3862 110.616C77.1891 107.906 77.1152 99.3552 76.9673 93.1703C76.9673 91.7658 79.3082 91.1005 79.3575 92.85C79.5546 99.7741 79.3575 107.216 79.8749 110.616C83.7682 110.838 87.2179 110.665 91.53 110.567C90.9633 103.963 90.643 98.7391 90.7415 92.7021C90.7415 91.2483 93.0824 90.7802 93.0824 92.4804C92.9592 102.558 94.1173 113.696 94.8073 122.641Z" fill="white" stroke="white" stroke-width="2"/>
<path d="M113.14 108.891C116.984 108.842 117.033 110.986 113.51 111.232C114.397 115.125 115.234 118.797 116.319 122.468C116.836 124.563 114.347 124.612 113.879 122.937C112.795 118.772 112.006 114.854 111.119 111.208C108.557 111.06 105.033 111.158 103.16 111.208C102.126 115.175 101.238 119.068 100.548 123.183C100.327 124.637 97.838 124.785 98.2076 122.764C98.5772 119.265 99.6614 115.052 100.721 111.257C97.8626 110.986 98.109 109.162 101.288 109.113C102.692 105.368 103.579 98.0247 105.649 92.8008C106.265 91.1992 107.62 91.1746 108.138 92.5298C110.011 98.8871 112.105 105.417 113.14 108.891ZM103.727 108.941C105.403 108.941 108.113 108.793 110.602 108.891C109.666 105.984 108.089 99.9467 106.906 95.8317C105.378 100.513 104.91 105.614 103.727 108.941Z" fill="white" stroke="white" stroke-width="2"/>
<path d="M138.323 92.6036C138.643 102.337 138.274 111.207 138.274 122.641C138.274 124.095 135.76 123.848 135.76 122.542C135.711 116.136 136.031 105.047 135.982 97.3347C132.705 107.191 128.442 116.604 124.376 122.69C123.686 124.144 122.232 123.897 122.035 122.542C121.764 119.733 123.193 102.238 122.183 92.8008C122.085 91.1745 124.623 91.4455 124.746 92.85C125.214 97.384 124.696 113.573 124.425 118.477C128.787 111.281 132.138 101.918 135.785 92.234C136.13 90.9773 138.274 91.4455 138.323 92.6036ZM133.469 89.8439C131.645 90.9281 129.452 91.1005 127.481 89.7946C126.816 89.3757 126.914 87.7247 127.998 88.1929C129.97 88.9814 130.857 89.0307 132.779 88.1436C133.789 87.5523 134.306 89.3264 133.469 89.8439Z" fill="white" stroke="white" stroke-width="2"/>
<path d="M160.5 94.4764C160.401 96.5462 158.257 96.3984 158.11 94.9445C157.962 93.6386 149.781 93.7864 148.992 93.8111C148.894 97.6058 148.992 99.7988 149.14 103.593C151.999 103.593 154.241 104.012 156.015 104.727C163.407 107.856 163.58 119.043 157.567 122.074C154.758 123.75 149.14 124.169 146.775 123.799C145.37 123.577 144.582 121.557 146.775 121.507C147.514 118.748 146.923 109.581 146.824 106.156C144.631 105.959 144.385 103.865 146.725 103.667C146.578 100.292 146.504 97.4826 146.528 94.0328C143.916 93.9836 144.04 91.692 146.307 91.692C148.992 91.7166 160.672 90.3121 160.5 94.4764ZM149.165 121.606C151.925 121.655 153.847 121.458 155.818 120.448C160.352 117.688 160.5 109.409 154.611 106.92C153.157 106.255 151.432 106.082 149.239 106.23C149.313 109.113 149.88 118.526 149.165 121.606Z" fill="white" stroke="white" stroke-width="2"/>
<path d="M194.676 93.5398C195.711 103.692 194.726 114.213 195.342 122.715C195.342 124.439 192.952 124.39 192.853 122.862C192.188 111.823 193.518 105.663 192.237 93.8109C189.847 93.8601 187.506 94.0819 185.313 94.0819C185.214 102.164 186.003 120.177 179.991 123.454C178.364 124.439 176.294 123.035 178.216 121.778C183.588 118.747 182.898 100.833 182.898 93.8109C182.898 92.8252 183.12 91.6178 184.524 91.7164C188.541 91.8642 189.896 91.7657 194.307 91.2482C196.968 90.8293 196.82 92.9731 194.676 93.5398Z" fill="white" stroke="white" stroke-width="2"/>
<path d="M203.744 104.357C206.726 103.52 209.165 102.805 212.911 103.988C219.514 106.279 219.687 117.269 214.463 122.321C211.703 124.514 206.43 124.76 203.892 122.468C200.664 119.438 201.329 110.074 201.329 105.343C201.28 101.647 201.231 96.1274 201.231 92.8009C201.231 91.1992 203.744 91.076 203.744 92.4312C203.744 96.152 203.646 100.612 203.744 104.357ZM205.518 120.473C207.194 122.099 210.668 122.247 212.861 120.522C216.139 117.392 217.223 108.842 211.974 106.205C209.165 105.072 206.603 105.639 203.744 106.427C203.843 110 203.227 118.181 205.518 120.473Z" fill="white" stroke="white" stroke-width="2"/>
<path d="M242.923 120.817C241.149 124.193 227.72 124.316 225.157 123.577C222.397 122.69 222.25 120.251 222.176 118.107C221.855 111.01 222.176 100.563 222.176 92.9486C222.176 91.347 224.664 90.8541 224.664 92.6776C224.664 99.7741 224.443 112.366 224.862 119.24C225.009 122.148 227.301 121.532 231.317 121.433C231.416 112.415 230.997 100.661 231.096 92.3079C231.096 90.8541 233.658 90.9527 233.658 92.4065C233.51 100.415 234.028 112.612 233.979 121.31C237.305 121.31 239.178 120.891 240.336 120.275C240.287 112.464 241.026 100.735 240.114 92.8254C239.917 91.3716 242.406 90.7309 242.554 92.0862C243.49 100.513 242.726 111.971 242.923 120.817Z" fill="white" stroke="white" stroke-width="2"/>
<path d="M170.43 118.649C170.405 111.75 170.036 94.4764 170.036 93.6387C170.036 93.2937 170.036 92.9734 170.036 92.653C170.036 92.2095 169.888 91.8892 169.666 91.7167C169.296 91.421 168.705 91.4456 168.237 91.7413C167.843 91.9877 167.572 92.4066 167.572 92.9487C167.572 93.7126 167.572 94.5011 167.572 95.2896C167.572 95.6592 168.089 112.045 168.089 118.674C168.04 118.674 167.966 120.546 167.966 121.434C167.966 121.828 167.966 122.222 167.941 122.592C167.941 123.109 168.286 123.454 168.705 123.627C169.05 123.75 169.444 123.774 169.789 123.651C170.208 123.503 170.528 123.208 170.528 122.69C170.528 122.296 170.528 121.902 170.528 121.483C170.479 120.546 170.43 118.649 170.43 118.649Z" fill="white" stroke="white" stroke-width="2" stroke-miterlimit="10"/>
<path d="M163.802 173.721C163.925 167.044 163.949 150.362 163.974 149.549C163.974 149.228 163.999 148.908 163.999 148.612C163.999 148.169 163.875 147.873 163.654 147.701C163.284 147.405 162.717 147.405 162.274 147.676C161.904 147.898 161.609 148.292 161.584 148.834C161.559 149.573 161.535 150.337 161.535 151.101C161.535 151.446 161.658 167.29 161.51 173.697C161.461 173.697 161.337 175.495 161.313 176.358C161.288 176.727 161.288 177.122 161.264 177.467C161.264 177.959 161.559 178.304 161.978 178.477C162.298 178.6 162.693 178.625 163.013 178.526C163.407 178.403 163.728 178.107 163.752 177.615C163.777 177.245 163.777 176.851 163.777 176.456C163.826 175.545 163.826 173.721 163.802 173.721Z" fill="white" stroke="white" stroke-width="2" stroke-miterlimit="10"/>
<path d="M77.3121 287.143C77.6325 280.49 78.1006 263.808 78.1499 262.995C78.1746 262.675 78.1745 262.354 78.1992 262.059C78.2238 261.615 78.1006 261.319 77.8788 261.122C77.5339 260.802 76.9671 260.802 76.499 261.073C76.1294 261.295 75.809 261.689 75.7844 262.206C75.7351 262.946 75.7105 263.685 75.6612 264.473C75.6365 264.818 75.3408 280.662 75.0205 287.044C74.9712 287.044 74.7988 288.843 74.7495 289.681C74.7248 290.051 74.7002 290.445 74.6755 290.79C74.6509 291.283 74.9466 291.652 75.3655 291.825C75.6858 291.973 76.0801 291.997 76.4004 291.899C76.7946 291.8 77.1396 291.504 77.1643 291.012C77.1889 290.642 77.2135 290.248 77.2382 289.853C77.2875 288.966 77.3368 287.143 77.3121 287.143Z" fill="white" stroke="white" stroke-width="2" stroke-miterlimit="10"/>
<path d="M229.814 294.905C230.135 288.252 230.603 271.57 230.652 270.757C230.677 270.436 230.677 270.116 230.701 269.82C230.726 269.377 230.603 269.081 230.381 268.884C230.036 268.564 229.469 268.564 229.001 268.835C228.632 269.056 228.311 269.451 228.287 269.968C228.237 270.707 228.213 271.447 228.163 272.235C228.139 272.58 227.843 288.424 227.523 294.806C227.473 294.806 227.301 296.605 227.252 297.443C227.227 297.812 227.202 298.207 227.178 298.552C227.153 299.044 227.449 299.414 227.868 299.586C228.188 299.734 228.582 299.759 228.903 299.66C229.297 299.562 229.642 299.266 229.666 298.773C229.691 298.404 229.716 298.009 229.74 297.615C229.79 296.728 229.839 294.905 229.814 294.905Z" fill="white" stroke="white" stroke-width="2" stroke-miterlimit="10"/>
<path d="M43.9238 146.937C45.7473 150.041 45.6733 157.187 42.1004 158.813C47.2011 161.277 44.8356 171.799 41.7062 174.263C38.9464 176.407 35.3488 175.84 33.4022 173.672C32.0716 172.095 31.6773 170.074 31.4063 168.251C31.1352 166.748 33.4268 166.575 33.7225 167.955C33.9936 169.409 34.3386 171.085 35.0778 172.144C36.2605 173.746 38.5768 173.524 40.0306 172.44C42.5686 170.592 44.0471 162.731 41.3119 160.588C40.5481 160.07 39.7842 159.873 38.3797 160.169C37.0737 160.489 36.162 158.666 37.8375 158.247C38.8725 158 39.5624 158.05 40.7452 157.458C43.2339 155.881 43.1353 150.337 41.7308 147.898C40.6712 146.296 38.3796 145.778 36.4823 147.725C35.4474 149.006 34.7821 151.397 35.0531 153.195C35.201 154.501 33.0326 154.452 32.8847 153.269C32.5398 150.78 33.4268 147.503 35.1024 145.778C37.9854 143.093 42.2976 144.226 43.9238 146.937Z" fill="white" stroke="white" stroke-width="2"/>
<path d="M61.5422 145.951C67.6039 149.253 68.4909 157.951 62.2075 162.461C60.3102 163.964 57.5751 164.925 54.9138 164.875C54.9385 167.413 54.8892 171.923 55.3327 174.51C55.5545 176.284 53.2876 176.531 53.0165 174.806C52.4991 171.726 52.6223 166.206 52.6715 164.851C50.1089 164.481 50.3799 162.535 52.4498 162.535C52.1541 160.046 51.612 152.432 51.883 147.701C50.1582 147.923 48.9261 146.272 51.7598 145.434C54.7906 144.571 58.9549 144.473 61.5422 145.951ZM54.6921 162.584C56.6387 162.682 58.9057 162.239 61.0494 160.785C65.1891 157.951 65.2137 150.534 60.458 147.75C58.265 146.469 56.0966 146.789 54.15 147.282C53.7557 152.087 54.5442 160.834 54.6921 162.584Z" fill="white" stroke="white" stroke-width="2"/>
<path d="M84.532 150.042C88.031 155.512 89.3124 169.951 83.2261 174.781C79.9242 177.319 75.2917 177.442 72.7784 173.771C69.7722 169.089 68.688 157.409 72.0884 150.805C73.3204 148.662 75.341 147.405 76.9427 146.543C76.5238 145.458 77.6572 144.473 79.185 145.335C81.2302 146.493 83.2753 148.07 84.532 150.042ZM74.0597 152.013C71.226 157.36 72.1377 168.276 74.5525 172.144C76.4252 174.707 79.4067 174.88 81.7969 173.032C86.3801 168.744 85.838 157.138 82.3143 151.274C81.4519 149.943 80.3924 148.785 78.9632 148.07C77.4848 148.662 75.0946 150.362 74.0597 152.013Z" fill="white" stroke="white" stroke-width="2"/>
<path d="M104.984 148.366C106.807 151.47 106.733 158.616 103.16 160.243C108.261 162.707 105.896 173.228 102.766 175.692C100.006 177.836 96.4089 177.269 94.4623 175.101C93.1316 173.524 92.7374 171.503 92.4664 169.68C92.1953 168.177 94.4869 168.004 94.7826 169.384C95.0536 170.838 95.3986 172.514 96.1378 173.573C97.3206 175.175 99.6368 174.953 101.091 173.869C103.629 172.021 105.107 164.16 102.372 162.017C101.608 161.499 100.844 161.302 99.4397 161.598C98.1337 161.918 97.222 160.095 98.8976 159.676C99.9325 159.429 100.622 159.479 101.805 158.887C104.294 157.31 104.195 151.766 102.791 149.327C101.731 147.725 99.4397 147.208 97.5424 149.154C96.5074 150.436 95.8421 152.826 96.1132 154.624C96.261 155.93 94.0926 155.881 93.9448 154.698C93.5998 152.21 94.4869 148.932 96.1625 147.208C99.0455 144.522 103.358 145.655 104.984 148.366Z" fill="white" stroke="white" stroke-width="2"/>
<path d="M126.717 147.652C125.239 156.473 125.017 158.962 123.44 166.551C122.577 170.592 121.493 175.003 119.818 176.457C118.241 177.689 115.949 177.689 114.274 176.112C112.278 174.313 112.499 171.011 112.697 168.448C112.869 166.97 115.161 167.635 115.037 168.917C114.89 170.986 114.717 172.711 115.506 174.091C116.122 175.274 117.403 175.57 118.339 174.658C119.867 173.032 120.409 169.557 120.754 167.611C116.491 164.087 113.51 152.949 111.76 147.824C111.514 146.543 113.534 145.335 113.904 146.937C115.727 152.53 118.364 161.278 121.444 164.925C122.972 158.986 123.193 153.393 124.302 146.962C124.499 145.656 126.865 146.321 126.717 147.652Z" fill="white" stroke="white" stroke-width="2"/>
<path d="M149.806 148.095C150.767 155.709 152.96 172.342 154.734 176.851C155.251 178.034 153.107 178.896 152.59 177.713C150.939 173.031 148.475 154.97 148.302 150.46C145.493 162.51 145.001 170.444 142.857 176.802C142.561 177.615 141.502 178.305 140.91 176.9C137.608 169.508 135.81 153.688 135.415 150.559C133.912 158.666 133.345 169.434 131.744 176.777C131.3 178.305 129.354 178.083 129.575 176.728C131.842 167.118 132.064 157.409 134.356 147.775C134.528 146.419 136.352 145.877 136.623 147.602C137.682 152.555 139.432 166.329 141.847 173.894C143.103 166.748 145.641 152.875 147.662 147.553C148.13 146.469 149.879 146.74 149.806 148.095Z" fill="white" stroke="white" stroke-width="2"/>
<path d="M187.013 149.721C187.777 159.553 186.594 169.68 186.989 177.91C186.939 179.586 184.648 179.487 184.598 177.984C184.204 167.315 185.609 161.376 184.672 149.918C182.356 149.918 180.114 150.091 177.97 150.041C177.699 157.853 178.069 175.249 172.155 178.28C170.553 179.192 168.606 177.787 170.479 176.604C175.752 173.795 175.457 156.473 175.629 149.696C175.654 148.76 175.9 147.577 177.255 147.701C181.124 147.922 182.455 147.873 186.693 147.479C189.28 147.158 189.083 149.228 187.013 149.721Z" fill="white" stroke="white" stroke-width="2"/>
<path d="M210.422 149.352C210.521 158.764 209.954 167.315 209.707 178.354C209.683 179.758 207.243 179.463 207.268 178.206C207.367 172.021 207.933 161.327 208.056 153.861C204.681 163.323 200.344 172.292 196.278 178.083C195.564 179.463 194.184 179.216 194.011 177.886C193.814 175.175 195.588 158.321 194.824 149.155C194.775 147.578 197.214 147.898 197.313 149.253C197.658 153.639 196.796 169.261 196.426 173.992C200.787 167.142 204.237 158.173 207.983 148.908C208.155 147.725 210.397 148.218 210.422 149.352Z" fill="white" stroke="white" stroke-width="2"/>
<path d="M233.535 149.894C233.633 159.307 233.067 167.857 232.82 178.896C232.796 180.301 230.356 180.005 230.381 178.748C230.48 172.563 231.046 161.869 231.169 154.403C227.794 163.865 223.457 172.834 219.391 178.625C218.677 180.005 217.297 179.759 217.124 178.428C216.927 175.717 218.701 158.863 217.937 149.697C217.888 148.12 220.327 148.44 220.426 149.795C220.771 154.181 219.909 169.804 219.539 174.535C223.9 167.685 227.35 158.715 231.096 149.45C231.44 148.268 233.51 148.76 233.535 149.894ZM228.878 147.109C227.104 148.095 224.96 148.243 223.087 146.937C222.471 146.518 222.594 144.941 223.629 145.409C225.502 146.222 226.364 146.296 228.237 145.483C229.247 144.916 229.716 146.641 228.878 147.109Z" fill="white" stroke="white" stroke-width="2"/>
<path d="M105.846 204.916C107.325 207.06 107.596 210.584 107.177 213.935C106.857 216.128 104.269 215.537 104.368 213.836C104.688 211.865 104.417 208.883 103.555 207.06C102.076 204.423 97.7149 204.423 95.3987 206.296C90.1748 210.929 89.2877 229.409 94.4623 235.52C96.7293 238.108 99.8586 238.206 102.101 235.619C103.53 234.362 104.072 232.859 105.009 230.395C105.551 228.843 108.483 229.138 107.916 230.789C106.536 234.707 105.329 237.22 102.865 239.093C99.6122 241.508 95.5465 240.646 92.9592 238.428C85.8627 232.662 86.2569 209.327 93.7723 203.931C97.2713 201.565 103.653 201.713 105.846 204.916Z" fill="white" stroke="white" stroke-width="2" stroke-miterlimit="10"/>
<path d="M130.462 222.806C134.972 222.757 135.021 225.295 130.906 225.566C131.941 230.124 132.951 234.486 134.208 238.773C134.824 241.237 131.892 241.311 131.349 239.315C130.093 234.412 129.156 229.804 128.097 225.492C125.066 225.319 120.951 225.442 118.733 225.492C117.526 230.174 116.466 234.732 115.653 239.586C115.382 241.287 112.45 241.459 112.894 239.093C113.337 234.978 114.594 230.026 115.875 225.566C112.524 225.245 112.795 223.102 116.54 223.028C118.191 218.617 119.226 209.993 121.666 203.832C122.38 201.96 123.982 201.91 124.573 203.512C126.766 211.028 129.23 218.74 130.462 222.806ZM119.399 222.855C121.37 222.855 124.573 222.683 127.481 222.806C126.372 219.405 124.499 212.284 123.144 207.455C121.321 212.95 120.779 218.937 119.399 222.855Z" fill="white" stroke="white" stroke-width="2" stroke-miterlimit="10"/>
<path d="M160.155 203.66C160.549 215.118 160.105 225.565 160.105 238.995C160.105 240.695 157.124 240.424 157.124 238.896C157.074 231.356 157.444 218.321 157.395 209.228C153.551 220.834 148.524 231.898 143.744 239.044C142.931 240.744 141.206 240.473 140.984 238.871C140.664 235.57 142.364 214.994 141.156 203.881C141.058 201.959 144.015 202.28 144.187 203.931C144.729 209.278 144.138 228.3 143.793 234.091C148.918 225.615 152.861 214.6 157.173 203.216C157.567 201.713 160.105 202.28 160.155 203.66ZM154.438 200.407C152.294 201.664 149.707 201.885 147.391 200.358C146.627 199.865 146.725 197.943 148.007 198.485C150.323 199.421 151.358 199.471 153.625 198.436C154.832 197.697 155.424 199.791 154.438 200.407Z" fill="white" stroke="white" stroke-width="2" stroke-miterlimit="10"/>
<path d="M186.003 202.551C187.752 202.551 186.767 205.237 185.288 205.187C180.656 205.015 179.227 205.089 176.984 205.138C177.921 214.871 177.305 230.173 177.305 238.97C177.206 240.621 174.446 240.941 174.446 239.414C174.717 229.188 175.112 215.537 174.225 205.015C173.017 204.966 169.666 205.114 165.871 204.966C163.949 204.916 164.984 202.206 166.537 202.28C171.933 202.502 179.572 202.329 186.003 202.551Z" fill="white" stroke="white" stroke-width="2" stroke-miterlimit="10"/>
<path d="M51.0698 259.249C56.7864 261.442 55.8501 267.627 52.6714 269.697C51.7843 270.338 50.5769 270.732 49.6406 270.806C51.4394 271.175 53.386 271.865 54.8645 273.023C59.8419 276.67 58.0185 286.477 51.7844 289.065C48.6057 290.247 45.156 289.681 42.8397 288.646C42.1251 290.272 40.1785 290.1 40.7452 288.079C38.8972 287.167 39.2422 285.369 41.2134 285.886C42.0512 280.909 42.5687 276.867 42.7904 271.816C40.4003 271.471 40.5235 269.401 42.8644 269.475C42.889 267.085 43.0122 263.192 42.889 260.802C40.8931 260.802 40.2032 258.485 42.4208 258.436C45.6981 258.264 48.1868 258.214 51.0698 259.249ZM43.3079 286.453C45.4024 287.291 47.7433 287.98 50.5523 287.143C55.4312 285.492 57.23 277.631 52.8932 274.058C51.0205 272.752 47.965 272.136 44.9588 271.989C44.7371 277.163 44.1457 281.919 43.3079 286.453ZM45.082 269.574C46.6098 269.648 48.5317 269.525 50.0102 268.908C54.1745 267.258 53.5585 262.477 49.9856 261.221C48.5564 260.777 46.8069 260.654 45.082 260.703C45.2792 262.995 45.156 267.381 45.082 269.574Z" fill="white" stroke="white" stroke-width="2"/>
<path d="M102.889 291.307C102.939 292.934 100.622 293.18 100.672 291.431C100.696 288.227 100.598 284.901 100.401 281.747C96.9755 281.624 92.7126 281.574 89.2136 281.229C89.3861 286.034 89.1151 288.745 88.9179 291.357C88.7947 292.712 86.4785 293.18 86.6017 291.554C86.8235 288.129 87.1684 286.7 86.8235 281.081C85.961 280.983 85.0493 281.032 84.2854 280.958C82.6592 280.835 83.0041 278.667 84.2115 278.79C84.9261 278.864 85.7885 278.815 86.7003 278.913C86.651 276.277 86.9713 268.022 87.1438 262.059C87.2177 260.703 89.5093 260.186 89.46 261.862C89.3122 268.539 88.7454 275.71 89.0904 279.036C92.8358 279.455 96.1623 279.431 100.327 279.554C100.105 273.172 100.056 268.096 100.425 262.281C100.499 260.876 102.766 260.556 102.692 262.182C102.076 271.841 102.643 282.634 102.889 291.307Z" fill="white" stroke="white" stroke-width="2"/>
<path d="M122.676 262.354C124.13 262.428 123.193 264.596 121.986 264.498C118.191 264.178 117.033 264.153 115.185 264.104C115.555 272.137 114.421 284.654 114.052 291.874C113.904 293.229 111.612 293.377 111.686 292.12C112.327 283.742 113.214 272.555 112.943 263.906C111.957 263.808 109.197 263.808 106.093 263.512C104.516 263.389 105.477 261.221 106.758 261.319C111.119 261.738 117.403 261.911 122.676 262.354Z" fill="white" stroke="white" stroke-width="2"/>
<path d="M140.072 265.557C138.766 265.483 133.715 265.015 130.241 264.917C130.191 268.588 129.994 272.284 129.994 275.931C133.764 276.399 137.313 276.35 139.432 276.276C141.058 276.227 141.107 278.223 139.555 278.321C135.883 278.494 133.715 278.395 129.97 278.198C129.945 278.863 129.502 289.903 129.723 291.701C134.134 291.923 138.298 291.923 139.58 292.022C141.526 292.219 140.91 294.264 138.939 294.116C136.105 293.87 133.518 294.067 128.269 293.796C128.048 293.796 127.53 293.402 127.456 292.983C126.84 290.001 127.777 268.12 127.801 264.867C126.545 264.794 125.682 262.945 128.269 262.724C130.216 262.551 136.45 263.093 140.171 263.34C141.945 263.34 141.699 265.533 140.072 265.557Z" fill="white" stroke="white" stroke-width="2"/>
<path d="M157.617 265.089C163.58 268.564 164.245 277.286 157.814 281.599C155.892 283.028 153.132 283.94 150.471 283.792C150.421 286.33 150.249 290.839 150.619 293.426C150.791 295.2 148.524 295.397 148.302 293.673C147.883 290.568 148.155 285.073 148.228 283.718C145.666 283.274 145.986 281.352 148.081 281.401C147.834 278.913 147.514 271.274 147.933 266.568C146.208 266.74 145.025 265.065 147.859 264.301C150.914 263.537 155.079 263.562 157.617 265.089ZM150.298 281.549C152.245 281.697 154.512 281.303 156.705 279.923C160.918 277.188 161.165 269.796 156.458 266.888C154.315 265.557 152.122 265.804 150.15 266.247C149.658 271.028 150.224 279.775 150.298 281.549Z" fill="white" stroke="white" stroke-width="2"/>
<path d="M183.219 295.373C183.268 296.999 180.952 297.246 181.001 295.496C181.026 292.293 180.927 288.966 180.73 285.812C177.305 285.689 173.042 285.64 169.543 285.295C169.715 290.1 169.444 292.81 169.247 295.422C169.124 296.777 166.808 297.246 166.931 295.619C167.153 292.194 167.498 290.765 167.153 285.147C166.29 285.048 165.379 285.098 164.615 285.024C162.988 284.901 163.333 282.732 164.541 282.855C165.255 282.929 166.118 282.88 167.03 282.979C166.98 280.342 167.301 272.087 167.473 266.124C167.547 264.769 169.839 264.251 169.789 265.927C169.641 272.605 169.075 279.775 169.42 283.102C173.165 283.521 176.492 283.496 180.656 283.619C180.434 277.237 180.385 272.161 180.754 266.346C180.828 264.941 183.095 264.621 183.021 266.247C182.381 275.931 182.972 286.724 183.219 295.373Z" fill="white" stroke="white" stroke-width="2"/>
<path d="M200.295 268.613C198.989 268.539 193.937 268.071 190.463 267.972C190.414 271.644 190.217 275.34 190.217 278.987C193.987 279.455 197.535 279.406 199.654 279.332C201.28 279.283 201.329 281.278 199.777 281.377C196.106 281.549 193.937 281.451 190.192 281.254C190.167 281.919 189.724 292.958 189.945 294.757C194.356 294.979 198.52 294.979 199.802 295.077C201.748 295.274 201.132 297.32 199.161 297.172C196.327 296.925 193.74 297.123 188.492 296.851C188.27 296.851 187.752 296.457 187.678 296.038C187.062 293.057 187.999 271.176 188.023 267.923C186.767 267.849 185.904 266.001 188.492 265.779C190.438 265.607 196.648 266.149 200.393 266.395C202.167 266.395 201.921 268.613 200.295 268.613Z" fill="white" stroke="white" stroke-width="2"/>
<path d="M223.063 267.48C224.517 267.553 223.58 269.722 222.373 269.623C218.578 269.303 217.42 269.278 215.572 269.229C215.942 277.262 214.808 289.78 214.438 296.999C214.291 298.355 211.999 298.502 212.073 297.246C212.714 288.868 213.601 277.681 213.33 269.032C212.344 268.933 209.584 268.933 206.479 268.638C204.902 268.515 205.863 266.346 207.145 266.445C211.531 266.839 217.814 267.011 223.063 267.48Z" fill="white" stroke="white" stroke-width="2"/>
</svg>
