<svg width="220" height="219" viewBox="0 0 220 219" fill="none" xmlns="http://www.w3.org/2000/svg">
<path d="M36.4076 88.1212C36.6693 86.8648 36.8263 85.5037 37.1928 84.2997C37.4022 83.6192 37.821 83.0433 38.2398 82.4675C38.5015 81.0017 39.0774 79.693 40.1767 78.6983C40.229 78.5936 40.2291 78.5413 40.2814 78.4366C40.9096 76.7614 41.9042 75.1909 43.37 74.2486C43.4224 74.1963 43.4747 74.1439 43.4747 74.0916C44.6787 72.3117 45.9351 70.5842 47.4009 69.066C50.5419 65.6633 54.7298 65.4539 59.0224 65.768C59.1271 65.7157 59.2319 65.7157 59.3889 65.768C61.3782 65.0352 63.2628 64.0405 65.1997 63.1506C69.3353 61.266 73.8897 59.3291 78.13 57.6539C78.5487 57.4968 78.9675 57.3398 79.4387 57.1828C79.5434 57.0257 79.6481 56.921 79.7528 56.764C81.4803 55.1411 83.9407 54.827 86.0347 53.8847C87.5528 53.2042 89.4374 52.0525 91.2696 51.6861C91.4267 51.529 91.6361 51.372 91.9502 51.2673C92.7354 50.9532 94.8294 49.8538 95.6146 49.9585C96.9234 50.1156 97.0281 52.6284 97.4469 54.6176C97.3945 54.67 97.3945 54.7223 97.3422 54.7747C97.918 55.5599 98.4415 56.4499 99.0173 57.3398C99.5408 58.1774 99.9596 59.1197 100.64 59.8526C101.321 60.6378 101.373 61.8418 102.106 62.5224C102.682 63.0459 103.362 63.7264 103.31 64.6164C103.938 64.9828 104.462 65.5586 104.723 66.1868C105.561 66.5533 106.451 65.7157 106.817 66.4486C107.184 67.0768 107.027 69.1707 106.66 69.5895C106.713 70.0083 106.556 70.3748 106.032 70.6365C103.415 72.1547 100.693 73.5681 98.4415 75.6097C97.6039 76.3949 96.7663 77.0755 95.8764 77.7037L95.824 77.7561C95.3005 78.4366 94.8817 79.1171 94.4629 79.85C94.9341 80.2688 95.4052 80.6876 95.824 81.1588C96.7663 82.2057 97.8133 82.7816 98.965 83.6192C99.2791 83.8809 99.5408 84.1427 99.8549 84.4044C99.9596 84.5091 100.85 85.3467 100.117 84.8755C100.85 85.2943 101.53 85.7655 102.158 86.3413C103.676 87.7024 104.671 89.587 105.823 91.3145C105.927 91.4716 105.98 91.6286 106.032 91.838C107.812 93.042 108.859 94.8743 109.54 97.0729C109.854 97.5441 110.22 98.0676 110.534 98.5387C111.005 99.2716 111.162 100.004 111.267 100.842C111.424 101.051 111.529 101.313 111.634 101.575C111.895 102.151 112.105 102.779 112.366 103.355C112.471 103.617 112.471 103.826 112.419 104.035C112.576 104.35 112.733 104.716 112.89 105.082C113.361 106.234 113.309 107.543 113.047 108.799C113.518 109.741 113.675 110.736 113.309 111.835C112.419 114.61 108.911 113.406 106.084 111.888C105.561 111.783 105.09 111.574 104.671 111.364C103.729 110.841 98.4415 109.48 98.1274 108.433C97.5516 106.548 96.9757 103.878 96.1381 102.36C96.0858 102.36 96.0858 102.36 96.0334 102.308C95.0911 102.046 94.0965 101.784 93.1542 101.47C93.1019 101.47 93.0495 101.47 92.9972 101.523C90.432 101.941 87.8146 102.413 85.2495 102.517C84.0978 102.57 82.9461 102.465 81.7944 102.308C80.538 102.465 79.2293 102.36 77.8682 101.941C76.1407 101.418 76.6118 101.523 74.832 101.209C73.4709 100.999 58.0278 126.074 47.2962 144.397C44.574 149.003 43.9982 152.092 42.2707 155.285C40.9619 157.746 39.9673 160.259 35.9364 166.698C35.9364 166.698 29.0786 168.32 19.8128 164.708C13.7926 162.3 10.704 156.228 10.4946 155.338C13.845 149.108 44.1553 97.3347 42.4277 98.6958C41.4331 99.481 42.0089 97.3347 40.8572 96.3401C39.025 95.136 37.2975 93.5132 36.5646 91.4192C36.2505 90.2675 36.1982 89.2205 36.4076 88.1212Z" fill="#231F20"/>
<path d="M105.665 66.3964C109.277 64.1977 155.135 33.521 160.527 32.5263C165.919 31.5317 211.62 19.1773 216.594 18.1826C220.991 17.188 219.211 0.488559 215.704 1.01205C212.196 1.53555 162.935 13.4188 156.13 16.9786C149.325 20.5907 99.6452 49.9063 97.4465 51.1103C95.6666 52.6808 100.483 61.0044 105.665 66.3964Z" stroke="#231F20" stroke-linecap="round" stroke-linejoin="round"/>
<path d="M97.4471 51.0585C96.8189 49.5927 94.7773 49.5927 92.9974 50.4826C91.2175 51.3726 61.3261 64.8263 59.4938 65.6639C57.1905 65.4545 52.6884 64.6693 50.2804 66.7109C47.8723 68.7525 26.0426 88.6453 42.6374 97.3876C42.585 104.926 20.3366 135.131 14.5781 148.428C11.9083 153.297 3.42774 165.703 5.99286 170.415C8.03448 174.132 16.6198 181.879 22.954 181.408C29.2883 180.937 40.6481 157.799 43.1085 153.925C45.5166 156.019 56.667 161.097 60.4885 165.442C64.31 169.787 69.0738 182.194 62.9489 184.078C61.5878 184.654 56.5623 177.691 54.9918 175.179C53.4213 172.666 43.2656 173.661 48.5528 179.89C53.8401 186.12 61.4831 192.663 72.9476 193.658C76.6644 193.71 79.596 193.658 81.0094 191.093C82.4229 188.528 105.928 124.138 110.43 113.197C112.053 113.668 112.733 112.988 112.995 110.527C113.257 108.067 114.932 95.7648 94.5679 79.6936C96.5048 77.0761 103.467 71.6318 105.561 70.9512C107.655 70.2707 107.812 67.8626 106.608 65.7163" stroke="#231F20" stroke-linecap="round" stroke-linejoin="round"/>
<path d="M79.8051 166.698C77.7111 165.284 71.9003 165.703 70.0157 166.174C71.1151 167.85 75.303 175.859 75.8265 177.063C77.2923 174.184 79.8051 166.698 79.8051 166.698Z" stroke="#231F20" stroke-linecap="round" stroke-linejoin="round"/>
<path d="M85.1972 153.348C85.4066 144.868 105.927 110.945 95.0912 101.156C89.3851 102.727 80.1193 102.831 74.9367 101.156C69.44 107.961 50.0708 139.266 47.401 145.077C49.3902 146.7 54.6775 152.249 65.3044 154.186C70.5394 155.076 77.1354 153.872 85.1972 153.348Z" stroke="#231F20" stroke-linecap="round" stroke-linejoin="round"/>
<path d="M19.9698 181.093C13.8449 189.678 14.6302 205.802 24.2101 217.999" stroke="#231F20" stroke-linecap="round" stroke-linejoin="round"/>
<path d="M7.72015 173.346C1.59528 181.931 -3.11615 204.441 6.46377 216.586" stroke="#231F20" stroke-linecap="round" stroke-linejoin="round"/>
</svg>
