<svg width="132" height="169" viewBox="0 0 132 169" fill="none" xmlns="http://www.w3.org/2000/svg">
<path d="M116.864 93.1646C116.864 93.1646 122.123 85.5367 128.377 89.2322C134.631 92.9277 128.661 105.862 126.15 113.111C123.544 120.738 117.196 123.581 113.405 118.37" stroke="#040913" stroke-miterlimit="10" stroke-linecap="round" stroke-linejoin="round"/>
<path d="M127.714 97.8076C127.714 97.8076 120.654 95.4387 115.68 105.814" stroke="#040913" stroke-miterlimit="10" stroke-linecap="round" stroke-linejoin="round"/>
<path d="M119.043 100.745C119.043 100.745 126.718 104.867 121.649 111.026" stroke="#040913" stroke-miterlimit="10" stroke-linecap="round" stroke-linejoin="round"/>
<path d="M15.4279 93.1646C15.4279 93.1646 10.1691 85.5367 3.91521 89.2322C-2.33867 92.9277 2.92023 105.862 6.23668 112.921C9.69526 120.17 15.049 123.581 18.8392 118.37" stroke="#040913" stroke-miterlimit="10" stroke-linecap="round" stroke-linejoin="round"/>
<path d="M4.62592 97.8076C4.62592 97.8076 11.6852 95.4387 16.6598 105.814" stroke="#040913" stroke-miterlimit="10" stroke-linecap="round" stroke-linejoin="round"/>
<path d="M13.2483 100.745C13.2483 100.745 5.5731 104.867 10.6425 111.026" stroke="#040913" stroke-miterlimit="10" stroke-linecap="round" stroke-linejoin="round"/>
<path d="M116.864 74.8294C116.864 74.8294 123.118 167.927 66.8328 167.927C10.548 167.927 15.049 74.8294 15.049 74.8294C15.049 74.8294 12.3483 19.4447 68.728 19.4447C121.223 19.4447 116.864 74.8294 116.864 74.8294Z" stroke="#040913" stroke-miterlimit="10" stroke-linecap="round" stroke-linejoin="round"/>
<path d="M118.854 45.5973C118.854 36.785 113.689 28.8256 105.683 25.2248L96.3966 20.2975C92.0379 9.35324 82.894 -0.501374 63.8481 0.0197822C62.0951 0.06716 60.342 0.398805 58.6838 0.967339C53.3775 2.72032 42.5754 7.60028 40.1117 18.5446L27.4144 25.2722C19.4076 28.8729 14.2434 36.8324 14.2434 45.6447V78.8565C14.1486 81.2254 14.1486 83.5469 14.2434 85.7737V86.1054C14.2434 86.1054 14.2434 86.0106 14.2434 85.8211C14.3381 87.9531 14.5277 90.0377 14.812 91.9328C14.812 91.9328 26.2774 68.8598 24.1454 54.5517C23.3874 49.5297 24.098 44.3181 26.9881 40.1489C27.7461 39.0592 28.5042 38.0642 29.357 37.1167C33.242 32.8527 37.4112 30.01 41.3909 28.0675C44.0914 35.8375 51.4824 46.8765 72.0443 51.4722C72.0443 51.4722 58.5417 42.4703 50.9612 31.7629C57.5467 38.0642 71.5233 46.308 99.95 48.2978C99.95 48.2978 100.85 40.7648 99.4288 31.6208C101.419 33.0896 103.409 34.7478 105.256 36.785C105.304 36.8324 105.304 36.8324 105.351 36.8798C109.52 41.4754 110.942 47.9662 109.615 54.078C105.777 71.3235 117.101 91.9802 117.101 91.9802C117.575 88.9954 117.764 85.5842 117.764 81.9835C117.811 84.8261 117.764 86.7212 117.764 87.195L118.854 45.5973Z" fill="#231F20"/>
<path d="M65.2221 91.4116L63.5165 110.931C63.5165 111.547 63.6113 112.116 63.8482 112.637C64.701 114.722 67.1173 115.716 69.2967 115.148L73.987 113.916" stroke="#040913" stroke-miterlimit="10" stroke-linecap="round" stroke-linejoin="round"/>
<path d="M57.2625 56.494C57.1678 56.8257 57.0731 58.5786 56.9783 60.4263C56.8836 63.3638 54.8937 65.8748 52.0984 66.6803L31.0153 72.792L38.3588 65.3063C40.2539 63.5533 42.4807 62.1794 44.897 61.2318L57.2625 56.494Z" fill="#231F20"/>
<path d="M77.7299 56.494C77.8247 56.8257 77.9195 58.8629 78.0142 60.9001C78.109 63.5533 79.862 65.8274 82.4204 66.5381L103.977 72.792L96.6811 65.2589C94.7859 63.5059 92.5593 62.132 90.143 61.1844L77.7299 56.494Z" fill="#231F20"/>
<path d="M45.7498 121.686C45.7498 121.686 56.0781 128.887 68.6333 128.887C81.1884 128.887 89.8112 121.686 89.8112 121.686" stroke="#040913" stroke-miterlimit="10" stroke-linecap="round" stroke-linejoin="round"/>
<path d="M69.9599 151.202L68.2069 156.982" stroke="#040913" stroke-miterlimit="10" stroke-linecap="round" stroke-linejoin="round"/>
<path d="M96.1594 83.6418C95.9225 83.4523 95.6856 83.2154 95.354 82.9311C95.2118 82.789 95.0223 82.6469 94.8328 82.5048C94.6433 82.3626 94.4537 82.2679 94.2168 82.1257C93.7904 81.8415 93.3167 81.5572 92.7955 81.2729C92.2743 81.036 91.7059 80.7991 91.09 80.5622C90.8057 80.4201 90.4741 80.3727 90.1424 80.278C89.8108 80.1832 89.4791 80.0885 89.1474 80.0411C88.4841 79.899 87.7735 79.8516 87.0629 79.8042L86.0205 79.8516C85.6888 79.8516 85.3098 79.8516 84.9782 79.9464C84.6465 79.9937 84.3149 80.0411 83.9833 80.1359C83.6517 80.1833 83.32 80.3254 83.0357 80.4201C82.4198 80.5623 81.8512 80.8939 81.2827 81.1308C80.7615 81.4151 80.2404 81.6519 79.8613 81.9836C79.6718 82.1257 79.435 82.2678 79.2455 82.41C79.056 82.5521 78.9138 82.6943 78.7243 82.8364C78.3927 83.1207 78.1557 83.4049 77.9662 83.5944C77.5872 84.0208 77.3977 84.3525 77.3977 84.3525C77.3977 84.3525 77.4452 84.3051 77.5873 84.2104C77.7294 84.1156 77.9189 84.0208 78.1558 83.8787C78.3927 83.7365 78.7243 83.5944 79.0559 83.4049C79.435 83.2154 79.814 83.0259 80.2404 82.8364C80.6668 82.6469 81.1879 82.5048 81.6617 82.3152C82.1829 82.1731 82.704 81.9836 83.3199 81.9362C83.6042 81.8888 83.8885 81.7941 84.1728 81.7941C84.457 81.7467 84.7886 81.7467 85.0729 81.6993C85.2624 81.6519 85.4046 81.6519 85.5941 81.6519C84.5518 82.5521 83.8411 84.3999 83.8411 86.5319C83.8411 89.5641 85.2625 91.9803 87.0154 91.9803C88.7684 91.9803 90.1897 89.5167 90.1897 86.5319C90.1897 84.4946 89.5265 82.7417 88.5789 81.7941C88.6263 81.7941 88.6737 81.7941 88.7211 81.7941C89.337 81.9362 89.9055 81.9836 90.474 82.1257C91.0426 82.3152 91.6111 82.4574 92.1323 82.5995C92.6534 82.789 93.1271 82.9785 93.6009 83.1206C93.8378 83.2154 94.0748 83.2628 94.2643 83.3575C94.4538 83.4523 94.6433 83.547 94.8328 83.5944C95.2118 83.7839 95.5434 83.8787 95.7803 84.0208C96.3015 84.2577 96.6332 84.3525 96.6332 84.3525C96.6332 84.3525 96.5858 84.0208 96.1594 83.6418Z" fill="#231F20"/>
<path d="M54.5141 82.9785C54.372 82.8364 54.1826 82.6943 53.9931 82.5521C53.8035 82.41 53.614 82.3152 53.3771 82.1731C52.9507 81.8888 52.4769 81.6046 51.9558 81.3203C51.4346 81.0834 50.866 80.8465 50.2501 80.6097C49.9659 80.4675 49.6342 80.4201 49.3026 80.3253C48.9709 80.2306 48.6394 80.1358 48.3077 80.0885C47.6444 79.9463 46.9337 79.8989 46.223 79.8516L45.1807 79.899C44.8491 79.899 44.4701 79.899 44.1384 79.9937C43.8068 80.0411 43.4751 80.0885 43.1435 80.1832C42.8118 80.2306 42.4802 80.3727 42.1959 80.4675C41.58 80.6096 41.0115 80.9413 40.4429 81.1782C39.9218 81.4624 39.4006 81.6993 39.0216 82.031C38.8321 82.1731 38.5952 82.3152 38.4057 82.4573C38.2162 82.5995 38.0741 82.7416 37.8846 82.8838C37.5529 83.168 37.316 83.4523 37.1265 83.6418C36.7475 84.0682 36.558 84.3999 36.558 84.3999C36.558 84.3999 36.6053 84.3525 36.7474 84.2577C36.8896 84.163 37.0792 84.0682 37.3161 83.9261C37.553 83.784 37.8846 83.6418 38.2162 83.4523C38.5952 83.2628 38.9743 83.0733 39.4007 82.8838C39.8271 82.6942 40.3482 82.5521 40.822 82.3626C41.3431 82.2205 41.8643 82.0309 42.4802 81.9836C42.7645 81.9362 43.0488 81.8415 43.333 81.8415C43.6173 81.7941 43.9489 81.7941 44.2332 81.7467C44.4227 81.6993 44.5649 81.6993 44.7544 81.6993C43.7121 82.5995 43.0014 84.4472 43.0014 86.5793C43.0014 89.6114 44.4227 92.0277 46.1757 92.0277C47.9287 92.0277 49.35 89.5641 49.35 86.5793C49.35 84.542 48.6868 82.789 47.7392 81.8415C47.7866 81.8415 47.8339 81.8415 47.8812 81.8415C48.4972 81.9836 49.0657 82.031 49.6816 82.1731C50.2502 82.3626 50.8187 82.5047 51.3398 82.6469C51.861 82.8364 52.3348 83.0259 52.8086 83.168C53.0455 83.2628 53.2823 83.3101 53.4719 83.4049C53.6614 83.4997 53.8509 83.5944 54.0404 83.6418C54.4194 83.8313 54.751 83.9261 54.9879 84.0682C55.5091 84.3051 55.8407 84.3999 55.8407 84.3999C55.8407 84.3999 55.6039 84.163 55.1775 83.7839C55.0827 83.4523 54.7984 83.2154 54.5141 82.9785Z" fill="#231F20"/>
<path d="M63.8006 133.815H71.8074" stroke="#040913" stroke-miterlimit="10" stroke-linecap="round" stroke-linejoin="round"/>
</svg>
