 <svg width="173" height="170" viewBox="0 0 173 170" fill="none" xmlns="http://www.w3.org/2000/svg">
<path d="M157.724 94.1562C157.724 94.1562 162.983 86.5284 169.237 90.2239C175.491 93.9193 169.522 106.854 167.011 114.102C164.405 121.73 158.056 124.573 154.266 119.361" stroke="#231F20" stroke-width="2" stroke-miterlimit="10" stroke-linecap="round" stroke-linejoin="round"/>
<path d="M168.574 98.7518C168.574 98.7518 161.515 96.383 156.54 106.759" stroke="#231F20" stroke-width="2" stroke-miterlimit="10" stroke-linecap="round" stroke-linejoin="round"/>
<path d="M159.904 101.689C159.904 101.689 167.579 105.811 162.51 111.97" stroke="#231F20" stroke-width="2" stroke-miterlimit="10" stroke-linecap="round" stroke-linejoin="round"/>
<path d="M56.2885 94.1562C56.2885 94.1562 51.0297 86.5284 44.7758 90.2239C38.5219 93.9193 43.7808 106.854 47.0973 113.913C50.5559 121.162 55.9096 124.573 59.6998 119.361" stroke="#231F20" stroke-width="2" stroke-miterlimit="10" stroke-linecap="round" stroke-linejoin="round"/>
<path d="M45.4865 98.7518C45.4865 98.7518 52.5457 96.383 57.5204 106.759" stroke="#231F20" stroke-width="2" stroke-miterlimit="10" stroke-linecap="round" stroke-linejoin="round"/>
<path d="M54.1088 101.689C54.1088 101.689 46.4336 105.811 51.5031 111.97" stroke="#231F20" stroke-width="2" stroke-miterlimit="10" stroke-linecap="round" stroke-linejoin="round"/>
<path d="M157.725 75.7737C157.725 75.7737 163.979 168.871 107.694 168.871C51.4088 168.871 55.9098 75.7737 55.9098 75.7737C55.9098 75.7737 53.2092 20.389 109.589 20.389C162.083 20.389 157.725 75.7737 157.725 75.7737Z" stroke="#231F20" stroke-width="2" stroke-miterlimit="10" stroke-linecap="round" stroke-linejoin="round"/>
<path d="M159.714 46.5416C159.714 37.7293 154.55 29.7698 146.543 26.1691L137.257 21.2418C132.899 10.2975 123.755 0.442901 104.709 0.964057C102.956 1.01143 101.203 1.34308 99.5446 1.91161C94.2383 3.66459 83.4361 8.54452 80.9725 19.4888L68.2752 26.2165C60.2684 29.8172 55.1041 37.7767 55.1041 46.5889V79.8008C55.0094 82.1697 55.0094 84.4912 55.1041 86.718V87.0496C55.1041 87.0496 55.1041 86.9548 55.1041 86.7653C55.1989 88.8973 55.3885 90.982 55.6728 92.8771C55.6728 92.8771 67.1382 69.8041 65.0062 55.496C64.2481 50.4739 64.9588 45.2624 67.8489 41.0931C68.6069 40.0034 69.365 39.0085 70.2178 38.0609C74.1027 33.7969 78.2719 30.9542 82.2517 29.0117C84.9522 36.7817 92.3431 47.8208 112.905 52.4164C112.905 52.4164 99.4024 43.4146 91.822 32.7072C98.4075 39.0085 112.384 47.2522 140.811 49.2421C140.811 49.2421 141.711 41.709 140.29 32.5651C142.279 34.0338 144.269 35.692 146.117 37.7293C146.164 37.7766 146.164 37.7767 146.212 37.824C150.381 42.4197 151.802 48.9104 150.476 55.0222C146.638 72.2677 157.962 92.9245 157.962 92.9245C158.435 89.9397 158.625 86.5285 158.625 82.9277C158.672 85.7704 158.625 87.6655 158.625 88.1393L159.714 46.5416Z" fill="#231F20"/>
<path d="M106.083 92.4033L104.377 111.923C104.377 112.539 104.472 113.107 104.709 113.629C105.562 115.713 107.978 116.708 110.157 116.14L114.848 114.908" stroke="#231F20" stroke-width="2" stroke-miterlimit="10" stroke-linecap="round" stroke-linejoin="round"/>
<path d="M100.397 64.4504C100.113 64.7347 98.7866 67.0088 97.6495 68.9987C96.6072 70.8464 94.5226 71.794 92.438 71.3676L69.5544 66.7245L79.5038 63.4555C82.0148 62.7922 84.6207 62.6027 87.1791 62.8869L100.397 64.4504Z" fill="#231F20"/>
<path d="M116.317 64.2609C116.601 64.5452 117.88 66.8193 118.97 68.8565C119.965 70.7043 122.049 71.6992 124.134 71.3202L147.065 67.0088L137.163 63.5976C134.652 62.8869 132.093 62.65 129.487 62.9343L116.317 64.2609Z" fill="#231F20"/>
<path d="M110.821 152.194L109.068 157.974" stroke="#231F20" stroke-width="2" stroke-miterlimit="10" stroke-linecap="round" stroke-linejoin="round"/>
<path d="M118.306 88.0446C118.306 88.0446 118.354 88.092 118.496 88.1867C118.638 88.2815 118.827 88.3762 119.064 88.5184C119.301 88.6605 119.633 88.8026 119.965 88.9921C120.344 89.1816 120.723 89.3712 121.149 89.5607C121.575 89.7502 122.097 89.8923 122.57 90.0818C123.092 90.224 123.613 90.4135 124.229 90.4608C124.513 90.5082 124.797 90.603 125.081 90.603C125.366 90.6504 125.697 90.6504 125.982 90.6977C126.266 90.7451 126.597 90.7451 126.882 90.7451H127.829C128.445 90.6977 129.061 90.6504 129.677 90.5556C130.293 90.4135 130.862 90.3661 131.43 90.224C131.999 90.0344 132.567 89.8923 133.088 89.7502C133.609 89.5607 134.083 89.3712 134.557 89.229C134.794 89.1343 135.031 89.0869 135.22 88.9921C135.41 88.8974 135.599 88.8026 135.789 88.7552C136.168 88.5657 136.499 88.471 136.736 88.3288C137.257 88.0919 137.589 87.9972 137.589 87.9972C137.589 87.9972 137.352 88.2341 136.926 88.6131C136.689 88.8026 136.452 89.0395 136.12 89.3238C135.978 89.4659 135.789 89.608 135.599 89.7502C135.41 89.8923 135.22 89.9871 134.983 90.1292C134.557 90.4135 134.083 90.6977 133.562 90.982C133.041 91.2189 132.472 91.4558 131.856 91.6927C131.572 91.8348 131.24 91.8822 130.909 91.9769C130.577 92.0717 130.246 92.1664 129.914 92.2138C129.251 92.356 128.54 92.4033 127.829 92.4507L126.787 92.4033C126.455 92.4033 126.076 92.4033 125.745 92.3086C125.413 92.2612 125.081 92.2138 124.75 92.1191C124.418 92.0717 124.086 91.9296 123.802 91.8348C123.186 91.6927 122.618 91.361 122.049 91.1241C121.528 90.8399 121.007 90.603 120.628 90.2713C120.438 90.1292 120.201 89.9871 120.012 89.8449C119.822 89.7028 119.68 89.5607 119.491 89.4185C119.159 89.1343 118.922 88.85 118.733 88.6605C118.496 88.3288 118.306 88.0446 118.306 88.0446Z" fill="#231F20"/>
<path d="M77.4667 88.0446C77.4667 88.0446 77.514 88.092 77.6561 88.1867C77.7983 88.2815 77.9878 88.3762 78.2247 88.5184C78.4615 88.6605 78.7933 88.8026 79.1249 88.9921C79.5039 89.1816 79.8829 89.3712 80.3093 89.5607C80.7357 89.7502 81.2569 89.8923 81.7307 90.0818C82.2518 90.224 82.773 90.4135 83.3889 90.4608C83.6732 90.5082 83.9573 90.603 84.2416 90.603C84.5259 90.6504 84.8576 90.6504 85.1419 90.6977C85.4261 90.7451 85.7577 90.7451 86.042 90.7451H86.9896C87.6055 90.6977 88.2214 90.6504 88.8374 90.5556C89.4533 90.4135 90.0217 90.3661 90.6376 90.224C91.2062 90.0344 91.7747 89.8923 92.2958 89.7502C92.817 89.5607 93.2908 89.3712 93.7646 89.229C94.0015 89.1343 94.2383 89.0869 94.4279 88.9921C94.6174 88.8974 94.807 88.8026 94.9965 88.7552C95.3755 88.5657 95.7071 88.471 95.944 88.3288C96.4652 88.0919 96.7967 87.9972 96.7967 87.9972C96.7967 87.9972 96.5599 88.2341 96.1335 88.6131C95.8966 88.8026 95.6597 89.0395 95.3281 89.3238C95.186 89.4659 94.9964 89.608 94.8069 89.7502C94.6174 89.8923 94.4279 89.9871 94.191 90.1292C93.7646 90.4135 93.2908 90.6977 92.7696 90.982C92.2485 91.2189 91.68 91.4558 91.0641 91.6927C90.7798 91.8348 90.4482 91.8822 90.1165 91.9769C89.7849 92.0717 89.4532 92.1664 89.1216 92.2138C88.4583 92.356 87.7476 92.4033 87.037 92.4507L85.9947 92.4033C85.663 92.4033 85.2839 92.4033 84.9523 92.3086C84.6206 92.2612 84.2891 92.2138 83.9574 92.1191C83.6258 92.0717 83.2941 91.9296 83.0099 91.8348C82.3939 91.6927 81.8254 91.361 81.2569 91.1241C80.7357 90.8399 80.2146 90.603 79.8356 90.2713C79.6461 90.1292 79.4091 89.9871 79.2196 89.8449C79.0301 89.7028 78.8879 89.5607 78.6984 89.4185C78.3668 89.1343 78.13 88.85 77.9405 88.6605C77.6088 88.3288 77.4667 88.0446 77.4667 88.0446Z" fill="#231F20"/>
<path d="M9.85834 58.1965C10.6638 58.4808 11.0902 59.1441 10.8059 59.9495C10.569 60.7075 9.66888 60.9918 8.95821 60.7549L1.33033 58.1491C0.288015 57.8175 -0.0909614 57.0121 0.193306 56.2066C0.335439 55.8276 0.572375 55.496 0.951398 55.2117L10.1901 48.6262L5.12056 46.8732C4.36251 46.5889 3.93611 45.973 4.173 45.1676C4.40989 44.4095 5.26271 44.0779 5.97338 44.3148L13.0801 46.7311C14.2171 47.1101 14.4541 48.0103 14.2172 48.6736C14.0751 49.1 13.7434 49.5263 13.3644 49.7632L4.22042 56.254L9.85834 58.1965Z" fill="#231F20"/>
<path d="M19.2868 55.4959L16.065 54.4062C15.3544 54.1693 14.9753 53.5534 15.2122 52.748C15.4965 51.99 16.2072 51.7057 16.8704 51.9426L23.2191 54.122C23.456 54.2167 24.0719 54.5484 23.835 55.3064C23.6928 55.6854 23.5507 55.8276 23.2665 56.0171L16.7757 60.6601L20.4712 61.9393C21.1819 62.1762 21.5609 62.8395 21.324 63.5975C21.0398 64.3556 20.3291 64.6398 19.6658 64.4029L13.175 62.1762C12.559 61.9867 12.1327 61.4655 12.3695 60.8496C12.4643 60.518 12.7486 60.2811 12.8908 60.1863L19.2868 55.4959Z" fill="#231F20"/>
<path d="M29.5676 59.0493L26.3459 57.9596C25.6353 57.7227 25.2562 57.0594 25.4931 56.3014C25.7774 55.5433 26.488 55.259 27.1513 55.4959L33.5 57.6753C33.7369 57.7701 34.3528 58.1017 34.116 58.8598C33.9738 59.2388 33.8316 59.3809 33.5473 59.5704L27.0566 64.2135L30.7521 65.4927C31.4627 65.7296 31.8418 66.3455 31.6049 67.1509C31.3206 67.9089 30.61 68.1932 29.9467 67.9563L23.4559 65.7296C22.84 65.54 22.4135 65.0189 22.6504 64.403C22.7452 64.0713 23.0295 63.8344 23.1716 63.7397L29.5676 59.0493Z" fill="#231F20"/>
<path d="M35.869 66.8666C36.7218 67.1509 37.1481 68.051 36.8639 68.9038C36.5796 69.7566 35.6795 70.183 34.8267 69.8988C33.9739 69.6145 33.5474 68.7143 33.8317 67.8615C34.116 67.0087 35.0636 66.5823 35.869 66.8666Z" fill="#231F20"/>
<path d="M42.028 68.9512C42.8808 69.2355 43.3072 70.1357 43.0229 70.9885C42.7386 71.8413 41.8386 72.2677 40.9858 71.9834C40.133 71.6991 39.7065 70.799 39.9908 69.9462C40.275 69.1407 41.2226 68.667 42.028 68.9512Z" fill="#231F20"/>
<path d="M48.1871 71.0832C49.0399 71.3675 49.4662 72.2676 49.182 73.1204C48.8977 73.9733 47.9976 74.3996 47.1448 74.1154C46.292 73.8311 45.8656 72.9309 46.1498 72.0781C46.4341 71.2253 47.3343 70.7989 48.1871 71.0832Z" fill="#231F20"/>
<path d="M121.127 133.799C121.473 132.241 118.297 130.209 114.031 129.26C109.766 128.311 106.027 128.804 105.681 130.362C105.334 131.92 108.511 133.953 112.776 134.902C117.041 135.851 120.78 135.357 121.127 133.799Z" fill="#231F20"/>
</svg>
