<svg width="87" height="87" viewBox="0 0 87 87" fill="none" xmlns="http://www.w3.org/2000/svg">
<rect x="49.6455" y="36.168" width="2.31239" height="19.2184" rx="1.1562" transform="rotate(45 49.6455 36.168)" fill="white"/>
<rect x="36.1592" y="37.5156" width="2.53288" height="19.2184" rx="1.26644" transform="rotate(-45 36.1592 37.5156)" fill="white"/>
<path d="M22.0952 33.6929L22.0961 33.6887C23.2889 28.3252 27.3148 24.0977 32.5943 22.6329C35.9868 21.7004 39.4194 21.1774 42.844 21.0903C46.2735 21.0029 49.7279 21.3369 53.144 22.0985C58.5066 23.2943 62.7357 27.3236 64.2033 32.6061C66.0686 39.3833 66.2515 46.3078 64.733 53.1375L64.7319 53.1426C63.5639 58.4838 59.5171 62.7278 54.2344 64.1933C50.8421 65.1258 47.4096 65.6487 43.9851 65.7359C40.5556 65.8232 37.1012 65.4892 33.6852 64.7276C28.3218 63.5316 24.0922 59.5014 22.6252 54.2178L22.6245 54.2154C20.7358 47.4574 20.5526 40.5361 22.0952 33.6929Z" stroke="white" stroke-width="3"/>
</svg>
