<?xml version="1.0" encoding="utf-8"?>
<!-- Generator: Adobe Illustrator 22.1.0, SVG Export Plug-In . SVG Version: 6.00 Build 0)  -->
<svg version="1.1" id="Layer_1" xmlns="http://www.w3.org/2000/svg" xmlns:xlink="http://www.w3.org/1999/xlink" x="0px" y="0px"
	 viewBox="0 0 1506.9 816.1" style="enable-background:new 0 0 1506.9 816.1;" xml:space="preserve">
<style type="text/css">
	.st0{fill:#231F20;}
	.st1{fill:none;stroke:#231F20;stroke-width:6;stroke-linecap:round;stroke-linejoin:round;stroke-miterlimit:10;}
	.st2{fill:none;stroke:#231F20;stroke-width:4;stroke-linecap:round;stroke-linejoin:round;stroke-miterlimit:10;}
	.st3{fill:none;}
</style>
<g>
	<g>
		<path class="st0" d="M492.5,221.8c0,0-12.6,5.2-34.7,14.3c-11,4.6-24.4,10.1-39.8,16.5c-15.4,6.3-32.8,13.4-51.7,21.2
			c-9.5,3.9-19.3,7.9-29.6,12.1c-10.2,4.2-20.8,8.4-31.7,12.8c-21.7,8.8-44.8,17.9-68.5,27.4c-11.9,4.7-24,9.5-36.2,14.5
			c-3.1,1.2-6.2,2.5-9.2,3.7l-1.2,0.4l-1.4,0.3c-0.5,0.1-0.9,0.1-1.4,0.2c-0.5,0-0.9,0-1.4,0c-1.8-0.1-3.6-0.6-5.2-1.4
			c-3.2-1.6-5.6-4.8-6.4-8.3c-0.8-3.2-1.6-6.5-2.4-9.8c-1.7-6.5-3.3-13-5-19.6c-0.9-3.3-1.7-6.5-2.6-9.8l-1.3-4.9l-0.6-2.5l-0.2-0.6
			c0-0.1,0-0.1-0.1-0.4l-0.1-0.3l-0.2-1.3c0-0.2-0.1-0.4-0.1-0.7l0-0.7c0-0.5-0.1-1,0.1-1.4l0.2-1.4c0.1-0.5,0.3-0.9,0.4-1.3
			c0.2-0.9,0.7-1.7,1.2-2.6c0.2-0.4,0.5-0.8,0.8-1.1c0.3-0.4,0.6-0.8,0.9-1.1l1-1c0.4-0.3,0.8-0.5,1.2-0.8c0.8-0.6,1.5-0.9,2.3-1.4
			l4.4-2.5c5.9-3.4,11.9-6.7,17.8-10.1c11.9-6.7,23.7-13.5,35.6-20.2c5.9-3.4,11.8-6.7,17.7-10c5.9-3.3,11.8-6.6,17.6-9.9
			c23.5-13,46.6-25.9,69-38.3c44.8-24.7,86.7-47.7,122.6-67.5c1.3-0.7,2.2-1.2,3.5-1.8c0.6-0.3,1.3-0.6,1.9-0.9
			c0.6-0.3,1.3-0.5,1.9-0.7c2.6-0.9,5.3-1.6,8.1-1.7c2.9-0.1,5.9,0.4,8.6,1.9c2.7,1.5,4.6,3.8,6,6.1c1.4,2.3,2.2,4.9,2.8,7.2
			c0.6,2.2,1.1,4.4,1.6,6.5c1.1,4.3,2.1,8.4,3.1,12.5c4.1,16.1,7.6,30.2,10.5,41.8c0.4,1.4,0.7,2.9,1.1,4.2l0.1,0.6l0.1,0.5
			c0.1,0.3,0.2,0.7,0.2,1c0.2,0.6,0.3,1.4,0.4,2.1c0.5,2.9,0.6,5.5,0.5,8.1c-0.2,5.1-1.7,9.5-3.7,12.6c-2.1,3.2-4.5,5-6.1,6
			c-0.8,0.5-1.5,0.8-2,1C492.7,221.7,492.5,221.8,492.5,221.8z M490.2,216.3c0,0,0.2-0.1,0.5-0.2c0.3-0.2,0.8-0.3,1.4-0.7
			c1.2-0.7,2.7-1.9,4.2-4.1c1.4-2.2,2.6-5.5,2.8-9.8c0.1-2.1,0-4.4-0.4-6.8c-0.1-0.6-0.2-1.1-0.3-1.8c-0.1-0.3-0.1-0.7-0.2-1
			l-0.1-0.5l-0.1-0.4c-0.3-1.4-0.7-2.8-1.1-4.2c-2.9-11.6-6.5-25.6-10.5-41.8c-1-4-2.1-8.2-3.1-12.5c-0.5-2.1-1.1-4.3-1.6-6.5
			c-0.6-2-1.1-4-2.2-5.6c-1-1.7-2.2-3-3.8-3.9c-1.5-0.9-3.4-1.2-5.4-1.2c-2,0.1-4.2,0.6-6.4,1.4c-0.5,0.2-1.1,0.4-1.6,0.6l-1.6,0.7
			c-1,0.5-2.3,1.2-3.3,1.7c-35.9,19.7-77.8,42.7-122.6,67.4c-22.5,12.3-45.7,24.9-69.3,37.8c-5.9,3.2-11.9,6.4-17.8,9.6
			c-6,3.2-12,6.4-18,9.6c-12,6.4-24.1,12.8-36.1,19.2c-6,3.2-12,6.4-18.1,9.6l-4.5,2.4c-0.7,0.4-1.6,0.8-2.1,1.2
			c-0.3,0.2-0.6,0.4-0.9,0.6l-0.8,0.8c-0.3,0.2-0.5,0.5-0.8,0.8c-0.2,0.3-0.5,0.6-0.7,0.9c-0.3,0.7-0.8,1.3-1,2.1
			c-0.1,0.4-0.3,0.7-0.4,1.1l-0.2,1.1c-0.1,0.4,0,0.7-0.1,1.1l0,0.5l0,0.3l0,0.3l0.2,1.3l0,0.3c0-0.1,0,0.2,0.1,0.2l0.1,0.6l0.6,2.5
			l1.2,4.9c0.8,3.3,1.6,6.6,2.4,9.9c1.7,6.6,3.3,13.1,4.9,19.6c0.8,3.3,1.7,6.5,2.5,9.7c0.7,3,2.8,5.6,5.5,7
			c1.4,0.7,2.9,1.1,4.4,1.1l1.1,0l1.1-0.1l1-0.2l1.2-0.4c3-1.3,6.1-2.6,9.1-3.8c12.1-5.1,24.1-10.3,35.9-15.3
			c23.5-10,46.2-19.9,67.9-29c10.8-4.6,21.3-9.1,31.5-13.3c10.2-4.2,20-8.4,29.5-12.3c18.9-7.9,36.2-15.1,51.6-21.5
			c15.4-6.4,28.8-11.9,39.8-16.5C477.6,221.5,490.2,216.3,490.2,216.3z"/>
	</g>
	<g>
		<line class="st1" x1="473.5" y1="112.4" x2="1430.4" y2="271"/>
	</g>
	<g>
		<path class="st0" d="M493.4,215.2l946.8,130.6c0.8,0.1,1.4,0.9,1.3,1.7c-0.1,0.8-0.9,1.4-1.7,1.3L492.6,221.2
			c-1.6-0.2-2.8-1.7-2.6-3.4C490.3,216.2,491.8,215,493.4,215.2L493.4,215.2z"/>
	</g>
	<g>
		<path class="st0" d="M1154.1,423.1c6.6,0.5,13.1,1.1,19.7,1.6l19.6,1.8c6.5,0.6,13.1,1.3,19.6,1.9l19.6,2.1l-2.2,0.7l0.7-0.6
			l0.1-0.1c0.2-0.2,0.5-0.3,0.7-0.4l9.1-3.6l9.1-3.5l18.3-6.8c6.1-2.3,12.2-4.5,18.2-6.9c6.1-2.3,12.1-4.8,18.1-7.3l9-3.8l8.9-3.9
			l8.9-4l8.8-4.1c5.9-2.7,11.8-5.4,17.7-8.1c5.9-2.7,11.9-5.2,17.9-7.7l9-3.7l9-3.6l18.2-7l18.2-7c3-1.2,6-2.4,9-3.6l2.3-0.9
			l1.1-0.5l0.3-0.1l0.1-0.1c0.1-0.1-0.1,0,0,0l0.1,0l0.5-0.3c0.4-0.2,0.8-0.4,1-0.5c0.3-0.2,0.5-0.3,0.8-0.5
			c0.3-0.2,0.5-0.4,0.8-0.7l0.7-0.8c1.7-2.2,2.5-5.1,2.6-8.1c0-1.5-0.1-3-0.3-4.5l-0.2-1.1l-0.3-1.1c-0.2-0.7-0.4-1.6-0.6-2.3
			c-1.7-6.3-3.3-12.5-5-18.8c-1.7-6.3-3.4-12.5-5.2-18.8l-1.3-4.7l-0.3-1.2l-0.1-0.3l0-0.1c0.1,0.2,0,0,0,0.1l0-0.1l-0.2-0.6
			l-0.4-1.2l-0.4-0.8c-0.1-0.3-0.3-0.5-0.4-0.8l-0.5-0.8c-0.4-0.4-0.7-0.9-1.2-1.1c-0.8-0.6-1.8-0.9-2.8-1c-1.8-0.1-3.2-1.7-3-3.5
			c0.1-1.8,1.7-3.2,3.5-3c0.1,0,0.2,0,0.3,0l0,0c2.1,0.3,4.3,1.3,6,2.8c0.9,0.7,1.5,1.6,2.1,2.4c0.3,0.4,0.5,0.9,0.8,1.3
			c0.3,0.4,0.5,0.9,0.7,1.4l0.6,1.4l0.3,1.2l0.2,0.6l0,0.1l0.1,0.2l0,0.1l0.1,0.3l0.3,1.2l1,4.8c1.4,6.3,2.8,12.7,4.3,19
			c1.4,6.3,3,12.6,4.5,18.9l0.6,2.4l0.3,1.3l0.2,1.3c0.2,1.7,0.3,3.4,0.3,5.2c-0.2,3.5-1.1,7.1-3.4,10.1l-0.9,1
			c-0.3,0.3-0.7,0.6-1.1,0.9c-0.7,0.6-1.7,1.2-2.4,1.5l-0.5,0.3l-0.2,0.1l-0.1,0.1l-0.3,0.1l-1.1,0.5l-2.2,0.9c-3,1.2-6,2.6-8.9,3.8
			l-17.8,7.9l-17.8,7.9l-8.9,3.8l-9,3.7c-6,2.4-12,4.8-18.1,7.1c-6.1,2.3-12.2,4.5-18.3,6.8l-9.1,3.4l-9.1,3.4l-9.1,3.5l-9,3.7
			c-6,2.5-12,5-17.9,7.6c-5.9,2.6-11.9,5.3-17.8,8l-17.7,8.1l-8.9,4l-8.9,3.9l0.8-0.5l-0.7,0.6c-0.6,0.5-1.4,0.8-2.1,0.7l-0.1,0
			l-19.7-1.7c-6.5-0.6-13.1-1.1-19.6-1.8l-19.6-1.9c-6.5-0.7-13.1-1.3-19.6-2.1c-1.6-0.2-2.8-1.7-2.6-3.3
			C1151.1,424.1,1152.5,423,1154.1,423.1z"/>
	</g>
	<g>
		<path class="st0" d="M1009.7,411.7l79.8,7.8c0.6,0.1,1.1,0.6,1,1.2c-0.1,0.6-0.6,1-1.2,1l-80-6c-1.1-0.1-1.9-1-1.8-2.1
			C1007.6,412.5,1008.5,411.6,1009.7,411.7C1009.6,411.7,1009.6,411.7,1009.7,411.7z"/>
	</g>
	<line class="st2" x1="677.2" y1="385.3" x2="952.9" y2="408.9"/>
	<line class="st2" x1="565.6" y1="375.6" x2="610.6" y2="379.4"/>
	<g>
		<path class="st0" d="M188.6,344.1c0,0,1.2,0,3.6,0.1c2.3,0.1,5.8,0.2,10.1,0.4c4.4,0.2,9.7,0.5,15.7,0.8
			c6.1,0.3,12.9,0.7,20.4,1.1c7.5,0.4,15.6,0.9,24.1,1.5c8.6,0.6,17.6,1.1,26.9,1.8c9.3,0.7,19,1.3,28.8,2.1
			c9.8,0.8,19.8,1.6,29.7,2.4c9.9,0.9,19.9,1.7,29.7,2.6c9.8,0.8,19.4,1.8,28.7,2.6c9.3,0.8,18.3,1.8,26.9,2.6
			c8.5,0.8,16.6,1.7,24.1,2.5c7.4,0.8,14.3,1.6,20.3,2.3c6,0.7,11.3,1.3,15.7,1.9c4.3,0.5,7.7,1,10.1,1.3c2.3,0.3,3.6,0.5,3.6,0.5
			s-1.2,0-3.6-0.1c-2.3-0.1-5.8-0.2-10.1-0.4c-4.4-0.2-9.7-0.5-15.7-0.8c-6.1-0.3-12.9-0.7-20.4-1.1c-7.5-0.4-15.6-0.9-24.1-1.5
			c-8.6-0.6-17.6-1.1-26.9-1.8c-9.3-0.7-19-1.3-28.8-2.1c-9.8-0.8-19.8-1.6-29.7-2.4c-9.9-0.9-19.9-1.7-29.7-2.6
			c-9.8-0.8-19.4-1.8-28.7-2.6c-9.3-0.8-18.3-1.8-26.9-2.6c-8.5-0.8-16.6-1.7-24.1-2.5c-7.4-0.8-14.3-1.6-20.3-2.3
			c-6-0.7-11.3-1.3-15.7-1.9c-4.3-0.5-7.7-1-10.1-1.3C189.8,344.3,188.6,344.1,188.6,344.1z"/>
	</g>
	<g>
		<path class="st0" d="M717.4,160.5l-1.1-0.3c-0.4-0.1-0.7-0.2-1.1-0.2c-0.4,0-0.7-0.1-1.1-0.1c-0.4,0-0.7,0-1.1,0.1l-1,0.2l-1,0.4
			l-0.9,0.5l-0.8,0.7c-0.2,0.3-0.5,0.5-0.7,0.8c-0.2,0.3-0.4,0.6-0.5,0.9c-0.1,0.3-0.3,0.6-0.4,0.9c-0.1,0.3-0.2,0.6-0.3,1
			c-0.1,0.3-0.2,0.7-0.2,1c0,0.3-0.1,0.7-0.1,1c0,0.3,0,0.7,0.1,1c0,0.3,0.2,0.6,0.2,0.9l0,0.1c1.4,5.4,2.9,10.8,4.2,16.2
			c1.4,5.4,2.8,10.8,4.1,16.2c1.3,5.4,2.7,10.8,4,16.3l1,4.1l0.2,1l0.1,0.5c0-0.1,0,0,0,0l0,0.1l0.1,0.3c0.1,0.3,0.2,0.7,0.3,1
			l0.3,0.8c0.9,2.2,2.3,4.3,4.1,5.9c1.8,1.7,3.9,2.9,6.2,3.6c0.6,0.2,1.2,0.3,1.7,0.5c0.6,0.1,1.1,0.2,1.9,0.3l4.2,0.5l8.3,1
			l8.3,1.1l8.3,1.1l8.3,1.2c5.5,0.8,11,1.7,16.6,2.5l33.1,5.2c11,1.8,22.1,3.3,33.2,4.8l16.6,2.2l16.6,2l33.3,3.7l16.7,1.8l16.6,1.9
			l33.3,4l33.3,4.1l16.6,2.2c5.5,0.7,11.1,1.4,16.6,2.2c11.1,1.6,22.1,3,33.2,4.7l16.6,2.4l8.3,1.2l4,0.6l2.1,0.2l0.5,0.1l0.5,0
			l0.9,0c2.5,0,5.1-0.3,7.6-1.1c2.5-0.7,4.9-1.7,7.1-3.2c2.2-1.4,4.2-3.1,5.9-5.1c1.7-2,3.2-4.2,4.3-6.6c1.1-2.4,1.8-5,2.5-7.7
			l2.1-8.1c1.4-5.4,2.8-10.8,4.3-16.2c0-0.2,0.2-0.3,0.4-0.2c0.2,0,0.2,0.2,0.2,0.3c-1,5.5-2,11-3,16.5l-1.5,8.2
			c-0.5,2.7-1.1,5.6-2.1,8.4c-1.1,2.7-2.6,5.3-4.4,7.6c-1.8,2.3-4,4.4-6.5,6.1c-2.4,1.8-5.1,3.1-8,4c-0.7,0.2-1.4,0.5-2.2,0.7
			l-2.2,0.5c-0.7,0.1-1.5,0.2-2.2,0.3c-0.7,0.1-1.5,0.1-2.3,0.2l-1.2,0l-0.6,0l-0.5,0l-2.1-0.1l-4.3-0.5l-8.3-0.9l-16.6-2
			c-11.1-1.3-22.2-2.7-33.3-4.1c-5.5-0.7-11.1-1.4-16.6-2.2l-16.6-2.2l-33.2-4.7l-33.2-4.7l-16.6-2.5l-16.6-2.6l-33.1-5.1l-16.6-2.4
			l-16.6-2.2c-11.1-1.4-22.2-2.8-33.3-3.9l-33.3-3.6c-5.6-0.6-11.1-1.2-16.7-1.8l-8.3-1l-8.3-1.1l-8.3-1.1l-8.3-1.1l-4.1-0.6
			c-0.7-0.1-1.5-0.2-2.3-0.4c-0.8-0.2-1.6-0.4-2.3-0.6c-3-1-5.8-2.7-8.1-4.9c-2.3-2.2-4-4.9-5.1-7.9l-0.4-1.2
			c-0.1-0.4-0.2-0.7-0.3-1l-0.1-0.6l-0.1-0.5l-0.2-1l-0.9-4.1c-1.2-5.5-2.3-10.9-3.4-16.4c-1.1-5.5-2.2-10.9-3.3-16.4
			c-1.1-5.5-2.1-11-3.2-16.5l0,0.1c-0.1-0.4-0.2-0.9-0.2-1.3c0-0.4-0.1-0.9,0-1.3c0-0.4,0.1-0.8,0.2-1.3c0.1-0.4,0.2-0.8,0.3-1.2
			c0.1-0.4,0.3-0.8,0.5-1.2c0.2-0.4,0.4-0.7,0.6-1.1c0.2-0.4,0.5-0.7,0.7-1c0.3-0.3,0.6-0.6,0.9-0.9c0.3-0.3,0.7-0.5,1-0.7
			c0.4-0.2,0.7-0.4,1.1-0.6l1.2-0.4l1.2-0.1c0.4,0,0.8,0,1.2,0c0.4,0,0.8,0.1,1.2,0.2c0.4,0.1,0.8,0.2,1.1,0.3l1.1,0.4
			c0.2,0.1,0.2,0.2,0.2,0.4C717.7,160.4,717.5,160.5,717.4,160.5z"/>
	</g>
	<g>
		<g>
			<path class="st0" d="M1003.2,259.4c-1.1,0.1-2.2,0.1-3.2,0.1c-1.1,0-2.1,0-3.2,0c-1.1,0-2.1-0.1-3.2-0.1l-1.6-0.1l-0.8-0.1
				l-0.2,0l-0.1,0l0,0l-0.1,0l-0.4,0l-1.6-0.2c-0.5-0.1-1.2-0.2-1.7-0.4c-0.6-0.1-1.2-0.3-1.7-0.5c-0.6-0.2-1.1-0.4-1.7-0.6
				c-1.1-0.5-2.2-1-3.1-1.7c-0.5-0.3-1-0.6-1.5-1l-1.4-1.2c-0.5-0.4-0.8-0.8-1.3-1.3c-0.4-0.4-0.8-0.9-1.2-1.4c-0.4-0.5-0.7-1-1-1.4
				c-0.3-0.5-0.6-0.9-0.9-1.3c-1.1-1.8-2.2-3.7-3.2-5.5c-2-3.8-3.9-7.6-6.2-11.2l0-0.1c-0.3-0.4-0.1-1,0.3-1.3c2-1.3,4-2.8,5.9-4.2
				c1-0.7,1.9-1.5,2.9-2.3c0.9-0.8,1.9-1.6,2.8-2.4l5.5-4.8c1.8-1.6,3.7-3.2,5.6-4.7c0.5-0.4,1.1-0.6,1.7-0.5l0.2,0l10.2,1.2
				c3.4,0.4,6.8,0.8,10.1,1.4l0,0c1.7,0.3,2.9,1.9,2.6,3.7c-0.2,0.9-0.7,1.7-1.4,2.1c-1.9,1.3-3.9,2.6-5.9,3.8c-2,1.2-4,2.4-6,3.6
				l-3,1.8c-1,0.6-2,1.2-3.1,1.7c-2.1,1.1-4.1,2.2-6.2,3.3l0.4-2c0.6,1.1,1.1,2.3,1.7,3.4c0.5,1.2,1.1,2.3,1.6,3.5
				c0.1,0.2,0,0.3-0.2,0.4c-0.1,0.1-0.3,0-0.3-0.1c-0.9-0.9-1.8-1.9-2.6-2.8c-0.9-1-1.7-1.9-2.5-2.9c-0.4-0.5-0.4-1.3,0.1-1.8
				l0.3-0.2c1.8-1.5,3.6-3.1,5.4-4.5c0.9-0.8,1.8-1.5,2.7-2.2l2.8-2.2c1.9-1.4,3.7-2.8,5.6-4.2c1.9-1.4,3.8-2.7,5.7-4.1l1.3,5.8
				c-3.4-0.5-6.7-1.1-10.1-1.8l-10-2l1.9-0.5c-2,1.3-4.1,2.6-6.2,3.8l-6.3,3.7c-1,0.6-2.1,1.3-3.1,1.9c-1,0.6-2,1.3-3.1,2
				c-2,1.4-4,2.8-5.9,4.3l0.2-1.3c2.5,3.4,5.4,6.6,8.1,9.9c1.4,1.6,2.7,3.3,4,5c0.3,0.4,0.6,0.9,0.9,1.3c0.3,0.4,0.6,0.7,0.9,1.1
				c0.3,0.4,0.6,0.7,0.9,1.1c0.3,0.3,0.6,0.7,0.9,1c0.7,0.6,1.3,1.3,2.1,1.8c0.7,0.6,1.5,1,2.3,1.6c0.8,0.4,1.7,0.9,2.5,1.2
				c0.4,0.2,0.8,0.4,1.3,0.5l1.5,0.4l0.4,0.1l0.1,0l0,0l0,0c0,0,0.1,0-0.1,0l0,0l0.2,0l0.8,0.2l1.5,0.4c1,0.3,2.1,0.6,3.1,0.9
				c1,0.3,2.1,0.6,3.1,0.9c1,0.3,2,0.7,3.1,1.1c0.2,0.1,0.2,0.2,0.2,0.4C1003.4,259.3,1003.3,259.4,1003.2,259.4z"/>
			<path class="st0" d="M960.1,252.6c-0.8,0.1-1.6,0.1-2.5,0.1c-0.8,0-1.6,0-2.4,0c-1.6,0-3.2,0-4.9-0.1c-3.2-0.2-6.4-0.4-9.6-0.8
				c-1.3-0.2-2.3-1.4-2.1-2.7l0,0l0-0.2c0.2-1.8,0.4-3.5,0.7-5.3c0.3-1.8,0.6-3.5,1-5.2c0.8-3.5,1.8-6.9,2.8-10.3
				c0.5-1.7,0.9-3.4,1.3-5.2c0.4-1.7,0.6-3.5,0.9-5.2c0.2-1.8,0.4-3.5,0.6-5.3c0.1-1.8,0.3-3.5,0.3-5.3c0-0.8,0.7-1.4,1.5-1.4l0,0
				l0.3,0l4.8,0.3c0.8,0,1.6,0.1,2.4,0.2c0.8,0.1,1.6,0.1,2.4,0.2c3.2,0.3,6.4,0.7,9.6,1.1c1.6,0.2,2.7,1.6,2.5,3.2l0,0l0,0.3
				c-0.4,3.5-0.8,7-1.4,10.5c-0.3,1.7-0.6,3.5-1,5.2c-0.3,1.7-0.7,3.5-1.1,5.2c-0.4,1.7-0.8,3.5-1.2,5.2c-0.4,1.7-0.9,3.4-1.3,5.2
				c-0.2,0.9-0.5,1.7-0.7,2.6c-0.2,0.9-0.5,1.7-0.8,2.6c-0.5,1.7-1.1,3.4-1.7,5.1C960.3,252.5,960.2,252.6,960.1,252.6L960.1,252.6z
				 M959.8,251.9c-0.1-1.7-0.1-3.3-0.1-5c0-0.9,0-1.8,0.1-2.7c0-0.9,0-1.8,0.1-2.7c0.1-1.8,0.2-3.6,0.3-5.3c0.1-1.8,0.3-3.5,0.4-5.3
				c0.2-1.8,0.3-3.5,0.6-5.3c0.2-1.8,0.4-3.5,0.7-5.3c0.5-3.5,1.2-7,1.9-10.5l2.5,3.4c-3.2-0.6-6.3-1.3-9.5-1.9
				c-0.8-0.2-1.6-0.4-2.4-0.6c-0.8-0.2-1.6-0.4-2.4-0.6l-4.7-1.3l1.9-1.4c-0.5,1.7-0.9,3.4-1.3,5.2c-0.4,1.7-0.8,3.5-1.1,5.2
				c-0.3,1.7-0.6,3.5-0.8,5.3c-0.2,1.8-0.3,3.5-0.4,5.3c-0.2,3.6-0.2,7.1-0.5,10.7c-0.2,1.8-0.4,3.5-0.7,5.3c-0.3,1.7-0.6,3.5-1,5.2
				l-2.1-2.9c3.2,0.6,6.3,1.4,9.4,2.2c1.6,0.4,3.1,0.9,4.7,1.4c0.8,0.2,1.6,0.5,2.3,0.8C958.5,251.4,959.1,251.6,959.8,251.9z"/>
			<path class="st0" d="M941.9,206.7c-0.8,0.8-1.7,1.6-2.6,2.4c-0.9,0.8-1.8,1.6-2.7,2.3c-0.9,0.8-1.8,1.5-2.7,2.3
				c-0.9,0.7-1.8,1.5-2.7,2.2c-1.8,1.4-3.7,2.9-5.6,4.3c-1.9,1.4-3.8,2.8-5.7,4.1l0.7-3.7c1.6,2.2,3.2,4.4,4.7,6.6
				c0.8,1.1,1.5,2.3,2.2,3.4c0.7,1.1,1.4,2.3,2.1,3.5c0.7,1.2,1.4,2.4,2,3.5l2,3.5c1.4,2.3,2.8,4.7,4.3,6.9l0,0.1
				c0.3,0.4,0.2,1-0.3,1.3c-0.2,0.1-0.5,0.2-0.7,0.1c-2.1-0.4-4.3-0.8-6.4-1.1c-1.1-0.1-2.1-0.3-3.2-0.4l-3.2-0.4l-1.7-0.2l-0.8-0.1
				l-0.8-0.2c-0.6-0.1-1.1-0.3-1.7-0.4l-1.6-0.6c-0.6-0.2-1.1-0.4-1.6-0.7c-0.5-0.3-1.1-0.5-1.6-0.8l-1.5-0.9
				c-0.5-0.3-0.9-0.7-1.4-1.1c-0.5-0.3-0.9-0.7-1.4-1.2c-0.4-0.4-0.9-0.8-1.3-1.3c-0.8-0.9-1.6-1.8-2.2-2.7
				c-1.3-1.7-2.6-3.5-3.8-5.2c-2.6-3.5-5.1-7-7.6-10.5c-1-1.4-0.7-3.2,0.6-4.2l0.1-0.1c1.9-1.5,3.9-2.9,5.9-4.3c1-0.7,2-1.4,3-2.1
				c1-0.7,2-1.4,3-2.1c2-1.4,4.1-2.7,6.1-4c2-1.3,4.1-2.6,6.2-3.9l0.2-0.2c0.5-0.3,1-0.4,1.5-0.3c1.7,0.4,3.3,0.8,5,1.2
				c1.7,0.4,3.3,0.8,5,1.2c3.3,0.9,6.6,1.8,9.9,2.8c0.2,0.1,0.3,0.2,0.2,0.4C942,206.6,941.9,206.7,941.9,206.7L941.9,206.7z
				 M940.5,206.7c-3.1,0-6.1-0.1-9.1-0.3c-1.7-0.1-3.4-0.2-5.1-0.3c-1.7-0.1-3.4-0.3-5.1-0.4l1.8-0.4c-1.9,1.5-3.8,3.1-5.7,4.6
				c-1.9,1.5-3.8,3-5.7,4.5c-1,0.7-1.9,1.5-2.9,2.2c-1,0.7-1.9,1.5-2.9,2.2c-2,1.4-3.9,2.8-5.9,4.2l0.8-4.3c2.3,3.6,4.7,7.3,7,10.9
				c1.2,1.8,2.3,3.7,3.4,5.5c0.6,1,1.1,1.7,1.6,2.6c0.3,0.4,0.6,0.8,0.9,1.2c0.3,0.4,0.6,0.8,0.9,1.1c0.3,0.3,0.7,0.7,1,1.1l1.1,0.9
				c0.4,0.3,0.8,0.6,1.2,0.9c0.4,0.3,0.8,0.6,1.3,0.8l1.3,0.7c0.5,0.2,0.9,0.4,1.4,0.6l0.7,0.3l0.8,0.2l1.5,0.4l3.2,0.6
				c1.1,0.2,2.1,0.4,3.2,0.6c2.1,0.4,4.3,0.7,6.4,1l-0.9,1.5c-1.6-2.2-3.4-4.3-5.1-6.3l-2.6-3.1c-0.9-1-1.8-2.1-2.6-3.1
				c-0.9-1.1-1.7-2.1-2.6-3.2c-0.8-1.1-1.7-2.1-2.5-3.2c-1.6-2.2-3.1-4.4-4.6-6.7l-0.1-0.1c-0.8-1.2-0.5-2.8,0.7-3.6c0,0,0,0,0.1,0
				c2-1.3,3.9-2.5,5.9-3.7c2-1.2,4-2.4,6.1-3.6c1-0.6,2-1.1,3.1-1.7c1-0.6,2.1-1.1,3.1-1.7c1-0.5,2.1-1.1,3.1-1.6
				C939,207.4,939.8,207,940.5,206.7z"/>
			<path class="st0" d="M893.1,242.1c-0.8,0.1-1.6,0.1-2.5,0.1c-0.8,0-1.6,0-2.4,0c-1.6,0-3.2,0-4.9-0.1c-3.2-0.2-6.4-0.4-9.6-0.8
				c-1.3-0.2-2.3-1.4-2.1-2.7l0,0l0-0.2c0.2-1.8,0.4-3.5,0.7-5.3c0.3-1.8,0.6-3.5,1-5.2c0.8-3.5,1.8-6.9,2.8-10.3
				c0.5-1.7,0.9-3.4,1.3-5.2c0.4-1.7,0.6-3.5,0.9-5.2c0.2-1.8,0.4-3.5,0.6-5.3c0.1-1.8,0.3-3.5,0.3-5.3c0-0.8,0.7-1.4,1.5-1.4h0
				l0.3,0l4.8,0.3c0.8,0,1.6,0.1,2.4,0.2c0.8,0.1,1.6,0.1,2.4,0.2c3.2,0.3,6.4,0.7,9.6,1.1c1.6,0.2,2.7,1.6,2.5,3.2l0,0l0,0.3
				c-0.4,3.5-0.8,7-1.4,10.5c-0.3,1.7-0.6,3.5-1,5.2c-0.3,1.7-0.7,3.5-1.1,5.2c-0.4,1.7-0.8,3.5-1.2,5.2c-0.4,1.7-0.9,3.4-1.3,5.2
				c-0.2,0.9-0.5,1.7-0.7,2.6c-0.2,0.9-0.5,1.7-0.8,2.6c-0.5,1.7-1.1,3.4-1.7,5.1C893.4,242,893.3,242.1,893.1,242.1L893.1,242.1z
				 M892.9,241.4c-0.1-1.7-0.1-3.3-0.1-5c0-0.9,0-1.8,0.1-2.7c0-0.9,0-1.8,0.1-2.7c0.1-1.8,0.2-3.6,0.3-5.3c0.1-1.8,0.3-3.5,0.4-5.3
				c0.2-1.8,0.3-3.5,0.6-5.3c0.2-1.8,0.4-3.5,0.7-5.3c0.5-3.5,1.2-7,1.9-10.5l2.5,3.4c-3.2-0.6-6.3-1.3-9.5-1.9
				c-0.8-0.2-1.6-0.4-2.4-0.6c-0.8-0.2-1.6-0.4-2.4-0.6l-4.7-1.3l1.9-1.4c-0.5,1.7-0.9,3.4-1.3,5.2c-0.4,1.7-0.8,3.5-1.1,5.2
				c-0.3,1.7-0.6,3.5-0.8,5.3c-0.2,1.8-0.3,3.5-0.4,5.3c-0.2,3.6-0.2,7.1-0.5,10.7c-0.2,1.8-0.4,3.5-0.7,5.3c-0.3,1.7-0.6,3.5-1,5.2
				l-2.1-2.9c3.2,0.6,6.3,1.4,9.4,2.2c1.6,0.4,3.1,0.9,4.7,1.4c0.8,0.2,1.6,0.5,2.3,0.8C891.6,240.9,892.2,241.1,892.9,241.4z"/>
			<path class="st0" d="M831,218.3c0.6,1.1,1.4,1.9,2.4,2.5c1,0.6,2.1,0.9,3.3,1c0.6,0.1,1.1,0,1.7,0l0.8-0.1l0.4,0l0,0
				c-0.2,0,0,0-0.1,0l0,0l0.1,0l0.1,0l0.2,0l0.9-0.1l0.7-0.1c0.2,0,0.5-0.1,0.7-0.1c0.2-0.1,0.5,0,0.7-0.1c0.9-0.1,1.8-0.4,2.6-0.7
				c0.2-0.1,0.4-0.1,0.6-0.3l0.3-0.1l0.2-0.1l0.1,0l0,0c0,0-0.2,0.1-0.1,0.1l0,0l0,0l0.8-0.5c0.3-0.2,0.4-0.2,0.6-0.4
				c0.8-0.5,1.7-1.3,2.3-2.2c0.6-0.9,1.1-2,1.3-3.1c0.1-0.5,0.2-1.2,0.2-1.7c0-0.3,0-0.6,0-0.8l-0.1-0.8c-0.2-1.1-0.6-2.2-1.2-3
				c-0.2-0.2-0.3-0.4-0.5-0.6l-0.3-0.3l-0.1-0.1l0,0c0,0-0.1-0.1,0.1,0.1l0,0l0,0l-0.1-0.1l-0.7-0.7c-0.2-0.2-0.4-0.3-0.6-0.4
				c-0.8-0.5-1.6-1-2.5-1.2c-0.9-0.3-1.9-0.6-2.9-0.7l-0.4,0l-0.2,0l-0.1,0l0,0c-0.1,0,0.1,0,0.1,0l0,0l-0.1,0l-0.9,0l-0.5,0l-0.3,0
				c-0.2,0-0.4,0-0.6,0c-0.9,0.1-1.8,0.3-2.5,0.6c-0.7,0.3-1.4,0.7-2.1,1.2l0.6-0.7c-0.1,0.2-0.3,0.5-0.5,0.7
				c-0.2,0.3-0.3,0.5-0.5,0.8c-0.3,0.5-0.7,1.1-1,1.6c-0.4,0.5-0.7,1.1-1.1,1.6c-0.3,0.6-0.7,1.1-1,1.7c-0.2,0.3-0.3,0.6-0.5,0.9
				c-0.1,0.3-0.3,0.6-0.4,0.9c-0.1,0.3-0.2,0.6-0.3,0.9c-0.1,0.3-0.1,0.6-0.2,1c-0.1,0.3-0.1,0.7-0.1,1c0,0.3,0,0.7,0,1
				c0.1,0.3,0.1,0.7,0.2,1L831,218.3z M830.5,218.6l-0.5-1c-0.2-0.3-0.2-0.7-0.4-1c-0.1-0.3-0.2-0.7-0.3-1.1
				c-0.1-0.4-0.2-0.7-0.2-1.1c-0.1-0.4-0.1-0.7-0.2-1.1l-0.1-1.1c0-0.4-0.1-0.8-0.1-1.1c0-0.4,0-0.8,0-1.1c0-0.8,0-1.5,0.1-2.3
				c0.1-0.8,0.2-1.5,0.4-2.2c0.2-0.7,0.4-1.5,0.6-2.2c0.1-0.4,0.3-0.7,0.4-1c0.2-0.4,0.3-0.7,0.5-1.1c0.1-0.2,0.2-0.4,0.4-0.5
				l0.2-0.2c1.1-1.1,2.5-2.1,4.1-2.7c1.5-0.6,3.1-0.8,4.6-0.8c0.4,0,0.8,0.1,1.2,0.1l0.6,0.1l0.5,0.1l0.9,0.2l0.1,0l0.2,0l0,0l0.1,0
				l0.3,0.1l0.5,0.1c1.4,0.4,2.8,0.9,4,1.7c0.3,0.2,0.6,0.4,0.9,0.6l0.9,0.7c0.3,0.2,0.5,0.5,0.8,0.8c0.3,0.3,0.5,0.6,0.7,0.9
				c0.2,0.3,0.5,0.7,0.6,1l0.4,0.8l0,0.1l0,0.1l0,0c0.1,0.2,0,0.1,0.1,0.1l0,0l0.1,0.3l0.2,0.5c0.1,0.3,0.2,0.7,0.3,1
				c0.4,1.4,0.5,2.7,0.5,4c0,0.7,0,1.3-0.1,2c0,0.3-0.1,0.6-0.1,0.9l-0.1,0.5l0,0.1l0,0.2l0,0.2c-0.2,1.3-0.4,2.5-0.8,3.9
				c-0.4,1.3-0.9,2.6-1.7,3.9c-0.2,0.3-0.5,0.7-0.7,0.9l-0.6,0.7l0,0l0,0c0.1-0.1-0.1,0.1-0.1,0.1l0,0l-0.1,0.1l-0.2,0.2l-0.4,0.4
				c-0.3,0.3-0.6,0.5-0.9,0.7c-1.3,0.8-2.8,1.4-4.3,1.5c-0.8,0.1-1.5,0.1-2.2,0l-1.1-0.2l-0.9-0.3c-0.7-0.2-1.3-0.5-2-0.8
				c-0.6-0.3-1.2-0.7-1.8-1.1c-1.2-0.8-2.1-1.7-3-2.7C831.8,220.7,831.1,219.6,830.5,218.6L830.5,218.6z"/>
			<path class="st0" d="M844.7,189.8c0,0,0.7,0.1,1.9,0.3c1.2,0.2,3,0.6,5.4,1.1c2.3,0.6,5.1,1.2,8.3,2.6c0.8,0.3,1.6,0.7,2.4,1.1
				c0.8,0.4,1.6,0.9,2.5,1.4c0.4,0.3,0.8,0.5,1.2,0.8c0.4,0.3,0.8,0.6,1.2,1l0.6,0.5l0.3,0.3l0.3,0.3c0.3,0.4,0.7,0.7,1,1.1
				c0.3,0.3,0.7,0.8,1.1,1.3c0.3,0.5,0.8,1,1.1,1.5c0.3,0.5,0.6,1,0.9,1.6c0.3,0.5,0.5,1.1,0.7,1.7c0.9,2.3,1.4,4.9,1.3,7.5
				c0,0.7-0.1,1.3-0.2,2l-0.1,1l0,0.2c0,0-0.1,0.3,0,0.2l0,0.1l0,0.1l-0.1,0.4c-0.2,0.6-0.3,1.1-0.5,1.7c-0.2,0.6-0.5,1.3-0.8,1.9
				c-0.1,0.3-0.3,0.7-0.4,1l-0.5,0.9c-0.4,0.6-0.6,1.2-1.1,1.7c-0.4,0.5-0.8,1.1-1.3,1.6c-0.5,0.5-1,1-1.5,1.4
				c-2,1.8-4.4,3.3-6.8,4.3l-0.5,0.2l-0.5,0.2l-0.9,0.3c-0.6,0.2-1.2,0.5-1.9,0.7c-0.7,0.2-1.3,0.4-2,0.6c-0.7,0.1-1.3,0.3-2,0.5
				c-2.7,0.5-5.4,0.9-8.1,0.9c-2.8,0.2-5.4,0-8.3-0.2c-1.3-0.2-2.6-0.2-4-0.5c-1.4-0.2-2.8-0.4-4.1-0.8c-2.7-0.6-5.4-1.6-8-2.9
				l-1.9-1c-0.6-0.3-1.2-0.8-1.8-1.2l-0.9-0.6c-0.3-0.2-0.6-0.5-0.8-0.7l-0.8-0.7l-0.4-0.3l-0.1-0.1l-0.1,0
				c-0.1-0.1,0.1,0.1-0.2-0.2l-0.2-0.2l-1.4-1.4c-0.2-0.2-0.5-0.5-0.7-0.8l-0.7-0.9c-0.2-0.3-0.5-0.6-0.7-0.9l-0.6-0.9
				c-0.4-0.6-0.8-1.2-1-1.9c-1.3-2.6-1.8-5.6-2-8.3c0-0.7,0-1.4,0-2.1c0.1-0.7,0.1-1.3,0.2-2l0.1-0.5l0-0.2l0-0.1l0-0.2l0-0.1
				l0.2-0.9l0.2-0.8c0.1-0.3,0.1-0.6,0.3-0.9c0.2-0.7,0.5-1.3,0.7-2c0.2-0.7,0.6-1.2,0.9-1.8l0.5-0.9l0.6-0.8
				c0.4-0.5,0.7-1.1,1.1-1.5c0.9-0.9,1.7-1.9,2.7-2.6c0.9-0.8,1.9-1.4,2.9-1.9c1-0.6,2-1,2.9-1.4l0.3-0.1l0.2-0.1l0.3-0.1l0.7-0.2
				c0.5-0.1,0.9-0.3,1.3-0.4c1-0.2,1.9-0.4,2.9-0.6c0.9-0.1,1.8-0.2,2.6-0.3c3.4-0.2,6.3-0.1,8.7,0.1c2.4,0.2,4.2,0.4,5.4,0.6
				C844,189.7,844.7,189.8,844.7,189.8C844.7,189.8,844.7,189.8,844.7,189.8L844.7,189.8z M844.6,190.4c0,0-0.7-0.1-1.9-0.2
				c-1.2-0.2-3.1-0.3-5.4-0.2c-0.6,0-1.2,0.1-1.8,0.1c-0.6,0-1.3,0.2-2,0.3c-1.4,0.2-2.8,0.6-4.3,1c-0.7,0.3-1.5,0.5-2.3,0.8
				c-0.7,0.3-1.5,0.7-2.2,1c-0.4,0.2-0.8,0.5-1.2,0.7l-0.6,0.3l-0.3,0.2l-0.2,0.1c0.2-0.1,0,0,0.1,0l0,0l-0.1,0
				c-0.4,0.3-0.7,0.5-1.1,0.8c-0.4,0.2-0.7,0.5-1.1,0.8c-0.3,0.3-0.7,0.6-1,0.9c-0.4,0.3-0.6,0.7-0.9,1c-0.7,0.6-1.2,1.4-1.7,2.1
				c-0.3,0.4-0.5,0.8-0.7,1.2l-0.4,0.6l-0.3,0.6c-0.2,0.4-0.4,0.8-0.5,1.3c-0.1,0.4-0.2,0.8-0.4,1.2c-1,4.1-1.1,8.3,0.5,12.1
				c0.1,0.5,0.5,0.9,0.7,1.4l0.4,0.7l0.4,0.6l0.4,0.6c0.1,0.2,0.3,0.4,0.5,0.7l1.3,1.5l0.2,0.2c-0.2-0.2,0,0-0.1-0.1l0,0l0.1,0.1
				l0.3,0.3l0.6,0.6c0.2,0.2,0.4,0.4,0.6,0.6l0.7,0.5c0.5,0.3,0.9,0.8,1.4,1.1l1.5,1c0.5,0.3,1.1,0.6,1.6,0.9
				c0.5,0.3,1.1,0.6,1.7,0.8l1.7,0.8c0.6,0.3,1.2,0.5,1.8,0.7c1.2,0.5,2.4,0.9,3.6,1.3c1.2,0.4,2.6,0.7,3.9,1.1
				c5,1.2,10.4,1.7,15.4,0.7c0.6-0.1,1.3-0.3,1.9-0.4c0.6-0.2,1.2-0.4,1.8-0.6c0.6-0.2,1.2-0.4,1.8-0.7l0.9-0.4l0.4-0.2
				c0,0,0.2-0.1,0.4-0.2c0.5-0.3,1.1-0.6,1.6-1c0.5-0.3,1-0.8,1.4-1.1c0.2-0.2,0.5-0.4,0.7-0.6l0.6-0.6c0.4-0.4,0.8-0.8,1.2-1.3
				c1.5-1.8,2.3-3.9,2.9-5.9c0.1-0.5,0.3-0.9,0.4-1.5c0.1-0.6,0.2-1.2,0.3-1.8l0.1-0.4l0-0.1l0-0.1c0-0.1,0,0.1,0,0.1l0-0.2l0-0.8
				c0-0.5,0.1-1,0-1.5c0-2-0.4-3.8-1-5.6c-0.3-0.9-0.7-1.7-1.1-2.5c-0.2-0.4-0.4-0.8-0.6-1.1c-0.2-0.4-0.4-0.7-0.7-1.2
				c-0.3-0.4-0.6-0.8-0.9-1.2l-0.1-0.2l-0.1-0.1l0,0c-0.1-0.1,0.1,0.1,0,0l-0.2-0.3l-0.4-0.5c-0.3-0.3-0.6-0.7-0.8-1
				c-0.3-0.3-0.6-0.6-0.9-0.9c-0.6-0.6-1.2-1.2-1.8-1.7c-0.6-0.5-1.2-1.1-1.9-1.5c-0.7-0.4-1.3-0.9-1.9-1.3c-0.7-0.4-1.3-0.7-1.9-1
				c-1.2-0.7-2.4-1.1-3.5-1.6c-2.2-0.7-4-1.2-5.2-1.4C845.3,190.5,844.6,190.4,844.6,190.4z"/>
			<path class="st0" d="M1027.6,233.6c-0.2,0.4-0.4,0.9-0.5,1.3c-0.2,0.4-0.3,0.9-0.4,1.3c-0.2,0.9-0.4,1.7-0.5,2.6
				c-0.1,0.4-0.1,0.9-0.1,1.3c0,0.4,0,0.9,0,1.3c0,1.1,0,1.7,0.1,2.5c0.1,0.8,0.2,1.6,0.4,2.3c0.2,0.7,0.4,1.4,0.6,2.2
				c0.2,0.6,0.5,1.4,0.9,2c0.4,0.7,1,1.3,1.7,1.8c0.7,0.5,1.5,0.9,2.4,1.2c0.4,0.1,0.9,0.2,1.3,0.3c0.5,0.1,0.9,0.1,1.4,0.1
				c0.9,0,1.8-0.1,2.6-0.4c0.8-0.3,1.6-0.7,2.2-1.3c0.3-0.3,0.6-0.6,0.9-0.8c0.1-0.1,0.3-0.3,0.4-0.4c0.2-0.2,0.3-0.4,0.4-0.5
				c0.4-0.6,0.8-1.3,1.2-1.9c0.7-1.3,1-2.9,1.1-4.5l0,1.1c-0.1-0.3-0.2-0.8-0.4-1.2c-0.2-0.4-0.3-0.9-0.5-1.3
				c-0.3-0.9-0.7-1.7-1.1-2.5c-0.8-1.5-1.7-2.8-2.8-3.6l-0.2-0.1c0.2,0-0.2-0.1-0.2-0.1l0,0c0,0-0.1,0-0.1,0c-0.1,0-0.2-0.1-0.3-0.1
				c-0.4-0.1-0.9-0.3-1.3-0.4c-1-0.2-2-0.4-3-0.6C1031.8,234.4,1029.7,234.1,1027.6,233.6z M1027.4,232.9c1-0.4,2.1-0.7,3.2-1
				c1.1-0.3,2.2-0.5,3.2-0.7c1.1-0.2,2.2-0.3,3.4-0.4c0.6,0,1.2,0,1.9,0c0.2,0,0.3,0,0.5,0.1l0.3,0l0.4,0.1c0.3,0.1,0.2,0,0.6,0.2
				l0.5,0.2c0.7,0.3,1.3,0.6,1.9,1c0.6,0.4,1.2,0.8,1.6,1.3c1,0.9,1.8,2,2.4,3.1c0.7,1.1,1.2,2.2,1.6,3.4c0.2,0.6,0.4,1.2,0.5,1.7
				c0.2,0.6,0.3,1.1,0.4,1.9l0,0.2c0,0.3,0,0.6,0,0.8c-0.5,2.2-1.4,4.5-2.8,6.4c-0.7,1-1.6,1.8-2.6,2.5c-0.3,0.2-0.5,0.3-0.7,0.4
				c-0.3,0.2-0.5,0.3-0.8,0.4c-0.5,0.3-1.1,0.5-1.6,0.6c-1.1,0.4-2.2,0.5-3.3,0.6c-1.1,0.1-2.1,0-3.2-0.1c-0.5-0.1-1.1-0.1-1.5-0.2
				l-1.5-0.2c-1-0.2-2-0.4-3.1-0.7c-1-0.3-2.1-0.7-3.1-1.3c-1-0.6-2-1.4-2.7-2.5c-0.7-0.9-1.2-2.1-1.5-3.2c-0.3-1.2-0.4-2.3-0.4-3.5
				c0-1.1,0.2-2.4,0.4-3.3c0.3-1.1,0.6-2.1,1.2-3.1c0.5-1,1.2-1.9,2-2.7c0.4-0.4,0.8-0.7,1.3-1.1c0.5-0.3,0.9-0.5,1.4-0.7
				L1027.4,232.9z"/>
			<path class="st0" d="M1038.7,220.4c0,0,0.7,0.1,1.9,0.3c1.2,0.2,3,0.6,5.4,1.1c2.3,0.6,5.1,1.2,8.3,2.6c0.8,0.3,1.6,0.7,2.4,1.1
				c0.8,0.4,1.6,0.9,2.5,1.4c0.4,0.3,0.8,0.5,1.2,0.8c0.4,0.3,0.8,0.6,1.2,1l0.6,0.5l0.3,0.3l0.3,0.3c0.3,0.4,0.7,0.7,1,1.1
				c0.3,0.3,0.7,0.8,1.1,1.3c0.3,0.5,0.8,1,1.1,1.5c0.3,0.5,0.6,1,0.9,1.6c0.3,0.5,0.5,1.1,0.7,1.7c0.9,2.3,1.4,4.9,1.3,7.5
				c0,0.7-0.1,1.3-0.2,2l-0.1,1l0,0.2c0,0-0.1,0.3,0,0.2l0,0.1l0,0.1l-0.1,0.4c-0.2,0.6-0.3,1.1-0.5,1.7c-0.2,0.6-0.5,1.3-0.8,1.9
				c-0.1,0.3-0.3,0.7-0.4,1l-0.5,0.9c-0.4,0.6-0.6,1.2-1.1,1.7c-0.4,0.5-0.8,1.1-1.3,1.6c-0.5,0.5-1,1-1.5,1.4
				c-2,1.8-4.4,3.3-6.8,4.3l-0.5,0.2l-0.5,0.2l-0.9,0.3c-0.6,0.2-1.2,0.5-1.9,0.7c-0.7,0.2-1.3,0.4-2,0.6c-0.7,0.1-1.3,0.3-2,0.5
				c-2.7,0.5-5.4,0.9-8.1,0.9c-2.8,0.2-5.4,0-8.3-0.2c-1.3-0.2-2.6-0.2-4-0.5c-1.4-0.2-2.8-0.4-4.1-0.8c-2.7-0.6-5.4-1.6-8-2.9
				l-1.9-1c-0.6-0.3-1.2-0.8-1.8-1.2l-0.9-0.6c-0.3-0.2-0.6-0.5-0.8-0.7l-0.8-0.7l-0.4-0.3l-0.1-0.1l-0.1,0
				c-0.1-0.1,0.1,0.1-0.2-0.2l-0.2-0.2l-1.4-1.4c-0.2-0.2-0.5-0.5-0.7-0.8l-0.7-0.9c-0.2-0.3-0.5-0.6-0.7-0.9l-0.6-0.9
				c-0.4-0.6-0.8-1.2-1-1.9c-1.3-2.6-1.8-5.6-2-8.3c0-0.7,0-1.4,0-2.1c0.1-0.7,0.1-1.3,0.2-2l0.1-0.5l0-0.2l0-0.1l0-0.2l0-0.1
				l0.2-0.9l0.2-0.8c0.1-0.3,0.1-0.6,0.3-0.9c0.2-0.7,0.5-1.3,0.7-2c0.2-0.7,0.6-1.2,0.9-1.8l0.5-0.9l0.6-0.8
				c0.4-0.5,0.7-1.1,1.1-1.5c0.9-0.9,1.7-1.9,2.7-2.6c0.9-0.8,1.9-1.4,2.9-1.9c1-0.6,2-1,2.9-1.4l0.3-0.1l0.2-0.1l0.3-0.1l0.7-0.2
				c0.5-0.1,0.9-0.3,1.3-0.4c1-0.2,1.9-0.4,2.9-0.6c0.9-0.1,1.8-0.2,2.6-0.3c3.4-0.2,6.3-0.1,8.7,0.1c2.4,0.2,4.2,0.4,5.4,0.6
				C1038,220.3,1038.7,220.4,1038.7,220.4L1038.7,220.4z M1038.6,221c0,0-0.7-0.1-1.9-0.2c-1.2-0.2-3.1-0.3-5.4-0.2
				c-0.6,0-1.2,0.1-1.8,0.1c-0.6,0-1.3,0.2-2,0.3c-1.4,0.2-2.8,0.6-4.3,1c-0.7,0.3-1.5,0.5-2.3,0.8c-0.7,0.3-1.5,0.7-2.2,1
				c-0.4,0.2-0.8,0.5-1.2,0.7l-0.6,0.3l-0.3,0.2l-0.2,0.1c0.2-0.1,0,0,0.1,0l0,0l-0.1,0c-0.4,0.3-0.7,0.5-1.1,0.8
				c-0.4,0.2-0.7,0.5-1.1,0.8c-0.3,0.3-0.7,0.6-1,0.9c-0.4,0.3-0.6,0.7-0.9,1c-0.7,0.6-1.2,1.4-1.7,2.1c-0.3,0.4-0.5,0.8-0.7,1.2
				l-0.4,0.6l-0.3,0.6c-0.2,0.4-0.4,0.8-0.5,1.3c-0.1,0.4-0.2,0.8-0.4,1.2c-1,4.1-1.1,8.3,0.5,12.1c0.1,0.5,0.5,0.9,0.7,1.4l0.4,0.7
				l0.4,0.6l0.4,0.6c0.1,0.2,0.3,0.4,0.5,0.7l1.3,1.5l0.2,0.2c-0.2-0.2,0,0-0.1-0.1l0,0l0.1,0.1l0.3,0.3l0.6,0.6
				c0.2,0.2,0.4,0.4,0.6,0.6l0.7,0.5c0.5,0.3,0.9,0.8,1.4,1.1l1.5,1c0.5,0.3,1.1,0.6,1.6,0.9c0.5,0.3,1.1,0.6,1.7,0.8l1.7,0.8
				c0.6,0.3,1.2,0.5,1.8,0.7c1.2,0.5,2.4,0.9,3.6,1.3c1.2,0.4,2.6,0.7,3.9,1.1c5,1.2,10.4,1.7,15.4,0.7c0.6-0.1,1.3-0.3,1.9-0.4
				c0.6-0.2,1.2-0.4,1.8-0.6c0.6-0.2,1.2-0.4,1.8-0.7l0.9-0.4l0.4-0.2c0,0,0.2-0.1,0.4-0.2c0.5-0.3,1.1-0.6,1.6-1
				c0.5-0.3,1-0.8,1.4-1.1c0.2-0.2,0.5-0.4,0.7-0.6l0.6-0.6c0.4-0.4,0.8-0.8,1.2-1.3c1.5-1.8,2.3-3.9,2.9-5.9
				c0.1-0.5,0.3-0.9,0.4-1.5c0.1-0.6,0.2-1.2,0.3-1.8l0.1-0.4l0-0.1l0-0.1c0-0.1,0,0.1,0,0.1l0-0.2l0-0.8c0-0.5,0.1-1,0-1.5
				c0-2-0.4-3.8-1-5.6c-0.3-0.9-0.7-1.7-1.1-2.5c-0.2-0.4-0.4-0.8-0.6-1.1c-0.2-0.4-0.4-0.7-0.7-1.2c-0.3-0.4-0.6-0.8-0.9-1.2
				l-0.1-0.2l-0.1-0.1l0,0c-0.1-0.1,0.1,0.1,0,0l-0.2-0.3l-0.4-0.5c-0.3-0.3-0.6-0.7-0.8-1c-0.3-0.3-0.6-0.6-0.9-0.9
				c-0.6-0.6-1.2-1.2-1.8-1.7c-0.6-0.5-1.2-1.1-1.9-1.5c-0.7-0.4-1.3-0.9-1.9-1.3c-0.7-0.4-1.3-0.7-1.9-1c-1.2-0.7-2.4-1.1-3.5-1.6
				c-2.2-0.7-4-1.2-5.2-1.4C1039.3,221.1,1038.6,221,1038.6,221L1038.6,221z"/>
		</g>
	</g>
	<polygon class="st1" points="677.1,724.2 637.7,725.2 610.6,721.4 613.1,308.5 642.3,300.5 677.2,302.8 	"/>
	<g>
		<path class="st3" d="M563,426.6"/>
	</g>
	<line class="st1" x1="565" y1="647.1" x2="565" y2="490.7"/>
	<g>
		<path class="st0" d="M612.5,417.3c-2.6,0.9-5.2,1.7-7.8,2.5c-1.3,0.4-2.6,0.8-3.9,1.1l-3.9,1.1c-2.6,0.7-5.3,1.4-7.9,2
			c-2.6,0.6-5.3,1.2-8,1.8c-5.3,1.2-10.6,2.3-16,3.1c-1.3,0.2-2.7,0.4-4,0.6c-1.3,0.2-2.7,0.4-4.1,0.5c-2.7,0.3-5.4,0.6-8.1,1
			l1.1-1.1c-1,3.1-1.9,6.2-2.8,9.4c-0.4,1.6-0.8,3.2-1.2,4.7l-1.1,4.8l0-0.2c0.1,1.9,0.1,3.7,0.2,5.6c0.1,1.9,0.2,3.7,0.3,5.6
			l0.7,11.1c0.1,1.9,0.2,3.7,0.3,5.6c0.1,1.9,0.1,3.7,0.2,5.6l0.3,11.1l-3.3-3l8.5-1.1c2.8-0.4,5.7-0.7,8.5-1
			c1.4-0.2,2.8-0.3,4.3-0.4c1.4-0.1,2.8-0.3,4.3-0.4c2.9-0.3,5.7-0.5,8.6-0.7c2.9-0.2,5.7-0.4,8.6-0.6c1.4-0.1,2.9-0.2,4.3-0.2
			l4.3-0.2c1.4-0.1,2.9-0.1,4.3-0.2c1.4,0,2.9-0.1,4.3-0.1c2.9-0.1,5.7-0.1,8.6,0c0.2,0,0.3,0.1,0.3,0.3c0,0.1-0.1,0.3-0.2,0.3
			c-2.8,0.7-5.6,1.3-8.4,1.9c-1.4,0.3-2.8,0.6-4.2,0.8c-1.4,0.3-2.8,0.6-4.2,0.8l-4.2,0.8c-1.4,0.3-2.8,0.5-4.2,0.7
			c-2.8,0.5-5.7,0.9-8.5,1.3c-2.8,0.4-5.7,0.9-8.5,1.2c-1.4,0.2-2.8,0.4-4.3,0.6c-1.4,0.2-2.8,0.4-4.3,0.5c-2.8,0.3-5.7,0.6-8.5,0.9
			l-8.6,0.8l-0.1,0c-1.6,0.1-3-1-3.2-2.6c0-0.1,0-0.2,0-0.3l0.3-11.1c0.1-1.9,0.1-3.7,0.2-5.6c0.1-1.9,0.2-3.7,0.3-5.6l0.7-11.1
			c0.1-1.9,0.2-3.7,0.3-5.6c0.1-1.9,0.1-3.7,0.2-5.6l0,0c0-0.1,0-0.1,0-0.2l1.2-4.7c0.4-1.6,0.8-3.2,1.1-4.8
			c0.7-3.2,1.3-6.4,1.9-9.6c0.1-0.5,0.5-0.9,0.9-1l0.2,0c2.6-0.7,5.3-1.4,7.9-2.2c1.3-0.4,2.6-0.7,3.9-1.1c1.3-0.3,2.6-0.7,4-1
			c5.3-1.3,10.6-2.3,16-3.2c2.7-0.5,5.4-0.9,8.1-1.3c2.7-0.4,5.4-0.8,8.1-1.1l4.1-0.5c1.4-0.2,2.7-0.3,4.1-0.4
			c2.7-0.3,5.4-0.5,8.2-0.6c0.2,0,0.3,0.1,0.3,0.3C612.7,417.1,612.6,417.2,612.5,417.3z"/>
	</g>
	<g>
		<path class="st0" d="M582.9,557.2c0.1,0.4,0.2,0.8,0.3,1.2c0.1,0.5,0.2,1.1,0.3,1.6c0.2,1.1,0.4,2.1,0.5,3.2
			c0.3,2.1,0.4,4.3,0.6,6.4c0.1,2.1,0.1,4.3,0.1,6.4c0,1.1-0.1,2.1-0.1,3.2c-0.1,1.1-0.2,2.1-0.4,3.2l-2.4-2.4
			c1.9,0.2,3.8,0.6,5.7,0.9c1,0.1,1.9,0.3,2.9,0.4c1,0.1,1.9,0.2,2.9,0.2c1.9,0.1,3.8,0,5.7-0.1c1.9-0.1,3.8-0.4,5.7-0.6l-1.6,1.6
			l-0.4-3.3c-0.2-1.1-0.3-2.2-0.4-3.3c-0.2-2.2-0.3-4.4-0.4-6.6c-0.1-2.2-0.2-4.4-0.3-6.6c-0.1-2.2,0-4.4,0.1-6.6l3.2,3.1
			c-1.8,0-3.7-0.1-5.5-0.2c-1.8-0.1-3.7-0.2-5.5-0.4l-2.8-0.3c-0.9-0.1-1.9-0.2-2.8-0.3c-0.9-0.1-1.9-0.3-2.8-0.4
			C584.5,557.5,583.7,557.4,582.9,557.2z M582.5,556.5c0.9-0.3,1.8-0.5,2.7-0.7c0.9-0.2,1.8-0.4,2.7-0.6c0.9-0.2,1.8-0.4,2.7-0.5
			l2.8-0.5c1.8-0.2,3.7-0.5,5.5-0.7c1.8-0.2,3.7-0.4,5.5-0.5c1.7-0.1,3.1,1.1,3.2,2.8l0,0.1l0,0.3c0.1,2.2,0.1,4.4,0.1,6.6
			c-0.1,2.2-0.2,4.4-0.3,6.6c-0.1,2.2-0.2,4.4-0.4,6.6c-0.1,1.1-0.2,2.2-0.4,3.3l-0.4,3.3l-0.1,0.4c-0.1,0.8-0.8,1.3-1.6,1.2
			c-1.9-0.3-3.8-0.5-5.7-0.6c-1.9-0.1-3.8-0.2-5.7-0.1c-1,0-1.9,0.1-2.9,0.2c-1,0.1-1.9,0.2-2.9,0.4c-1.9,0.3-3.8,0.6-5.7,0.9
			c-1.1,0.1-2.2-0.7-2.3-1.8l0-0.1l-0.1-0.6c-0.1-1.1-0.2-2.1-0.2-3.2c0-1.1,0-2.1,0-3.2c0.1-2.1,0.3-4.3,0.5-6.4
			c0.2-2.1,0.5-4.2,0.9-6.4c0.2-1.1,0.4-2.1,0.7-3.2c0.1-0.5,0.3-1.1,0.4-1.6c0.1-0.5,0.3-1.1,0.5-1.6l0,0
			C582.3,556.6,582.4,556.5,582.5,556.5z"/>
	</g>
	<g>
		<path class="st3" d="M575,649.2"/>
	</g>
	<g>
		<path class="st0" d="M611.8,529c-1.9,0.1-3.8,0.2-5.7,0.3c-1.9,0.1-3.8,0.1-5.7,0.2l-5.7,0.1l-5.7,0.1l0.2,0
			c-4.5,0.6-8.9,1-13.4,1.5l2.1-2.2l0.1,7.5c0,2.5,0.1,5,0.1,7.5c0,5,0.1,10,0.1,15c0,5-0.2,10-0.3,15c-0.2,5-0.4,10-0.7,15
			c-0.3,5-0.5,10-0.7,15l-0.2,7.5c-0.1,2.5-0.1,5-0.1,7.5l0,7.5c0,2.5,0,5,0.1,7.5c0,2.5,0.1,5,0.2,7.5l0.2,7.5
			c0,0.8-0.6,1.5-1.4,1.5l-0.1,0l-0.1,0l-15.2-0.2c-2.5,0-5.1-0.1-7.6-0.1c-2.5,0-5.1-0.1-7.6-0.2l2.7-2.5l-0.1,16.1l-0.1,16.1
			c0,5.4-0.1,10.8-0.3,16.1c-0.1,5.4-0.3,10.8-0.5,16.1l-2.6-3.1c3.8,0.6,7.6,1.3,11.4,2c3.8,0.7,7.6,1.3,11.4,2.1l5.7,1.1l1.4,0.3
			l0.7,0.1l0.1,0l0,0c0,0,0.1,0-0.1,0l0,0l0,0l0.2,0l0.4,0.1l2.8,0.5c3.8,0.6,7.6,1.2,11.4,1.9l-0.2,0c3.6,0.2,7.2,0.4,10.9,0.6
			c3.6,0.2,7.2,0.5,10.9,0.7c0.2,0,0.3,0.2,0.3,0.3c0,0.1-0.1,0.3-0.3,0.3c-3.6,0.3-7.2,0.5-10.9,0.7c-3.6,0.2-7.2,0.4-10.9,0.6l0,0
			l-0.2,0c-3.8-0.3-7.7-0.6-11.5-0.9l-2.9-0.2l-0.4,0l-0.2,0l-0.2,0l-0.7-0.1l-1.4-0.2l-5.7-0.7c-3.8-0.5-7.6-1-11.4-1.5
			c-3.8-0.5-7.6-1-11.4-1.5c-1.5-0.2-2.6-1.5-2.6-3l0-0.1c0-5.4,0.1-10.8,0.2-16.1c0.1-5.4,0.2-10.8,0.4-16.1l0.6-16.1l0.7-16.1
			l0-0.1c0.1-1.4,1.2-2.5,2.6-2.4c0,0,0.1,0,0.1,0c2.5,0.2,5.1,0.4,7.6,0.6c2.5,0.2,5,0.4,7.6,0.7l15.1,1.4l-1.6,1.5l0.3-7.5
			c0.1-2.5,0.2-5,0.2-7.5c0.1-2.5,0.1-5,0.2-7.5l0.1-7.5c0-2.5,0-5,0-7.5l-0.2-7.5c-0.1-5-0.3-10-0.6-15c-0.2-5-0.4-10-0.6-15
			c-0.1-5-0.2-10-0.2-15c0-5,0.1-10,0.2-15c0-2.5,0.1-5,0.2-7.5l0.2-7.5l0-0.1c0-1.1,0.9-2,2.1-2.1c4.5-0.2,9-0.4,13.5-0.5l0.2,0
			l0,0l5.7,0.5l5.7,0.5c1.9,0.2,3.8,0.4,5.7,0.6c1.9,0.2,3.8,0.4,5.7,0.7c0.2,0,0.3,0.2,0.3,0.3C612,528.9,611.9,529,611.8,529z"/>
	</g>
	<g>
		<path class="st0" d="M562.2,425.7l1.3-92.1l1.3,1.4l-35-0.8l1.2-0.2l-22.8,7.2l1.4-2L506,706.4l-1.5-1.8c1.8,0,3.6,0.1,5.4,0.2
			l2.7,0.2c0.9,0.1,1.8,0.2,2.7,0.3c1.8,0.2,3.6,0.4,5.4,0.6c0.9,0.1,1.8,0.2,2.7,0.4l2.7,0.4l-0.3,0l2.1,0.1c0.7,0,1.4,0.1,2.1,0.1
			c1.4,0.1,2.8,0.2,4.2,0.4c0.7,0.1,1.4,0.1,2.1,0.2l2.1,0.3c1.4,0.2,2.8,0.4,4.2,0.7c0.7,0.2,1.2,0.9,1,1.6c-0.1,0.6-0.6,1-1.1,1.1
			c-1.4,0.2-2.8,0.4-4.3,0.5l-2.1,0.2c-0.7,0.1-1.4,0.1-2.1,0.1c-1.4,0.1-2.8,0.1-4.2,0.1c-0.7,0-1.4,0-2.1,0l-2.1,0
			c-0.1,0-0.2,0-0.3,0l-0.1,0l-2.7-0.4c-0.9-0.1-1.8-0.2-2.7-0.4c-1.8-0.3-3.5-0.6-5.3-0.9c-0.9-0.2-1.8-0.3-2.6-0.5l-2.6-0.5
			c-1.8-0.4-3.5-0.8-5.3-1.3l-0.2-0.1c-0.8-0.2-1.3-0.9-1.3-1.7l3-367.1c0-0.9,0.6-1.6,1.3-1.9l0.1,0l22.2-8.9l0,0
			c0.4-0.2,0.8-0.2,1.2-0.2l34.8,4l0,0c0.7,0.1,1.3,0.7,1.3,1.4l1.3,92.1c0,1.5-1.2,2.8-2.7,2.8
			C563.5,428.5,562.3,427.3,562.2,425.7C562.2,425.7,562.2,425.7,562.2,425.7z"/>
	</g>
	<polyline class="st1" points="514.3,459.6 519.5,454.3 519.5,473.5 	"/>
	<g>
		<path class="st0" d="M504.2,702.6c-0.7,0-1.5,0-2.3,0.1l-2.3,0.1l-4.7,0.3c-3.1,0.2-6.2,0.4-9.3,0.7c-3.1,0.2-6.2,0.5-9.3,0.9
			c-1.5,0.2-3.1,0.4-4.5,0.6c-0.7,0.1-1.5,0.3-2.1,0.4c-0.3,0.1-0.7,0.2-0.9,0.3c-0.1,0-0.2,0.1-0.2,0.1c0,0,0,0,0,0
			c0,0,0.1-0.1,0.1-0.1c0,0,0.2-0.2,0.3-0.3l0.1-0.1c0-0.1,0.1-0.1,0.1-0.2c0.1-0.2,0.1-0.3,0.1-0.5l-0.1,0.4l-1.3,4.2
			c-0.2,0.7-0.4,1.4-0.7,2.1l-0.8,2l-1.6-3.2l4.9,0.8l5,0.8l10,1.7c6.6,1.1,13.3,2.2,19.9,3.5c13.2,2.5,26.4,5.5,39.6,8.1
			c3.3,0.7,6.6,1.3,9.9,1.9l9.9,1.7l10,1.6c3.3,0.5,6.7,1,10,1.4l10,1.3l10,1.2l20.1,2.2c6.7,0.7,13.4,1.5,20,2
			c1.6,0.1,3.3,0.3,4.9,0.3l5,0.1l10.1,0.3c6.7,0.2,13.4,0.3,20.1,0.4l20.1,0.4l10.1,0.2l5,0.1l0.6,0c0,0,0.4,0,0.5,0
			c0.1,0,0.5,0,0.7-0.1c0.5-0.1,0.9-0.3,1-0.4c0.1-0.1,0.1,0.1,0.1-0.1c0.1,0-0.3-1-0.5-2c-0.4-1.7-0.7-3.3-1.1-4.8
			c-0.4-1.5-0.9-2.9-1.6-4c-0.3-0.5-0.7-1-1-1.2c-0.1-0.1-0.2-0.1-0.3-0.2c-0.1,0-0.2-0.1-0.2-0.1l-1.2-0.3
			c-1.6-0.5-3.2-0.8-4.8-1.2c-1.6-0.4-3.2-0.8-4.9-1.1l-9.8-2.3c-6.5-1.5-13.1-3.1-19.7-4.3l-0.1,0c-0.2,0-0.3-0.2-0.2-0.3
			c0-0.1,0.2-0.2,0.3-0.2l2.6,0.1l2.5,0.2c1.7,0.2,3.4,0.4,5,0.6c3.4,0.4,6.7,0.8,10.1,1.2c6.7,0.9,13.4,1.9,20.1,3.2l1.2,0.3
			c0.4,0.1,0.6,0.2,1,0.3c0.3,0.1,0.6,0.3,0.8,0.4c1.1,0.6,1.8,1.5,2.5,2.4c1.2,1.7,1.9,3.5,2.5,5.2c0.6,1.7,1,3.4,1.4,5
			c0.1,0.3,0.2,0.6,0.3,1.1l0.1,0.3l0.1,0.5c0.1,0.3,0.2,0.7,0.2,1.1c0.1,0.7,0,1.6-0.3,2.4c-0.3,0.8-0.8,1.5-1.3,2
			c-1.1,1-2.3,1.6-3.4,1.9c-0.6,0.2-1.1,0.3-1.8,0.3c-0.4,0-0.4,0-0.8,0l-0.6,0l-5.1,0.1c-3.4,0.1-6.7,0.1-10.1,0.1l-10.1,0
			c-3.4,0-6.8-0.1-10.1-0.2l-10.1-0.2c-3.4-0.1-6.7-0.3-10.1-0.5l-10.1-0.5l-5-0.3c-1.8-0.1-3.4-0.3-5.2-0.5
			c-6.8-0.7-13.5-1.7-20.1-2.8c-3.3-0.5-6.7-1.1-10-1.7l-10-1.8l-19.9-3.7l-10-1.8l-10-1.7l-10-1.6l-10-1.4l-20.1-2.6
			c-6.7-0.9-13.4-1.8-20-2.8c-6.7-1.1-13.3-2.2-19.9-3.5l-9.9-1.9l-5-1l-5-1c-1.2-0.3-2-1.5-1.8-2.7c0-0.1,0.1-0.3,0.1-0.4l0,0
			l0.8-1.9c0.3-0.6,0.5-1.3,0.8-1.9l1.5-3.9l-0.1,0.4c0-0.2,0.1-0.4,0.1-0.6c0-0.1,0.1-0.2,0.1-0.3c0-0.1,0.1-0.1,0.1-0.2
			c0.1-0.2,0.4-0.5,0.5-0.5c0.1-0.1,0.3-0.2,0.4-0.3l0.3-0.2c0.4-0.2,0.6-0.3,0.9-0.3c0.5-0.1,0.9-0.2,1.4-0.3
			c0.9-0.1,1.7-0.2,2.5-0.3c1.6-0.2,3.2-0.3,4.8-0.3c3.2-0.1,6.3-0.1,9.4-0.1c3.1,0.1,6.3,0.1,9.4,0.3l4.7,0.3l2.3,0.2
			c0.8,0.1,1.6,0.1,2.4,0.3c0.2,0,0.3,0.2,0.2,0.4C504.5,702.5,504.4,702.6,504.2,702.6L504.2,702.6z"/>
	</g>
	<g>
		<path class="st0" d="M561.1,444.9c0,0,0.4,0.5,0.8,1.3c0.4,0.8,0.8,1.9,0.9,3.2c0,0.6,0.1,1.3-0.2,2c-0.2,0.7-0.8,1.4-1.3,2.1
			c-0.5,0.7-0.9,1.5-1,2.3c-0.1,0.8,0.1,1.7,0.4,2.6c0.3,0.9,0.6,1.8,0.7,2.6c0.1,0.8,0.1,1.7,0.2,2.5c0.1,1.6-0.4,3-1,4.2
			c-0.6,1.2-1.3,2.2-1.8,2.8c-0.3,0.3-0.6,0.6-0.7,0.8c-0.2,0.2-0.3,0.3-0.3,0.3c-0.2,0.1-0.4,0.1-0.6,0c0,0,0,0,0,0
			c0,0-0.1-0.1-0.2-0.3c-0.1-0.2-0.3-0.5-0.5-0.9c-0.4-0.8-0.8-1.9-1.1-3.2c-0.2-1.3-0.4-2.8,0.1-4.3c0.2-0.8,0.5-1.6,0.8-2.4
			c0.3-0.8,0.8-1.6,1.3-2.4c0.5-0.8,0.9-1.6,1-2.4c0.2-0.8,0-1.7-0.4-2.5c-0.3-0.8-0.7-1.7-0.7-2.4c-0.1-0.7,0.2-1.4,0.3-2
			c0.4-1.2,1-2.2,1.7-2.9c0.6-0.7,1.1-1,1.1-1C560.7,444.7,560.9,444.7,561.1,444.9z"/>
	</g>
	<g>
		<path class="st0" d="M567.4,444c0,0,0,0.1,0.1,0.3c0.1,0.2,0.2,0.5,0.3,0.9c0.2,0.8,0.5,1.8,0.7,3.1c0.2,1.3,0.4,2.7,0.4,4.3
			c0,0.8,0,1.6-0.1,2.4c0,0.8-0.1,1.6-0.2,2.4c-0.1,0.8-0.2,1.6-0.4,2.4c-0.1,0.8-0.3,1.6-0.6,2.3c-0.4,1.5-0.9,2.9-1.5,4
			c-0.5,1.2-1.1,2.1-1.5,2.8c-0.2,0.3-0.4,0.6-0.5,0.8c-0.1,0.2-0.2,0.3-0.2,0.3s0-0.1-0.1-0.3c-0.1-0.2-0.2-0.5-0.3-0.9
			c-0.3-0.8-0.5-1.8-0.7-3.1c-0.2-1.3-0.4-2.7-0.4-4.3c0-0.8,0-1.6,0.1-2.4c0-0.8,0.1-1.6,0.2-2.4c0.1-0.8,0.2-1.6,0.4-2.4
			c0.2-0.8,0.3-1.6,0.6-2.3c0.4-1.5,0.9-2.9,1.5-4c0.5-1.2,1.1-2.1,1.5-2.8c0.2-0.3,0.4-0.6,0.5-0.8
			C567.4,444.1,567.4,444,567.4,444z"/>
	</g>
	<g>
		<path class="st0" d="M574.2,442.5c0,0,0,0.1,0.1,0.3c0.1,0.2,0.2,0.5,0.3,0.9c0.2,0.8,0.5,1.8,0.7,3.1c0.2,1.3,0.3,2.7,0.3,4.3
			c0,0.8,0,1.6-0.1,2.4c0,0.8-0.1,1.6-0.2,2.4c-0.1,0.8-0.2,1.6-0.4,2.4c-0.2,0.8-0.4,1.6-0.6,2.3c-0.4,1.5-0.9,2.8-1.5,4
			c-0.5,1.2-1.1,2.1-1.5,2.8c-0.2,0.3-0.4,0.6-0.5,0.8c-0.1,0.2-0.2,0.3-0.2,0.3s0-0.1-0.1-0.3c-0.1-0.2-0.2-0.5-0.3-0.9
			c-0.2-0.8-0.5-1.8-0.7-3.1c-0.2-1.3-0.3-2.7-0.3-4.3c0-0.8,0-1.6,0.1-2.4c0-0.8,0.2-1.6,0.2-2.4c0.1-0.8,0.3-1.6,0.4-2.4
			c0.2-0.8,0.4-1.6,0.6-2.3c0.4-1.5,1-2.8,1.5-4c0.5-1.2,1.1-2.1,1.5-2.8c0.2-0.3,0.4-0.6,0.5-0.8
			C574.2,442.6,574.2,442.5,574.2,442.5z"/>
	</g>
	<g>
		<path class="st0" d="M577.2,474.2c-0.2-0.6-0.4-1.3-0.5-1.9c-0.1-0.6-0.2-1.2-0.3-1.8c-0.2-1.2-0.2-2.4-0.2-3.6c0-0.6,0-1.2,0-1.8
			c0-0.6,0.1-1.2,0.1-1.7c0.1-0.6,0.1-1.2,0.2-1.7c0.1-0.6,0.2-1.1,0.3-1.7l0.1-0.2c0.1-0.4,0.3-0.8,0.5-1.1
			c0.2-0.2,0.3-0.4,0.5-0.6c0.2-0.2,0.5-0.4,0.8-0.6c0.6-0.4,1.6-0.7,2.7-0.6c1.1,0.1,1.8,0.7,2.3,1.1c0.5,0.5,0.7,0.9,1,1.4
			c0.4,0.9,0.5,1.6,0.6,2.4c0,0.8,0,1.5-0.2,2.2c-0.1,0.4-0.2,0.7-0.4,1.1c-0.1,0.3-0.4,0.7-0.6,1c-0.4,0.6-1.1,1.1-1.7,1.5
			c-0.3,0.2-0.7,0.3-1,0.3c-0.3,0.1-0.7,0.1-1,0c-0.3,0-0.6-0.1-0.9-0.2c-0.3-0.1-0.6-0.2-0.8-0.4c0.3-0.2,0.5-0.3,0.7-0.5
			c0.2-0.2,0.4-0.3,0.6-0.5c0.2-0.2,0.3-0.3,0.4-0.5c0.1-0.2,0.2-0.3,0.3-0.5c0-0.2,0.1-0.3,0.1-0.5c0-0.2,0-0.3,0-0.5
			c0-0.1,0-0.3,0-0.5c0-0.1-0.1-0.3-0.1-0.5c0-0.1-0.1-0.3-0.1-0.4c-0.1-0.1-0.1-0.3-0.2-0.4c-0.1-0.3-0.3-0.5-0.4-0.5
			c0,0-0.1,0,0,0.1c0.1,0.1,0.4,0.4,0.9,0.4c0.5,0.1,1-0.1,1.2-0.2c0.1-0.1,0.1-0.1,0.2-0.1c0,0,0,0,0,0l0.6-1.3
			c-0.1,0.6-0.2,1.1-0.3,1.7c-0.1,0.6-0.3,1.1-0.4,1.7c-0.1,0.6-0.3,1.1-0.5,1.7c-0.2,0.6-0.4,1.1-0.6,1.7c-0.4,1.1-0.9,2.2-1.5,3.3
			c-0.3,0.5-0.6,1.1-1,1.6C578.1,473.2,577.7,473.7,577.2,474.2z"/>
	</g>
	<line class="st1" x1="589.1" y1="451.4" x2="587.4" y2="467.3"/>
	<g>
		<path class="st0" d="M595.8,451.4c0,0,0,0.1,0.1,0.2c0.1,0.1,0.2,0.3,0.3,0.6c0.3,0.5,0.6,1.2,0.8,2c0.2,0.8,0.4,1.7,0.5,2.7
			c0.1,1,0,2-0.1,3c-0.3,2-1.1,3.9-2.1,5.3c-0.5,0.7-1,1.2-1.4,1.6c-0.2,0.2-0.4,0.3-0.5,0.4c-0.1,0.1-0.2,0.2-0.2,0.2
			s0-0.1-0.1-0.2c-0.1-0.1-0.2-0.3-0.3-0.6c-0.3-0.5-0.6-1.2-0.8-2c-0.5-1.6-0.7-3.7-0.4-5.7c0.2-1,0.4-2,0.8-2.9
			c0.4-0.9,0.8-1.7,1.3-2.4c0.5-0.7,1-1.2,1.4-1.6c0.2-0.2,0.4-0.3,0.5-0.4C595.7,451.4,595.8,451.4,595.8,451.4z"/>
	</g>
	<line class="st1" x1="598.3" y1="458.2" x2="602.7" y2="457.6"/>
	<g>
		<path class="st0" d="M596.4,462c0,0,0,0,0.1-0.1c0.1-0.1,0.2-0.2,0.4-0.3c0.1-0.1,0.4-0.2,0.6-0.2c0.1,0,0.3,0,0.5,0
			c0.2,0,0.3,0,0.4,0.1c0.6,0.1,1.2,0.5,1.7,1.1c0.2,0.3,0.4,0.6,0.5,1c0.1,0.4,0.2,0.8,0.1,1.2c0,0.4-0.2,0.9-0.4,1.3
			c-0.2,0.4-0.5,0.8-0.9,1.1c-0.4,0.3-0.8,0.5-1.1,0.6c-0.4,0.1-0.8,0.1-1.1,0c-0.3-0.1-0.6-0.2-0.8-0.4c-0.2-0.1-0.4-0.3-0.5-0.5
			c-0.1-0.1-0.2-0.3-0.3-0.4c-0.1-0.1-0.1-0.2-0.1-0.2s0-0.1,0.1-0.2c0-0.1,0.1-0.3,0.1-0.5c0-0.2,0.1-0.4,0.1-0.6
			c0-0.2,0-0.4,0-0.6c-0.1-0.2-0.1-0.3-0.3-0.4c-0.1-0.1-0.3-0.2-0.4-0.2c-0.1,0-0.3,0-0.3,0.1c-0.1,0.1-0.1,0.1-0.1,0.2
			c0,0,0,0.1,0.1,0.1c0.1,0,0.1,0,0.3-0.1c0.2-0.1,0.5-0.3,0.7-0.6c0.1-0.1,0.1-0.2,0.2-0.3c0.1-0.1,0.1-0.2,0.2-0.2
			c0.1-0.2,0.2-0.4,0.1-0.6c0-0.2,0-0.4,0-0.5C596.4,462,596.4,462,596.4,462z"/>
	</g>
	<polygon class="st1" points="1151.7,712.6 1120.9,712.5 1087.6,710.2 1090,360.5 1124.5,353.7 1154.3,355.7 	"/>
	<g>
		<path class="st3" d="M1016.2,414.9"/>
	</g>
	<line class="st1" x1="1005.9" y1="646.8" x2="1006.8" y2="514.9"/>
	<g>
		<path class="st0" d="M1089.4,452.5c-1.8,0.4-3.6,0.7-5.4,1c-1.8,0.3-3.6,0.6-5.5,0.9c-1.8,0.3-3.6,0.5-5.5,0.8
			c-1.8,0.3-3.6,0.5-5.5,0.7c-3.6,0.4-7.3,0.9-10.9,1.2c-3.6,0.4-7.3,0.7-11,1c-3.7,0.3-7.3,0.6-11,0.8c-3.7,0.2-7.3,0.3-11,0.4
			c-7.3,0.1-14.7,0.1-22,0.4l0.8-0.5c-1.3,2-2.5,4.1-3.7,6.2c-1.2,2.1-2.4,4.2-3.6,6.3l0.1-0.5c0,1.9,0.1,3.7,0.1,5.6
			c0,1.9,0.1,3.7,0.2,5.6c0.2,3.7,0.4,7.4,0.6,11.1l0.3,5.6c0.1,1.9,0.2,3.7,0.3,5.6c0.1,1.9,0.1,3.7,0.2,5.6l0.1,5.6l-3-2.7
			l11.8-1.2l5.9-0.6c2-0.2,3.9-0.4,5.9-0.6c3.9-0.4,7.9-0.7,11.8-0.9c3.9-0.3,7.9-0.5,11.8-0.7l5.9-0.3c2-0.1,4-0.2,5.9-0.3
			c4-0.1,7.9-0.3,11.9-0.4c2,0,4-0.1,5.9-0.1l5.9-0.1l6,0c2,0,4,0,6,0.1c0.2,0,0.3,0.1,0.3,0.3c0,0.1-0.1,0.3-0.2,0.3
			c-2,0.4-3.9,0.7-5.9,1l-5.9,0.9l-5.9,0.9c-2,0.3-3.9,0.5-5.9,0.8c-3.9,0.5-7.9,1-11.8,1.5c-2,0.3-3.9,0.4-5.9,0.7l-5.9,0.7
			c-3.9,0.4-7.9,0.8-11.8,1.2c-3.9,0.4-7.9,0.7-11.8,1c-2,0.2-3.9,0.3-5.9,0.4l-5.9,0.4l-11.8,0.7l-0.1,0c-1.5,0.1-2.7-1-2.8-2.5
			c0-0.1,0-0.2,0-0.2l0.1-5.6c0-1.9,0.1-3.7,0.2-5.6c0.1-1.9,0.1-3.7,0.3-5.6l0.3-5.6c0.2-3.7,0.4-7.4,0.6-11.1
			c0.1-1.9,0.2-3.7,0.2-5.6c0-1.9,0.1-3.7,0.1-5.6v0c0-0.2,0-0.3,0.1-0.5c1.2-2.1,2.5-4.1,3.7-6.2c1.2-2.1,2.4-4.2,3.5-6.3
			c0.2-0.3,0.4-0.5,0.8-0.5l0.1,0c7.3-0.8,14.6-1.9,21.8-2.8c3.6-0.5,7.3-0.9,10.9-1.2c3.7-0.3,7.3-0.6,11-0.8
			c3.7-0.2,7.3-0.4,11-0.6c3.7-0.2,7.3-0.3,11-0.4c1.8-0.1,3.7-0.1,5.5-0.1c1.8,0,3.7-0.1,5.5,0c1.8,0,3.7,0,5.5,0
			c1.8,0,3.7,0.1,5.5,0.2c0.2,0,0.3,0.1,0.3,0.3C1089.6,452.4,1089.5,452.5,1089.4,452.5z"/>
	</g>
	<g>
		<path class="st0" d="M1048.8,559.8c0.2,0.9,0.4,1.9,0.6,2.8c0.2,1.1,0.4,2.1,0.5,3.2c0.3,2.1,0.5,4.3,0.7,6.4
			c0.2,2.1,0.3,4.3,0.3,6.4c0.1,2.1,0.1,4.3-0.1,6.4l-2.6-2.6c2.3,0.1,4.7,0.5,7,0.8c1.2,0.2,2.3,0.3,3.5,0.5
			c1.2,0.1,2.3,0.3,3.5,0.3c2.3,0.2,4.7,0.1,7,0c1.2-0.1,2.3-0.1,3.5-0.3c1.2-0.1,2.3-0.2,3.5-0.4l-1.6,1.6
			c-0.2-2.2-0.6-4.4-0.8-6.6c-0.2-2.2-0.3-4.4-0.4-6.6c-0.2-4.4-0.5-8.7-0.4-13.1l3.3,3.2c-2.3,0-4.7,0-7-0.1
			c-2.3-0.1-4.7-0.2-7-0.4c-1.2-0.1-2.3-0.2-3.5-0.3c-1.2-0.1-2.3-0.2-3.5-0.4C1053.3,560.5,1051.1,560.2,1048.8,559.8z
			 M1048.5,559.1c2.3-0.6,4.6-1.1,7-1.4c1.2-0.2,2.3-0.4,3.5-0.5c1.2-0.2,2.3-0.3,3.5-0.5c2.3-0.3,4.6-0.5,7-0.7
			c2.3-0.2,4.6-0.3,7-0.4c1.8-0.1,3.2,1.3,3.3,3.1l0,0.1l0,0.1c0.1,4.4-0.2,8.7-0.4,13.1c-0.1,2.2-0.2,4.4-0.4,6.6
			c-0.2,2.2-0.5,4.4-0.8,6.6l0,0.4c-0.1,0.8-0.8,1.3-1.6,1.2l0,0c-1.2-0.1-2.3-0.3-3.5-0.4c-1.2-0.1-2.3-0.2-3.5-0.3
			c-2.3-0.1-4.7-0.1-7,0c-1.2,0.1-2.3,0.2-3.5,0.3c-1.2,0.1-2.3,0.3-3.5,0.5c-2.3,0.3-4.7,0.7-7,0.8c-1.3,0.1-2.5-1-2.6-2.3l0-0.3
			c-0.1-2.1-0.1-4.3,0-6.4c0.1-2.1,0.2-4.3,0.4-6.4c0.2-2.1,0.4-4.3,0.8-6.4c0.2-1.1,0.4-2.1,0.5-3.2c0.2-1.1,0.4-2.1,0.7-3.2l0,0
			C1048.2,559.2,1048.3,559.1,1048.5,559.1z"/>
	</g>
	<g>
		<path class="st0" d="M1036,649.1c-0.4-2.1-0.7-4.3-1-6.4c-0.3-2.1-0.5-4.3-0.7-6.4c-0.2-2.1-0.4-4.3-0.5-6.4
			c-0.1-2.1-0.2-4.3-0.3-6.4c-0.2-4.3-0.3-8.5-0.1-12.8c0.1-2.1,0.3-4.3,0.4-6.4l0.5-6.4c0.2-2.1,0.3-4.3,0.4-6.4
			c0.1-2.1,0.1-4.3,0-6.4c0-2.1-0.1-4.3-0.2-6.4c-0.1-2.1-0.3-4.3-0.5-6.4l-0.6-6.4c-0.2-2.1-0.4-4.3-0.5-6.4
			c-0.2-4.3-0.4-8.5-0.6-12.8c-0.1-1.6,1.2-2.9,2.7-3l0.2,0l4.9-0.3c1.6-0.1,3.3-0.1,4.9-0.2c1.6,0,3.3-0.1,4.9-0.1
			c1.6,0,3.3,0,4.9,0c3.3,0,6.5,0.1,9.8,0.2l4.9,0.2c1.6,0.1,3.3,0.2,4.9,0.3l0.2,0c1.2,0.2,2.4,0.3,3.5,0.5
			c1.2,0.2,2.4,0.4,3.5,0.6c2.3,0.4,4.7,0.8,7,1.4c0.2,0,0.3,0.2,0.2,0.4c0,0.1-0.1,0.2-0.3,0.2c-2.4,0.3-4.8,0.4-7.1,0.5
			c-1.2,0.1-2.4,0.1-3.6,0.2c-1.2,0.1-2.4,0.1-3.6,0.1l0.2,0c-1.6,0.2-3.3,0.4-4.9,0.5l-4.9,0.4c-3.3,0.2-6.5,0.5-9.8,0.7
			c-1.6,0.1-3.3,0.2-4.9,0.2c-1.6,0.1-3.3,0.1-4.9,0.2c-1.6,0-3.3,0.1-4.9,0l-4.9,0l2.9-3c-0.1,4.3-0.2,8.5-0.4,12.8
			c-0.1,2.1-0.2,4.3-0.4,6.4l-0.5,6.4c-0.2,2.1-0.3,4.3-0.4,6.4c-0.1,2.1-0.1,4.3-0.1,6.4c0,2.1,0,4.3,0.1,6.4
			c0.1,2.1,0.3,4.3,0.5,6.4l0.7,6.4c0.2,2.1,0.4,4.3,0.6,6.4c0.3,4.3,0.2,8.5,0.2,12.8c0,2.1-0.1,4.3-0.2,6.4
			c-0.1,2.1-0.3,4.3-0.4,6.4c-0.2,2.1-0.3,4.3-0.6,6.4c-0.2,2.1-0.5,4.3-0.9,6.4c0,0.2-0.2,0.3-0.4,0.2
			C1036.2,649.3,1036.1,649.2,1036,649.1z"/>
	</g>
	<g>
		<path class="st0" d="M1036.3,649.4c-2.2,0.2-4.3,0.3-6.5,0.4c-2.2,0.1-4.3,0.2-6.5,0.2c-2.2,0.1-4.3,0.1-6.5,0.1
			c-2.2,0-4.3,0.1-6.5,0c-4.3,0-8.6-0.1-12.9-0.2c-4.3-0.1-8.6-0.3-12.9-0.7l2.7-2.5c-0.1,2.3-0.3,4.7-0.5,7l-0.6,7
			c-0.4,4.7-0.8,9.3-0.9,14c-0.1,2.3-0.1,4.7-0.1,7c0,2.3,0,4.7,0,7c0,2.3,0.1,4.7,0.2,7l0.3,7l-1.6-1.8c4,0.1,7.9,0.1,11.9,0.2
			c2,0,3.9,0.2,5.9,0.2l5.9,0.3l11.8,0.6c3.9,0.2,7.9,0.4,11.8,0.8c3.9,0.3,7.9,0.7,11.8,1c3.9,0.4,7.9,0.8,11.8,1.3
			c3.9,0.5,7.9,0.9,11.8,1.5c2,0.3,3.9,0.5,5.9,0.8c2,0.3,3.9,0.6,5.9,0.9l-0.3,0c3.1-0.2,6.2-0.3,9.3-0.4c0.2,0,0.3,0.1,0.3,0.3
			c0,0.1-0.1,0.3-0.2,0.3l0,0c-3,0.8-6,1.5-8.9,2.2c0,0-0.1,0-0.1,0l-0.2,0c-2,0-4,0-5.9,0c-2,0-4,0-5.9-0.1c-4,0-7.9-0.2-11.9-0.3
			c-3.9-0.2-7.9-0.3-11.8-0.5c-3.9-0.2-7.9-0.4-11.8-0.7c-3.9-0.3-7.9-0.6-11.8-1l-11.8-1.2l-5.9-0.6c-2-0.2-3.9-0.4-5.9-0.7
			c-3.9-0.5-7.8-1-11.8-1.6l-0.2,0c-0.9-0.1-1.5-0.9-1.4-1.7l0.5-7c0.1-2.3,0.3-4.7,0.4-7c0.1-2.3,0.2-4.7,0.2-7
			c0.1-2.3,0.1-4.7,0.1-7c0-4.7-0.3-9.3-0.5-14l-0.4-7c-0.1-2.3-0.2-4.7-0.3-7c0-1.4,1.1-2.5,2.4-2.5l0,0l0.2,0
			c4.3,0,8.6,0.2,12.9,0.5c4.3,0.3,8.6,0.6,12.9,0.9c2.1,0.2,4.3,0.4,6.4,0.6c2.1,0.2,4.3,0.5,6.4,0.7c2.1,0.2,4.3,0.5,6.4,0.8
			c2.1,0.3,4.3,0.6,6.4,1c0.2,0,0.3,0.2,0.2,0.4C1036.6,649.3,1036.5,649.4,1036.3,649.4z"/>
	</g>
	<polyline class="st2" points="1008.9,458 1010,376.9 983.5,372.5 953.2,380.6 949.5,698.6 978.8,701.1 984.1,700.5 	"/>
	<g>
		<path class="st0" d="M949.5,693.3c-0.8,0-1.6,0-2.5,0l-2.5,0.1l-5,0.2c-3.3,0.1-6.6,0.2-9.9,0.4c-3.3,0.1-6.6,0.3-9.9,0.5
			c-1.6,0.1-3.3,0.3-4.9,0.4c-0.8,0.1-1.6,0.2-2.3,0.3c-0.4,0.1-0.7,0.1-1,0.2c-0.1,0-0.2,0.1-0.3,0.1c0,0,0,0,0.2-0.1
			c0.1-0.1,0.5-0.3,0.6-1.2l-0.1,0.5l-1.5,4.2c-0.3,0.7-0.5,1.4-0.8,2.1l-0.9,2l-1.6-3.2l21.9,3.1l11,1.6l11,1.7
			c7.3,1.2,14.6,2.5,21.9,3.8c7.3,1.3,14.6,2.7,21.9,4c7.3,1.3,14.6,2.4,21.9,3.5c7.3,1,14.7,2,22,2.8l11,1.2l11,1.1l22.1,2.1
			c3.7,0.3,7.4,0.7,11,1l11,0.9l5.5,0.3l2.7,0.2l2.7,0.1l11.1,0.2c7.3,0,14.7,0,22.1-0.1c3.7,0,7.4-0.2,11.1-0.2
			c3.7,0,7.4-0.1,11.1-0.2l22.2-0.6l1.4,0c0.2,0,0.5,0,0.6,0c0.1,0,0.3,0,0.4,0c0.6-0.1,1.3-0.3,1.6-0.5c0.2-0.1,0.3-0.2,0.3-0.2
			c0,0,0,0,0,0c0,0,0-0.1,0-0.3c-0.1-0.4-0.3-0.9-0.4-1.4c-0.5-1.9-0.9-3.6-1.4-5.3c-0.5-1.6-1.2-3.2-2-4.2
			c-0.4-0.6-0.9-0.9-1.4-1.1l-0.2-0.1l-0.1,0l0,0c0,0-0.1,0,0.1,0l-0.7-0.1l-1.4-0.3c-0.9-0.2-1.8-0.3-2.7-0.5l-2.7-0.4
			c-3.6-0.5-7.3-1.1-10.9-1.6c-7.3-1-14.7-2-22-2.9l0,0c-0.2,0-0.3-0.2-0.3-0.3c0-0.2,0.1-0.3,0.3-0.3c3.8-0.1,7.4,0.1,11.2,0.2
			c3.7,0.1,7.4,0.3,11.1,0.5c3.7,0.2,7.4,0.5,11.1,0.8l2.9,0.3c1,0.1,1.9,0.2,2.8,0.3l1.4,0.2l0.7,0.1c0.3,0.1,0.1,0,0.2,0.1l0.1,0
			l0.2,0.1l0.5,0.2c1.2,0.5,2.3,1.2,3.1,2.1c1.6,1.7,2.4,3.7,3.2,5.5c0.7,1.8,1.2,3.8,1.8,5.4c0.1,0.2,0.1,0.3,0.2,0.6l0.2,0.6
			c0.2,0.7,0.5,1.5,0.4,2.4c-0.1,0.9-0.4,1.9-1,2.6c-0.5,0.7-1.1,1.2-1.7,1.6c-1.2,0.8-2.4,1.1-3.6,1.3c-0.3,0.1-0.6,0.1-0.9,0.1
			c-0.4,0-0.5,0-0.8,0.1l-1.4,0.1l-11,0.7c-3.7,0.2-7.4,0.4-11.1,0.6c-3.7,0.2-7.4,0.3-11.1,0.4c-3.7,0.1-7.4,0.2-11.1,0.2
			c-3.7,0-7.4,0.1-11.2,0l-11.2-0.2l-11.1-0.5l-2.8-0.1l-2.8-0.2l-5.6-0.5c-3.7-0.4-7.4-0.8-11.1-1.3c-3.7-0.5-7.4-1-11-1.5
			c-3.7-0.5-7.3-1.1-11-1.7l-11-1.8l-21.9-3.5c-7.3-1.1-14.6-2.2-22-3.2c-3.7-0.5-7.3-1-11-1.5c-3.7-0.4-7.3-0.9-11-1.3l-22.1-2.4
			c-7.4-0.8-14.7-1.7-22.1-2.7l-11-1.6l-11-1.7c-3.7-0.6-7.3-1.1-11-1.8l-5.5-0.9l-5.6-1c-1.2-0.2-2-1.4-1.8-2.6
			c0-0.2,0.1-0.4,0.2-0.6l0,0l0.9-1.9c0.3-0.6,0.6-1.3,0.9-1.9l1.7-3.9l-0.1,0.5c0.1-1,0.8-1.5,1-1.7c0.3-0.2,0.5-0.3,0.7-0.4
			c0.3-0.1,0.6-0.2,0.9-0.3c0.5-0.1,1-0.2,1.4-0.3c0.9-0.1,1.8-0.2,2.6-0.2c1.7-0.1,3.4-0.1,5.1-0.1c3.4,0,6.7,0.1,10,0.2
			c3.3,0.2,6.7,0.3,10,0.6l5,0.4l2.5,0.3c0.8,0.1,1.7,0.2,2.5,0.3c0.2,0,0.3,0.2,0.2,0.3C949.8,693.2,949.6,693.3,949.5,693.3
			L949.5,693.3z"/>
	</g>
	<g>
		<path class="st0" d="M1021.7,472.3c0,0,0.1,0.1,0.3,0.3c0.2,0.2,0.4,0.5,0.6,0.8c0.4,0.7,0.8,1.7,0.9,2.8c0,0.6,0.1,1.2-0.2,1.7
			c-0.2,0.6-0.8,1.2-1.3,1.8c-0.5,0.6-0.9,1.3-1,2c-0.1,0.7,0.1,1.5,0.4,2.2c0.3,0.8,0.6,1.5,0.7,2.3c0.1,0.7,0.2,1.4,0.2,2.1
			c0.1,1.4-0.4,2.6-0.9,3.6c-0.3,0.5-0.6,1-0.9,1.4c-0.3,0.4-0.6,0.7-0.9,1c-0.3,0.3-0.5,0.5-0.7,0.6c-0.2,0.1-0.3,0.2-0.3,0.2
			c-0.2,0.1-0.5,0.1-0.6-0.1c0,0-0.1-0.1-0.2-0.3c-0.1-0.2-0.3-0.5-0.5-0.8c-0.2-0.3-0.4-0.8-0.6-1.2c-0.2-0.5-0.4-1-0.5-1.6
			c-0.2-1.1-0.4-2.4,0.1-3.7c0.2-0.7,0.5-1.3,0.7-2c0.3-0.7,0.8-1.3,1.3-2c0.5-0.7,0.9-1.3,1-2c0.1-0.7,0-1.4-0.4-2.2
			c-0.3-0.7-0.7-1.4-0.8-2.1c-0.1-0.6,0.1-1.2,0.3-1.7c0.4-1,1-1.9,1.6-2.4c0.3-0.3,0.6-0.5,0.8-0.6c0.2-0.1,0.3-0.2,0.3-0.2
			C1021.3,472.1,1021.6,472.2,1021.7,472.3z"/>
	</g>
	<g>
		<path class="st0" d="M1029,472.3c0,0,0,0.1,0.1,0.3c0.1,0.2,0.2,0.4,0.3,0.8c0.3,0.6,0.6,1.6,0.8,2.7c0.2,1.1,0.4,2.3,0.4,3.7
			c0,1.3,0,2.7-0.2,4.1c-0.4,2.8-1.3,5.4-2.3,7.4c-0.5,1-1.1,1.8-1.5,2.3c-0.2,0.3-0.4,0.5-0.5,0.6c-0.1,0.1-0.2,0.2-0.2,0.2
			s0-0.1-0.1-0.3c-0.1-0.2-0.2-0.4-0.3-0.8c-0.3-0.7-0.6-1.6-0.8-2.7c-0.5-2.2-0.6-5-0.2-7.7c0.2-1.4,0.5-2.7,0.9-4
			c0.4-1.3,0.9-2.4,1.4-3.4c0.5-1,1.1-1.8,1.5-2.3c0.2-0.3,0.4-0.5,0.5-0.6C1028.9,472.4,1029,472.3,1029,472.3z"/>
	</g>
	<g>
		<path class="st0" d="M1037.5,471.1c0,0,0,0.1,0.1,0.3c0.1,0.2,0.2,0.4,0.3,0.8c0.2,0.7,0.5,1.6,0.7,2.7c0.2,1.1,0.3,2.3,0.3,3.7
			c0,1.3-0.2,2.7-0.4,4.1c-0.5,2.7-1.5,5.3-2.6,7.2c-0.6,0.9-1.1,1.7-1.6,2.2c-0.2,0.3-0.4,0.5-0.5,0.6c-0.1,0.1-0.2,0.2-0.2,0.2
			s0-0.1-0.1-0.3c-0.1-0.2-0.2-0.4-0.3-0.8c-0.2-0.7-0.5-1.6-0.7-2.7c-0.4-2.2-0.4-5,0.2-7.7c0.3-1.4,0.6-2.7,1.1-3.9
			c0.5-1.2,1-2.4,1.6-3.3c0.6-0.9,1.1-1.7,1.6-2.3c0.2-0.3,0.4-0.5,0.5-0.6C1037.4,471.1,1037.5,471.1,1037.5,471.1z"/>
	</g>
	<path class="st1" d="M1045.4,500.4l2.9-13.7c3.1-3.5,6.4,6.9-1.4,6.8"/>
	<g>
		<path class="st0" d="M1060.4,477.6c0,0,0,0.1,0.1,0.2c0.1,0.1,0.2,0.3,0.3,0.6c0.3,0.5,0.6,1.2,0.8,2c0.2,0.8,0.4,1.7,0.5,2.7
			c0.1,1,0,2-0.2,3c-0.3,2-1.2,3.9-2.2,5.3c-0.5,0.7-1,1.2-1.4,1.6c-0.2,0.2-0.4,0.3-0.5,0.4c-0.1,0.1-0.2,0.1-0.2,0.1
			s0-0.1-0.1-0.2c-0.1-0.1-0.2-0.3-0.3-0.6c-0.3-0.5-0.6-1.2-0.8-2c-0.5-1.6-0.7-3.7-0.3-5.7c0.2-1,0.5-2,0.8-2.9
			c0.4-0.9,0.9-1.7,1.3-2.4c0.5-0.7,1-1.2,1.4-1.6c0.2-0.2,0.4-0.3,0.5-0.4C1060.3,477.6,1060.4,477.6,1060.4,477.6z"/>
	</g>
	<g>
		<path class="st0" d="M1065.3,477.6c0,0,0,0.1,0.1,0.2c0.1,0.1,0.2,0.3,0.3,0.6c0.3,0.5,0.6,1.2,0.8,2c0.2,0.8,0.4,1.7,0.4,2.7
			c0,1,0,2-0.2,3c-0.3,2-1.2,3.9-2.2,5.3c-0.5,0.7-1,1.2-1.5,1.6c-0.2,0.2-0.4,0.3-0.5,0.4c-0.1,0.1-0.2,0.1-0.2,0.1s0-0.1-0.1-0.2
			c-0.1-0.1-0.2-0.3-0.3-0.6c-0.3-0.5-0.6-1.2-0.8-2c-0.5-1.6-0.6-3.7-0.2-5.7c0.2-1,0.5-2,0.9-2.9c0.4-0.9,0.9-1.7,1.4-2.4
			c0.5-0.7,1-1.2,1.5-1.6c0.2-0.2,0.4-0.3,0.5-0.4C1065.2,477.6,1065.3,477.6,1065.3,477.6z"/>
	</g>
	<line class="st1" x1="1070.2" y1="484.5" x2="1075.2" y2="483.8"/>
	<g>
		<path class="st0" d="M1068.1,488.2c0,0,0,0,0.1-0.1c0.1-0.1,0.2-0.2,0.4-0.3c0.2-0.1,0.3-0.3,0.6-0.4c0.3-0.1,0.6-0.2,0.9-0.1
			c0.3,0,0.7,0.1,1,0.2c0.4,0.2,0.7,0.4,1.1,0.8c0.3,0.3,0.6,0.9,0.8,1.4c0.2,0.6,0.2,1.2,0.1,1.7c-0.1,0.3-0.2,0.6-0.3,0.8
			c-0.1,0.2-0.3,0.5-0.4,0.7c-0.3,0.4-0.7,0.8-1.1,1c-0.4,0.2-0.8,0.3-1.2,0.4c-0.4,0-0.7,0-1-0.1c-0.3-0.1-0.6-0.3-0.8-0.4
			c-0.2-0.1-0.4-0.3-0.5-0.5c-0.1-0.1-0.2-0.3-0.3-0.4c-0.1-0.1-0.1-0.2-0.1-0.2s0-0.1,0.1-0.2c0-0.1,0.1-0.3,0.2-0.5
			c0.1-0.2,0.1-0.4,0.2-0.6c0.1-0.2,0.1-0.4,0.1-0.6c0-0.2,0-0.4,0-0.6c-0.1-0.2-0.1-0.3-0.2-0.3c-0.1-0.1-0.2-0.1-0.3,0
			c-0.1,0-0.1,0.1-0.1,0.1c-0.1,0-0.1,0.1-0.1,0.2c0,0.1,0,0.3,0.1,0.4c0.1,0.1,0.2,0.2,0.3,0.2c0.1,0,0.2-0.1,0.4-0.2
			c0.1-0.1,0.2-0.3,0.2-0.5c0.1-0.2,0.1-0.4,0.1-0.6c0-0.2-0.1-0.5-0.1-0.6c0-0.2,0-0.4-0.1-0.5
			C1068.1,488.3,1068.1,488.2,1068.1,488.2z"/>
	</g>
	<g>
		<path class="st0" d="M963.1,486c-0.3-0.3-0.6-0.6-0.7-1c-0.1-0.2-0.2-0.4-0.2-0.7c-0.1-0.2-0.1-0.5-0.1-0.7c0-0.2,0-0.5,0-0.7
			c0-0.3,0.1-0.5,0.2-0.8c0.1-0.5,0.4-1,0.7-1.5c0.3-0.4,0.8-0.8,1.3-1.2c0.5-0.3,1.1-0.5,1.7-0.7c0.6-0.1,1.2-0.1,1.9,0
			c0.6,0.1,1.3,0.4,1.9,0.9c0.6,0.4,1,1.1,1.2,1.7c0.2,0.7,0.3,1.3,0.2,1.9c-0.1,0.6-0.3,1-0.5,1.4c-0.2,0.4-0.4,0.8-0.6,1.1l-0.6,1
			c-0.2,0.3-0.4,0.6-0.5,0.9c-0.4,0.6-0.7,1.3-0.9,1.9l-0.8-2.1c0.4,0,0.9-0.1,1.4-0.1c0.5,0,1,0.1,1.6,0.2c0.3,0.1,0.6,0.2,0.9,0.4
			c0.3,0.2,0.6,0.4,0.8,0.6c0.2,0.3,0.5,0.6,0.7,0.9c0.2,0.3,0.4,0.7,0.5,1.1c0.1,0.4,0.2,0.8,0.2,1.1c0,0.4,0,0.7,0,1
			c-0.1,0.7-0.2,1.3-0.4,1.8c-0.4,1.1-1,2-1.8,2.8c-0.4,0.4-0.8,0.7-1.3,1c-0.5,0.3-1,0.5-1.6,0.7c-0.3,0.1-0.6,0.2-0.9,0.2
			c-0.3,0.1-0.6,0.1-1,0.1c-0.7,0-1.5-0.1-2.2-0.4c-0.4-0.1-0.7-0.4-1-0.6c-0.3-0.3-0.5-0.6-0.7-0.8c-0.2-0.3-0.3-0.6-0.4-0.9
			c-0.1-0.3-0.1-0.6-0.2-0.9c0-0.3,0-0.5,0-0.8c0-0.3,0.1-0.5,0.1-0.7c0.1-0.5,0.3-0.9,0.6-1.3c0.1-0.2,0.3-0.2,0.5-0.1
			c0,0,0.1,0,0.1,0.1l0,0c0.3,0.3,0.6,0.7,0.9,0.9c0.3,0.3,0.5,0.5,0.8,0.6c0.1,0.1,0.3,0.1,0.4,0.1c0.1,0,0.2,0,0.3,0
			c0.1-0.1,0.2-0.2,0.1-0.3c0-0.1,0-0.2,0-0.3c0,0,0.1-0.1,0.1-0.1l0.1-0.2c0.2-0.3,0.5-0.6,0.8-0.9c0.1-0.1,0.3-0.3,0.4-0.4
			c0.1-0.1,0.3-0.3,0.4-0.4c0.1-0.1,0.2-0.2,0.3-0.3c0,0,0.1-0.1,0.1-0.1c0,0,0.1,0,0.1,0c0.1,0,0.1,0,0.2,0c0,0,0-0.1,0.1-0.2
			c0-0.1,0-0.2,0-0.3c-0.1-0.2-0.2-0.4-0.5-0.7c-0.2-0.2-0.5-0.4-0.8-0.6l-0.8-0.6c-0.4-0.3-0.5-0.9-0.2-1.3
			c0.1-0.1,0.2-0.2,0.2-0.2c0.3-0.2,0.5-0.4,0.8-0.6c0.2-0.2,0.4-0.5,0.6-0.7c0.2-0.3,0.3-0.5,0.4-0.8c0.1-0.3,0.2-0.6,0.2-0.9
			c0-0.3,0-0.6-0.2-0.8c-0.1-0.2-0.3-0.4-0.4-0.5c-0.1-0.1-0.3-0.1-0.4,0c-0.1,0.1-0.1,0.2-0.1,0.3c0,0.1,0.1,0.1,0,0.1
			c0,0,0,0-0.1-0.1c-0.1-0.1-0.3-0.1-0.6-0.1c-0.3,0-0.6,0.1-1,0.4c-0.2,0.1-0.4,0.4-0.6,0.6c-0.2,0.2-0.4,0.6-0.7,0.9l0,0
			C963.5,486.1,963.3,486.2,963.1,486C963.1,486,963.1,486,963.1,486z"/>
	</g>
	<g>
		<path class="st0" d="M1071.4,604.3c-0.2,0.6-0.4,1.3-0.6,1.9c-0.2,0.6-0.4,1.3-0.7,1.9c-0.5,1.2-1,2.4-1.5,3.6
			c-1.1,2.4-2.2,4.7-3.5,7l-0.4-3.1c1.8,1.7,2.8,4,3.2,6c0.5,2.1,0.5,4.1,0.3,6c-0.2,1.9-0.6,3.8-1,5.6c-0.4,1.8-0.9,3.6-1.3,5.4
			c-0.8,3.6-1.3,7.1-1.6,10.8c-0.1,1.8-0.2,3.6-0.3,5.4c-0.1,1.8-0.2,3.6-0.3,5.4l-0.5,5.3c-0.1,1.8-0.2,3.5-0.3,5.3l-0.2,5.2
			c-0.1,1.7-0.1,3.4-0.1,5.1c0.1,3.4,0.3,6.7,1.2,9.9c0.2,0.8,0.5,1.6,0.8,2.3c0.3,0.8,0.7,1.5,1.1,2.2c0.8,1.5,2,2.8,3.3,4.1
			c0.1,0.1,0.1,0.3,0,0.4c-0.1,0.1-0.2,0.1-0.3,0.1c-1.8-0.5-3.6-1.5-5.1-2.8c-0.8-0.6-1.4-1.4-2.1-2.1c-0.6-0.8-1.2-1.6-1.7-2.5
			c-1-1.7-1.7-3.6-2.3-5.5c-0.5-1.9-0.9-3.8-1.1-5.7c-0.2-1.9-0.3-3.8-0.2-5.7c0-1.9,0.2-3.8,0.4-5.6c0.2-1.8,0.5-3.7,0.9-5.5
			c0.3-1.8,0.7-3.6,1.1-5.4c0.4-1.8,0.9-3.5,1.5-5.3c0.5-1.7,1.1-3.5,1.6-5.2c1-3.5,1.8-7,2-10.6c0.1-1.8,0.1-3.6,0-5.4
			c-0.1-1.8-0.3-3.6-0.5-5.3c-0.2-1.7-0.4-3.3-0.7-4.8c-0.3-1.5-0.8-2.7-1.5-3.6l-0.3-0.3c-0.7-0.8-0.7-2-0.1-2.8
			c1.5-2.1,3-4.2,4.7-6.2c0.8-1,1.7-2,2.6-3c0.4-0.5,0.9-1,1.4-1.4c0.5-0.5,0.9-0.9,1.4-1.4c0.1-0.1,0.3-0.1,0.4,0
			C1071.4,604.1,1071.4,604.2,1071.4,604.3z"/>
	</g>
	<g>
		<path class="st0" d="M599.4,603.3c-0.2,0.7-0.5,1.4-0.8,2.1c-0.3,0.7-0.5,1.3-0.8,2c-0.6,1.3-1.2,2.6-1.8,3.9
			c-1.3,2.6-2.6,5.1-4.1,7.5l-0.3-3.2c1,0.9,1.7,2,2.2,3.1c0.5,1.1,0.8,2.2,1,3.3c0.4,2.2,0.4,4.3,0.2,6.3c-0.2,2-0.6,4-1.1,5.9
			c-0.4,1.9-0.9,3.8-1.3,5.7c-0.8,3.8-1.3,7.6-1.5,11.5c-0.3,3.9-0.3,7.7-0.6,11.6l-0.5,5.7c-0.1,1.9-0.2,3.8-0.3,5.7l-0.2,5.6
			c-0.1,1.9-0.1,3.7-0.1,5.5c0,3.6,0.2,7.3,1.1,10.7c0.2,0.9,0.5,1.7,0.8,2.5c0.3,0.8,0.7,1.6,1.1,2.4c0.9,1.6,2,3,3.4,4.3
			c0.1,0.1,0.1,0.3,0,0.4c-0.1,0.1-0.2,0.1-0.3,0.1c-1.9-0.6-3.7-1.7-5.3-3.1c-0.8-0.7-1.5-1.5-2.1-2.4c-0.6-0.9-1.2-1.8-1.6-2.7
			c-1-1.9-1.6-3.9-2.2-5.9c-0.5-2-0.8-4-1-6.1c-0.2-2-0.3-4-0.2-6c0-2,0.2-4,0.4-5.9c0.2-2,0.5-3.9,0.9-5.8c0.3-1.9,0.7-3.8,1.1-5.7
			c0.8-3.8,2.1-7.5,3.1-11.2c1-3.7,1.8-7.5,2.1-11.3c0.3-3.8,0-7.7-0.4-11.4c-0.2-1.8-0.4-3.6-0.7-5.2c-0.3-1.6-0.8-3-1.5-3.9
			l-0.2-0.3c-0.7-0.9-0.7-2.1-0.1-2.9c1.7-2.3,3.4-4.6,5.3-6.7c0.9-1.1,1.9-2.2,2.9-3.2c0.5-0.5,1-1.1,1.5-1.6c0.5-0.5,1-1,1.6-1.5
			c0.1-0.1,0.3-0.1,0.4,0C599.4,603.1,599.4,603.2,599.4,603.3z"/>
	</g>
	<g>
		<path class="st0" d="M586,605.7c-0.5,1.4-1,2.8-1.5,4.1c-0.5,1.3-1.2,2.6-1.8,3.9l-0.2-2.4c1,0.8,1.7,1.9,2.3,2.9
			c0.5,1.1,0.9,2.2,1.2,3.2c0.6,2.2,0.7,4.3,0.8,6.4c0,2.1-0.2,4.1-0.5,6.1c-0.4,2-0.9,3.9-1.4,5.9c-0.5,1.9-1.1,3.9-1.5,5.8
			c-0.4,1.9-0.7,3.9-0.9,5.8c-0.5,3.9-0.5,7.9-0.5,11.8c0,2-0.1,3.9-0.2,5.9c-0.1,1.9-0.2,3.9-0.2,5.8c-0.1,1.9-0.1,3.8-0.1,5.8
			c0,1.9,0,3.8,0,5.7c0,1.9,0.1,3.7,0.3,5.6c0.2,1.8,0.4,3.6,0.9,5.4c0.4,1.8,1,3.5,1.9,5.1c0.9,1.6,2,3.1,3.4,4.5l0,0
			c0.1,0.1,0.1,0.3,0,0.4c-0.1,0.1-0.2,0.1-0.3,0.1c-2-0.6-3.9-1.7-5.4-3.2c-1.6-1.5-2.8-3.3-3.8-5.2c-0.9-1.9-1.7-4-2.2-6
			c-0.5-2.1-0.8-4.1-1-6.2c-0.2-2.1-0.2-4.1-0.1-6.2c0.1-2,0.3-4.1,0.5-6.1c0.3-2,0.5-4,0.9-6c0.3-2,0.8-3.9,1.2-5.9
			c1-3.9,2.2-7.7,2.9-11.5c0.4-1.9,0.7-3.9,0.8-5.8c0.2-2,0.2-3.9,0.1-5.9l-0.2-5.9c0-1.9,0-3.8,0-5.7c0-1.9,0-3.7-0.2-5.4
			c-0.2-1.7-0.6-3.3-1.4-4.4l-0.4-0.5c-0.4-0.6-0.3-1.3,0.1-1.8c0.9-1.1,1.9-2.2,2.9-3.2c1-1.1,2-2.1,3.1-3.1c0.1-0.1,0.3-0.1,0.4,0
			C586,605.5,586.1,605.6,586,605.7z"/>
	</g>
	<g>
		<path class="st0" d="M1062.3,605.4c-0.2,0.7-0.4,1.3-0.6,1.9c-0.2,0.6-0.4,1.3-0.7,1.9c-0.5,1.2-1,2.4-1.5,3.6
			c-1.1,2.4-2.2,4.7-3.5,7l-0.4-3.1c1.7,1.6,2.7,3.7,3.2,5.6c0.5,1.9,0.6,3.9,0.5,5.7c-0.1,1.8-0.4,3.6-0.7,5.4
			c-0.3,1.8-0.7,3.5-1,5.2c-0.5,3.4-0.9,6.9-0.9,10.4c-0.1,3.5,0,7-0.2,10.4l-0.3,5.1l-0.3,5.1l-0.2,5c-0.1,1.7-0.2,3.3-0.2,5
			c-0.1,3.3-0.1,6.5,0.5,9.6c0.2,0.8,0.3,1.5,0.6,2.3c0.2,0.8,0.5,1.5,0.9,2.2c0.7,1.4,1.7,2.7,3,3.9l0,0c0.1,0.1,0.1,0.3,0,0.4
			c-0.1,0.1-0.2,0.1-0.3,0.1c-1.8-0.4-3.5-1.4-4.9-2.8c-0.7-0.7-1.3-1.4-1.9-2.2c-0.5-0.8-1-1.7-1.4-2.5c-0.8-1.7-1.4-3.5-1.8-5.4
			c-0.4-1.8-0.7-3.6-0.8-5.5c-0.1-1.8-0.2-3.6-0.1-5.4c0.1-1.8,0.2-3.6,0.4-5.3c0.2-1.8,0.5-3.5,0.8-5.2c0.3-1.7,0.6-3.4,1-5.2
			c0.7-3.4,1.8-6.8,2.7-10.1c0.9-3.4,1.4-6.8,1.6-10.2c0.1-3.4-0.4-6.9-1-10.1c-0.3-1.6-0.6-3.1-1-4.5c-0.4-1.4-0.9-2.6-1.6-3.4
			l-0.2-0.3c-0.7-0.8-0.7-2-0.1-2.9c1.5-2.1,3-4.2,4.7-6.3c0.8-1,1.7-2,2.6-3c0.4-0.5,0.9-1,1.4-1.4c0.5-0.5,0.9-0.9,1.4-1.4
			c0.1-0.1,0.3-0.1,0.4,0C1062.3,605.2,1062.3,605.3,1062.3,605.4z"/>
	</g>
	<g>
		<path class="st0" d="M1046.9,607.1c-0.1,0.5-0.2,1.1-0.3,1.6c-0.1,0.5-0.2,1.1-0.3,1.6c-0.2,1.1-0.5,2.1-0.8,3.1
			c-0.6,2.1-1.3,4.1-2,6.1l-0.5-2.7c1.7,1.5,2.6,3.4,3.2,5.3c0.6,1.9,0.8,3.7,0.7,5.5c0,1.8-0.4,3.5-0.7,5.2l-1.1,5
			c-0.7,3.3-1.1,6.5-1.3,9.9c-0.1,1.7-0.1,3.3-0.2,5c0,1.7-0.1,3.3-0.2,5c-0.1,1.6-0.2,3.3-0.4,4.9c-0.1,1.6-0.2,3.2-0.3,4.9
			l-0.3,4.8c-0.1,1.6-0.2,3.2-0.2,4.7c-0.1,3.1-0.1,6.2,0.5,9.1c0.1,0.7,0.3,1.4,0.6,2.1c0.2,0.7,0.5,1.4,0.8,2.1
			c0.7,1.3,1.6,2.6,2.8,3.7l0,0c0.1,0.1,0.1,0.3,0,0.4c-0.1,0.1-0.2,0.1-0.3,0.1c-1.7-0.4-3.4-1.3-4.8-2.5c-0.7-0.6-1.3-1.3-1.9-2.1
			c-0.6-0.8-1-1.6-1.4-2.4c-0.8-1.7-1.4-3.4-1.8-5.2c-0.4-1.7-0.6-3.5-0.8-5.3c-0.1-1.7-0.1-3.5,0-5.2c0.1-1.7,0.3-3.4,0.5-5.1
			c0.3-1.7,0.6-3.3,0.9-5c0.3-1.6,0.6-3.3,1.1-4.9c0.4-1.6,0.9-3.2,1.4-4.8c0.5-1.6,1-3.2,1.4-4.8c0.9-3.2,1.4-6.4,1.4-9.7
			c0-3.3-0.5-6.6-1-9.6c-0.2-1.5-0.5-3-0.8-4.3c-0.2-0.6-0.4-1.3-0.6-1.8c-0.3-0.5-0.5-1-0.9-1.5l-0.3-0.4c-0.5-0.7-0.6-1.6-0.2-2.3
			c1-1.9,2.1-3.7,3.3-5.5c0.6-0.9,1.2-1.8,1.9-2.6c0.3-0.4,0.7-0.9,1-1.3c0.3-0.4,0.7-0.8,1.1-1.3c0.1-0.1,0.3-0.1,0.4,0
			C1046.9,606.9,1047,607,1046.9,607.1z"/>
	</g>
	<g>
		<path class="st0" d="M677.2,653.6c5.1-0.7,10.3-1.2,15.4-1.6c5.1-0.5,10.3-0.8,15.4-1.2c5.1-0.3,10.3-0.6,15.4-0.8l3.9-0.2l0.5,0
			l0.2,0l0.4,0l1,0l1.9,0c2.6,0,5.1,0.1,7.7,0.2l7.7,0.4c2.6,0.2,5.1,0.3,7.7,0.5c5.1,0.4,10.3,0.8,15.4,1.1
			c5.1,0.3,10.3,0.6,15.4,0.7l7.7,0.1l7.7,0c5.2-0.1,10.3-0.2,15.5-0.4c5.2-0.1,10.3-0.3,15.5-0.4c5.2-0.1,10.3-0.1,15.5-0.1l15.5,0
			c5.2,0,10.3,0,15.5,0.2c5.1,0.1,10.3,0.3,15.4,0.5l15.4,0.7c5.1,0.3,10.3,0.6,15.4,0.9l-0.2,0c2.1,0,4.3-0.1,6.4-0.1l6.4,0
			c4.3,0,8.6,0,12.9,0.2c0.2,0,0.3,0.1,0.3,0.3c0,0.1-0.1,0.3-0.3,0.3c-4.2,0.7-8.5,1.2-12.7,1.8l-6.4,0.8c-2.1,0.3-4.2,0.5-6.4,0.7
			l-0.2,0c-5.2,0.2-10.3,0.2-15.5,0.3l-15.5,0.1c-5.2,0-10.3,0-15.5-0.1c-5.2-0.1-10.3-0.2-15.4-0.4l-15.4-0.6
			c-5.1-0.2-10.3-0.4-15.4-0.7c-5.1-0.3-10.3-0.6-15.4-1c-5.1-0.3-10.3-0.7-15.4-0.9l-7.7-0.3l-7.7-0.2c-5.1-0.1-10.3,0-15.5,0.1
			c-5.2,0.1-10.3,0.4-15.5,0.5c-2.6,0.1-5.2,0.1-7.7,0.2l-7.7,0.1c-2.6,0-5.2,0-7.7-0.1l-1.9-0.1l-1,0l-0.8,0l-3.9,0.1
			c-5.1,0.1-10.3,0.1-15.5,0.1c-5.2-0.1-10.3-0.1-15.5-0.3c-5.2-0.2-10.3-0.4-15.5-0.8c-0.2,0-0.3-0.2-0.3-0.3
			C677,653.7,677.1,653.6,677.2,653.6z"/>
	</g>
	<line class="st2" x1="677.2" y1="459.3" x2="952.1" y2="477.4"/>
	<g>
		<path class="st0" d="M506.5,451.7l-13.2-0.3l-13.2-0.4l-26.3-0.8l-26.3-1l-26.3-1.1l-52.7-2.3l-6.6-0.3l-3.3-0.2l-0.8,0l-0.1,0
			c-0.1,0,0.2,0,0,0l-0.2,0l-0.4,0l-1.6,0l-6.6,0.1l-6.5,0.2c-4.3,0.1-8.7,0.3-13.1,0.6c-4.4,0.2-8.8,0.4-13.1,0.6
			c-8.8,0.4-17.5,1-26.3,1.5c-8.7,0.6-17.5,1.2-26.2,1.9c-2.2,0.1-4.3,0.4-6.5,0.7l-3.2,0.4l-0.8,0.1l-0.1,0c0,0,0.1,0,0,0l-0.2,0
			l-0.4,0.1l-1.6,0.3l-12.9,2.6l-25.8,5.3l-25.8,5.3l-25.8,5.4l-25.8,5.5l-25.7,5.6l0.7-0.9l-0.4,19.8l-0.2,9.9l-0.1,9.9l-0.3,39.7
			l-0.1,39.8l-0.2,39.7l-2.2-2.5l16.3,1.4l16.5,1.2l16.5,1.2l16.5,1.1l8.3,0.5l4.1,0.3l2.1,0.1l1,0.1l0.4,0l0.5,0l16.5,0.5l16.5,0.5
			l16.5,0.6c0.1,0,0.2,0,0.3,0l0,0c5.9,0.8,11.8,1.5,17.7,2.2l4.4,0.5l4.4,0.4l8.9,0.9l8.9,0.9l8.9,0.6l8.9,0.6l4.5,0.3l1.1,0.1
			l0.3,0c0,0,0.1,0,0.1,0l0.1,0l0.6,0l2.2,0.1l17.9,0.6c6,0.3,11.9,0.3,17.9,0.4l17.9,0.3l17.9,0.2l17.9,0.1l17.9,0.1
			c12,0.1,23.9,0.2,35.9,0.2l71.8,0.3c0.2,0,0.3,0.1,0.3,0.3c0,0.2-0.1,0.3-0.3,0.3l-17.9,0.7l-17.9,0.6l-17.9,0.6l-18,0.5
			c-12,0.3-23.9,0.6-35.9,0.8c-12,0.3-23.9,0.4-35.9,0.5l-18,0.2l-18,0c-6,0-12,0.1-18-0.1l-17.9-0.4l-2.2-0.1l-0.6,0l-0.3,0l-0.3,0
			l-1.1-0.1l-4.5-0.3l-9-0.6l-9-0.6l-9-0.9l-9-0.9l-4.5-0.5l-4.5-0.6c-6-0.7-11.9-1.4-17.9-2.3l0.3,0l-16.5-0.7l-16.5-0.7l-16.5-0.7
			l-0.5,0l-0.6,0l-1-0.1l-2.1-0.2l-4.1-0.3l-8.3-0.6l-16.5-1.3l-16.5-1.3l-8.3-0.7c-2.8-0.2-5.5-0.4-8.3-0.7l-16.6-1.7
			c-1.3-0.1-2.2-1.2-2.2-2.5l0,0c0.3-13.3,0.5-26.5,0.9-39.8l1.1-39.7l1.2-39.7l0.3-9.9l0.3-10l0.6-19.9c0-0.4,0.3-0.8,0.7-0.8l0,0
			l25.8-5.6l25.7-5.7l25.7-5.9l25.7-6l25.7-6l12.8-3l1.6-0.4l0.4-0.1l0.2,0l0.2,0l0.1,0l0.8-0.1l3.3-0.5c2.2-0.3,4.4-0.7,6.6-0.9
			l6.6-0.7l3.3-0.4l3.3-0.3l13.2-1.1l13.2-0.9c4.4-0.3,8.8-0.5,13.2-0.8c4.4-0.3,8.8-0.5,13.2-0.7c4.4-0.2,8.8-0.4,13.2-0.5l6.6-0.2
			l6.6,0l1.6,0h0.4h0.2l0.3,0l0.8,0l3.3,0.2l6.6,0.4l52.6,3.2l26.3,1.7l26.3,1.8l26.3,1.9l13.1,1l13.1,1c0.2,0,0.3,0.2,0.3,0.3
			C506.8,451.5,506.7,451.7,506.5,451.7z"/>
	</g>
	<g>
		<path class="st0" d="M506.2,492.3c0,0-1.9,0.1-5.5,0.3c-3.6,0.2-8.8,0.5-15.5,0.6c-3.3,0-7,0.1-11.1,0.1c-4,0.1-8.4,0-13,0
			c-9.3,0-19.8-0.2-31.2-0.4c-11.4-0.3-23.8-0.5-36.8-1c-13.1-0.5-26.8-1.2-41.1-1.9c-3.6-0.2-7.2-0.4-10.8-0.5
			c-3.6-0.1-7.3-0.2-10.9-0.3c-3.7-0.1-7.4-0.1-11.1-0.2c-3.7,0-7.4-0.1-11.2-0.1c-7.5,0.1-15,0.3-22.6,0.6
			c-3.8,0.2-7.6,0.3-11.4,0.5c-3.8,0.2-7.6,0.5-11.4,0.7c-3.8,0.3-7.6,0.5-11.4,0.8c-3.8,0.4-7.5,0.7-11.3,1.1
			c-3.8,0.3-7.5,0.7-11.2,1.1c-3.7,0.4-7.5,0.7-11.2,1.2c-3.7,0.5-7.4,0.9-11.1,1.4c-3.7,0.5-7.3,1-10.9,1.5
			c-7.2,1.1-14.3,2.3-21.2,3.8c-1.7,0.4-3.3,0.8-5,1.2c-1.7,0.3-1.8,0.5-2.6,1.5c-0.7,1-1.3,2.4-1.7,3.8c-0.5,1.5-0.8,3.1-1.1,4.7
			c-0.6,3.2-0.9,6.5-1.1,9.8c-0.3,3.3-0.4,6.5-0.5,9.8c-0.2,6.5-0.2,12.8-0.2,18.9c0,6.1,0,12.1,0.1,17.8
			c0.1,11.4,0.2,21.9,0.1,31.2c0,4.6-0.1,9-0.2,13c-0.1,4-0.2,7.7-0.3,11c-0.3,6.7-0.5,11.9-0.8,15.5c-0.3,3.6-0.4,5.5-0.4,5.5
			c0,0.2-0.2,0.3-0.3,0.3c-0.2,0-0.3-0.1-0.3-0.3c0,0,0-1.9-0.1-5.5c-0.1-3.6-0.2-8.8-0.5-15.4c-0.1-3.3-0.3-7-0.5-11
			c-0.2-4-0.4-8.3-0.6-13c-0.4-9.3-0.9-19.7-1.5-31.1c-0.4-11.4-1-23.8-0.7-37c0.1-6.6,0.4-13.4,1.6-20.5c0.3-1.8,0.7-3.6,1.3-5.4
			c0.6-1.8,1.3-3.7,2.6-5.6c0.7-0.9,1.5-1.9,2.8-2.7c0.4-0.2,0.8-0.4,1.2-0.6l0.6-0.2c0.5-0.2,0.2-0.1,0.4-0.1l0.2,0l0.3-0.1
			l0.7-0.2c1.8-0.4,3.6-0.9,5.4-1.2c7.1-1.3,14.3-2.5,21.7-3.4c3.7-0.4,7.3-1,11.1-1.3c3.7-0.4,7.4-0.7,11.2-1.1
			c15-1.3,30.3-2.1,45.5-2.2c3.8-0.1,7.6-0.2,11.4-0.2c3.8,0,7.6,0,11.4,0.1c3.8,0,7.6,0,11.4,0c3.8,0,7.5-0.1,11.3-0.1
			c3.7,0,7.5,0,11.2,0c3.7,0,7.4,0,11.1-0.1c3.7-0.1,7.3-0.1,11-0.2c3.6-0.1,7.2-0.1,10.8-0.1c7.1-0.1,14.2-0.2,21-0.3
			c6.9-0.1,13.6,0,20.1,0.1c6.5,0.1,12.9,0.3,19.1,0.5c6.2,0.2,12.1,0.5,17.8,0.7c11.4,0.5,21.9,1,31.1,1.5c9.2,0.5,17.3,1,24,1.4
			c6.6,0.5,11.9,0.6,15.5,0.8c3.6,0.2,5.5,0.3,5.5,0.3c0.2,0,0.3,0.1,0.3,0.3C506.5,492.2,506.3,492.3,506.2,492.3z"/>
	</g>
	<g>
		<path class="st0" d="M188.8,646.6l-0.4-13.7c-0.1-4.5-0.2-9.1-0.3-13.6c-0.1-4.6-0.2-9.1-0.2-13.7c-0.1-4.6-0.1-9.1-0.1-13.7
			c0-4.6,0-9.1,0-13.7l0.1-13.7c0-4.6,0.2-9.1,0.3-13.7c0.1-2.3,0.2-4.6,0.3-6.8l0.1-1.7l0.1-1.8c0.1-1.2,0.2-2.5,0.3-3.7
			c0.1-1.1,1-1.9,2-1.9l0.2,0l9.9-0.5c3.3-0.2,6.6-0.2,9.9-0.4c6.6-0.2,13.1-0.5,19.7-0.6l9.8-0.3l9.8-0.4
			c6.6-0.2,13.1-0.5,19.7-0.8c6.5-0.3,13.1-0.8,19.7-1l19.7-0.7l9.8-0.3c3.3-0.1,6.6-0.2,9.8-0.3l19.7-0.4
			c6.6-0.2,13.1-0.1,19.7-0.1l9.8,0l9.8,0.1l9.8,0.1l9.8,0.2l9.8,0.2c3.3,0.1,6.6,0.2,9.8,0.3c6.6,0.3,13.1,0.5,19.7,0.8
			c6.6,0.3,13.1,0.6,19.7,1c6.6,0.3,13.1,0.8,19.6,1.2c6.5,0.5,13.1,1,19.6,1.6c0.2,0,0.3,0.2,0.3,0.3c0,0.2-0.1,0.3-0.3,0.3
			c-6.6,0.2-13.1,0.2-19.7,0.4l-19.7,0.2c-6.6,0.1-13.1,0.1-19.7,0.1c-6.6,0-13.1,0-19.7-0.1l-19.6-0.1l-9.8,0l-9.8-0.1l-9.8-0.1
			l-9.8-0.2l-9.8-0.2c-3.3-0.1-6.6-0.1-9.8-0.1l-19.7-0.1c-3.3,0-6.6-0.1-9.8-0.1l-9.8-0.2l-19.7-0.5l-4.9-0.1c-1.6,0-3.3,0-4.9,0
			c-3.3,0-6.6,0.1-9.8,0.1c-6.6,0.1-13.1,0.3-19.6,0.5l-9.8,0.6l-9.8,0.7c-6.5,0.5-13.1,1.1-19.6,1.8c-3.3,0.4-6.5,0.7-9.8,1
			l-9.7,1.1l2.1-1.9c0,1.1,0,2.1,0,3.1l0,1.6l0,1.7c0,2.3,0,4.5,0,6.8c-0.1,4.5-0.1,9.1-0.2,13.6l-0.3,13.6
			c-0.1,4.5-0.3,9.1-0.4,13.6c-0.1,4.5-0.3,9.1-0.5,13.6c-0.2,4.5-0.4,9.1-0.6,13.6c-0.2,4.5-0.5,9.1-0.8,13.7l-0.5,6.8
			c-0.2,2.3-0.4,4.5-0.6,6.8c0,0.2-0.2,0.3-0.3,0.3C189,646.9,188.8,646.8,188.8,646.6L188.8,646.6z"/>
	</g>
	<g>
		<path class="st0" d="M228,536.8l-3.2,111.5L222,536.8c0-1.7,1.3-3,2.9-3.1c1.7,0,3,1.3,3.1,2.9C228,536.7,228,536.7,228,536.8z"/>
	</g>
	<g>
		<path class="st0" d="M293,533.5l-3,108.3l-3-108.3c0-1.7,1.3-3,2.9-3.1s3,1.3,3.1,2.9C293,533.4,293,533.4,293,533.5z"/>
	</g>
	<line class="st1" x1="370.9" y1="533.2" x2="370.9" y2="648.7"/>
	<g>
		<path class="st0" d="M459.8,533.5c0,0,0.1,0.4,0.2,1.2c0.1,0.8,0.3,2,0.4,3.5c0.3,3,0.8,7.3,1.1,12.4c0.4,5.1,0.7,11.1,0.9,17.5
			c0.1,3.2,0.2,6.5,0.3,9.9c0.1,3.4,0.1,6.8,0.1,10.2c0,3.4,0,6.8-0.1,10.2c0,3.4-0.1,6.7-0.2,9.9c-0.2,6.4-0.5,12.4-0.9,17.5
			c-0.4,5.1-0.8,9.4-1.1,12.4c-0.2,1.5-0.3,2.7-0.4,3.5c-0.1,0.8-0.2,1.2-0.2,1.2s-0.1-0.4-0.2-1.2c-0.1-0.8-0.3-2-0.4-3.5
			c-0.3-3-0.8-7.3-1.1-12.4c-0.4-5.1-0.7-11.1-0.9-17.5c-0.1-3.2-0.2-6.5-0.2-9.9c-0.1-3.4-0.1-6.8-0.1-10.2c0-3.4,0-6.8,0.1-10.2
			c0.1-3.4,0.1-6.7,0.3-9.9c0.2-6.4,0.5-12.4,0.9-17.5c0.4-5.1,0.8-9.4,1.1-12.4c0.2-1.5,0.3-2.7,0.4-3.5
			C459.7,533.9,459.8,533.5,459.8,533.5z"/>
	</g>
	<g>
		<path class="st0" d="M677.1,540.9c0,0,0.7,0,2-0.1c1.3-0.1,3.2-0.2,5.6-0.2c2.4-0.1,5.4-0.2,8.7-0.3c3.4-0.1,7.2-0.2,11.3-0.2
			c4.1,0,8.6-0.1,13.4-0.1c4.7,0,9.7,0,14.9,0.1c5.2,0.1,10.5,0.1,15.9,0.3c5.4,0.2,10.9,0.3,16.4,0.5c5.5,0.2,11,0.4,16.4,0.7
			c5.4,0.2,10.8,0.6,15.9,0.8c5.2,0.2,10.1,0.6,14.9,0.9c4.7,0.3,9.2,0.6,13.3,1c4.1,0.3,7.9,0.7,11.3,1c3.4,0.3,6.3,0.6,8.7,0.8
			c2.4,0.2,4.3,0.5,5.6,0.6c1.3,0.2,2,0.2,2,0.2s-0.7,0-2,0.1c-1.3,0.1-3.2,0.2-5.6,0.2c-2.4,0.1-5.4,0.2-8.7,0.3
			c-3.4,0.1-7.2,0.2-11.3,0.2c-4.1,0-8.6,0.1-13.4,0.1c-4.7,0-9.7,0-14.9-0.1c-5.2-0.1-10.5-0.1-15.9-0.3
			c-5.4-0.1-10.9-0.3-16.4-0.5c-5.5-0.2-11-0.4-16.4-0.7c-5.4-0.2-10.8-0.5-15.9-0.8c-5.2-0.2-10.1-0.6-14.9-0.9
			c-4.7-0.3-9.2-0.6-13.3-1c-4.1-0.3-7.9-0.7-11.3-1c-3.4-0.3-6.3-0.6-8.7-0.8c-2.4-0.2-4.3-0.5-5.6-0.6
			C677.8,541,677.1,540.9,677.1,540.9z"/>
	</g>
	<line class="st1" x1="565.8" y1="537.1" x2="574.9" y2="537.5"/>
	<g>
		<path class="st0" d="M677.1,474.5c0,0,1.6,0,4.6,0.1c3,0.1,7.4,0.2,13.1,0.3c5.6,0.2,12.5,0.3,20.3,0.6c7.8,0.2,16.7,0.5,26.3,0.9
			c9.6,0.3,20.1,0.7,31.1,1.2c11,0.5,22.7,0.9,34.7,1.5c12,0.6,24.5,1.2,37.2,1.9c12.6,0.7,25.5,1.4,38.3,2.1
			c6.4,0.4,12.8,0.8,19.2,1.2c3.2,0.2,6.4,0.4,9.6,0.6l0.6,0l0.3,0l0.3,0l0.1,0l1.2,0.2c0.4,0.1,0.8,0.1,1.2,0.2l1.4,0.3
			c1.8,0.4,3.5,0.9,5.2,1.8c1.7,0.8,3.4,2.2,4.6,4c1.2,1.7,1.9,3.8,2.1,5.7c0.1,0.9,0.1,1.9,0.1,2.7l-0.1,2.4c0,1.6-0.1,3.1-0.1,4.7
			c-0.1,6.2-0.2,12.3-0.3,18.4c-0.2,12.1-0.5,23.7-0.7,34.7c-0.2,11-0.5,21.5-0.8,31.1c-0.2,9.6-0.5,18.5-0.8,26.3
			c-0.3,7.8-0.5,14.7-0.7,20.3c-0.2,5.6-0.4,10-0.5,13c-0.1,3-0.2,4.6-0.2,4.6s0-1.6-0.1-4.6c-0.1-3-0.2-7.4-0.3-13.1
			c-0.1-5.6-0.2-12.5-0.4-20.3c-0.1-7.8-0.3-16.7-0.3-26.3c-0.1-9.6-0.2-20.1-0.2-31.2c-0.1-11.1-0.1-22.7-0.1-34.8
			c0-6,0-12.2,0-18.4c0-1.6,0-3.1,0-4.7l0-2.3c0-0.7,0-1.3-0.1-2c-0.3-2.5-1.4-4.1-3.7-5.2c-0.2-0.2-0.6-0.3-0.9-0.4
			c-0.3-0.1-0.6-0.3-0.9-0.3c-0.6-0.2-1.3-0.4-1.9-0.5l-1-0.2c-0.3-0.1-0.8-0.1-1.2-0.2l-1.2-0.1l-0.1,0c-0.1,0,0.1,0,0,0l-0.3,0
			l-0.6,0c-3.2-0.2-6.4-0.3-9.6-0.5c-6.4-0.4-12.8-0.7-19.2-1.1c-12.8-0.8-25.6-1.5-38.3-2.3c-12.6-0.7-25-1.6-37.1-2.4
			c-12-0.8-23.6-1.6-34.7-2.3c-11-0.7-21.4-1.5-31.1-2.2c-9.6-0.7-18.4-1.4-26.2-2c-7.8-0.6-14.6-1.2-20.2-1.7
			c-5.6-0.5-10-0.9-13-1.1C678.7,474.7,677.1,474.5,677.1,474.5z"/>
	</g>
	<g>
		<path class="st0" d="M853.5,547c0,0,0.1,0.4,0.2,1.2c0.1,0.8,0.3,1.9,0.4,3.4c0.3,2.9,0.8,7.1,1.1,12.2c0.4,5,0.7,10.9,0.9,17.2
			c0.1,3.2,0.2,6.4,0.3,9.7c0.1,3.3,0.1,6.7,0.1,10c0,3.4,0,6.7-0.1,10c0,3.3-0.1,6.6-0.2,9.7c-0.2,6.3-0.5,12.2-0.9,17.2
			c-0.4,5-0.8,9.2-1.1,12.2c-0.2,1.5-0.3,2.6-0.4,3.4c-0.1,0.8-0.2,1.2-0.2,1.2s-0.1-0.4-0.2-1.2c-0.1-0.8-0.3-1.9-0.4-3.4
			c-0.3-2.9-0.8-7.1-1.1-12.2c-0.4-5-0.7-10.9-0.9-17.2c-0.1-3.2-0.2-6.4-0.2-9.7c-0.1-3.3-0.1-6.7-0.1-10c0-3.4,0-6.7,0.1-10
			c0.1-3.3,0.1-6.6,0.3-9.7c0.2-6.3,0.5-12.2,0.9-17.2c0.4-5,0.8-9.2,1.1-12.2c0.2-1.5,0.3-2.6,0.4-3.4
			C853.4,547.4,853.5,547,853.5,547z"/>
	</g>
	<line class="st1" x1="775.3" y1="545.4" x2="775.3" y2="646.2"/>
	<g>
		<path class="st3" d="M726.5,652.4"/>
	</g>
</g>
</svg>
