<svg width="111" stroke-width="1.3" height="194" viewBox="0 0 111 194" fill="none" 
    xmlns="http://www.w3.org/2000/svg">
    <path d="M100.873 146.79C100.305 142.195 104.616 112.252 104.332 106.188C104.047 100.123 100.305 83.4462 99.7361 81.1247C99.1675 78.8031 98.0779 74.6339 95.1878 73.7811C94.9983 73.7337 94.8088 73.6863 94.6667 73.639C92.0609 73.1178 89.0287 74.397 89.0287 74.397C89.0287 74.397 88.7444 71.9334 88.4128 70.2278C88.3654 69.8487 88.2706 69.4697 88.2233 69.2328C88.1285 68.759 87.9864 68.3326 87.8442 67.9062C86.8967 65.0162 85.1437 63.4053 82.3958 62.9316C79.411 62.4104 77.1842 64.0686 77.1842 64.0686C77.1842 64.0686 75.6681 55.8249 68.9879 55.5406C61.8812 55.2564 60.9336 61.984 60.602 63.6896C59.8913 67.4798 58.1857 76.0552 58.1857 76.0552C58.1857 76.0552 55.2483 73.3547 54.7271 72.7861C53.9691 71.9333 53.5901 71.0805 53.4953 70.7489C51.8845 66.4375 50.2262 53.1243 49.1365 46.2072C47.9047 38.3898 46.0096 19.2018 45.1568 12.8532C44.304 6.50455 42.551 0.345431 36.6288 1.0561C30.2328 1.81414 30.8487 8.82606 30.5644 12.5689C30.2801 16.3118 32.3648 40.6166 32.9333 46.6336C33.5018 52.698 36.9131 81.6458 37.4816 87.9945C38.0501 94.3431 37.4816 104.103 37.4816 104.103C37.4816 104.103 36.8183 102.539 35.7286 100.171C35.7286 100.171 35.7286 100.123 35.6812 100.123V100.076C33.5019 95.4328 29.6642 87.8049 25.5424 82.167C25.5424 82.1196 25.495 82.1196 25.495 82.1196C24.4053 80.6509 23.3156 79.3243 22.2259 78.2346C14.7402 70.7489 3.18003 74.2075 2.09034 77.3818C2.04296 77.4766 2.04297 77.5713 2.04297 77.7135C2.84839 77.4766 4.08019 77.4292 5.45415 77.6661C7.87042 78.1399 13.3663 84.2516 13.5084 84.7254C13.6031 85.1991 11.708 87.5207 11.1869 87.568C11.1395 87.568 10.9974 87.5207 10.8552 87.3785C10.95 87.5207 11.0448 87.6154 11.1869 87.7576C11.329 87.8997 11.4711 88.0892 11.5659 88.2313C11.8028 88.5156 11.9923 88.7999 12.1818 89.0841L12.2292 89.1315C13.2241 90.6476 15.5456 95.6697 18.0567 102.066C18.3409 102.729 18.5778 103.44 18.8621 104.15C19.0042 104.577 19.1937 105.003 19.3359 105.477C19.6202 106.235 19.857 106.946 20.1413 107.704C20.3782 108.414 20.6625 109.172 20.8993 109.93C21.3257 111.21 21.7522 112.536 22.1786 113.815C22.984 116.421 23.742 119.074 24.3579 121.633C24.8317 123.67 35.9655 145.938 39.4241 150.296C39.5662 150.486 39.7557 150.723 39.9452 150.96C42.2668 153.944 46.3412 159.393 49.7051 163.609C50.2262 164.273 50.7 164.889 51.1738 165.457C51.2685 165.599 51.4107 165.742 51.5528 165.931C54.3481 169.863 58.091 193.031 58.091 193.031H64.866H87.7021H110.491C110.443 193.031 101.442 151.386 100.873 146.79Z" stroke="#040913" stroke-miterlimit="10" stroke-linecap="round" stroke-linejoin="round"/>
    <path d="M42.2198 3.75661C41.2722 2.19314 39.5192 0.724424 36.6765 1.10345C33.3601 1.52985 32.0809 3.42497 31.844 5.50959C31.6071 7.59422 32.0809 14.9852 33.7865 16.3117C33.7865 16.3117 33.8339 16.3117 33.8339 16.3591C33.8812 16.4065 33.976 16.4539 34.0708 16.5012C34.1181 16.5012 34.2129 16.5486 34.2603 16.5486C34.3077 16.5486 34.4024 16.596 34.4498 16.596C34.5445 16.596 34.6393 16.6434 34.7341 16.6434C34.8288 16.6434 34.8762 16.6434 34.9709 16.6908C35.0657 16.6908 35.2078 16.6908 35.3026 16.6908C35.3973 16.6908 35.4447 16.6908 35.5395 16.6908C35.6816 16.6908 35.8237 16.6908 35.9659 16.6908C36.0606 16.6908 36.108 16.6908 36.2028 16.6908C36.3449 16.6908 36.5344 16.6908 36.6765 16.6434C36.7239 16.6434 36.8187 16.6434 36.8661 16.6434C37.0556 16.6434 37.2451 16.596 37.3872 16.596C37.4346 16.596 37.482 16.596 37.5293 16.596C37.7188 16.596 37.9084 16.5486 38.1452 16.5012C38.1926 16.5012 38.1926 16.5012 38.24 16.5012C38.4769 16.4539 38.6664 16.4065 38.9033 16.4065C38.9033 16.4065 38.9033 16.4065 38.9507 16.4065C40.7037 16.0749 42.3145 15.5537 42.6935 14.9852C43.499 13.706 43.1673 5.36746 42.2198 3.75661Z" stroke="#040913" stroke-miterlimit="10" stroke-linecap="round" stroke-linejoin="round"/>
    <path d="M5.45432 77.666C4.08036 77.3818 2.84856 77.4765 2.04314 77.7134C1.42723 77.9029 1.0482 78.1398 1.00082 78.3767C0.906064 78.8979 9.05505 86.194 10.8554 87.4259C11.0449 87.5206 11.1397 87.6154 11.1871 87.6154C11.7082 87.568 13.6033 85.2465 13.5086 84.7727C13.4138 84.2516 7.91797 78.1872 5.45432 77.666Z" stroke="#040913" stroke-miterlimit="10" stroke-linecap="round" stroke-linejoin="round"/>
    <path d="M77.2321 64.0686L77.5163 78.1398" stroke="#040913" stroke-miterlimit="10" stroke-linecap="round" stroke-linejoin="round"/>
    <path d="M88.6971 71.9807L89.6921 80.414" stroke="#040913" stroke-miterlimit="10" stroke-linecap="round" stroke-linejoin="round"/>
</svg>
