<svg width="258" height="567" viewBox="0 0 258 567" fill="none" xmlns="http://www.w3.org/2000/svg">
<path d="M113.912 549.938C110.622 553.063 111.247 559.512 104.173 558.723C97.0989 557.933 85.1882 555.893 82.6547 555.893C80.1541 555.893 76.6994 555.893 76.6994 555.893C76.6994 555.893 76.6007 555.728 76.502 555.432C75.3833 555.992 74.1988 556.814 74.1988 557.308C74.1988 558.097 74.3633 563.263 74.3633 563.263C74.3633 563.263 76.0742 563.428 85.0237 564.349C93.9732 565.303 101.508 566.718 105.884 565.138C110.293 563.559 110.589 564.053 111.839 561.355C113.089 558.69 112.629 557.275 116.248 557.275C119.867 557.275 125.823 556.65 126.612 554.906C127.402 553.195 126.612 546.911 126.612 546.911C126.612 546.911 126.777 546.483 124.737 546.384L124.869 547.371C124.902 547.437 117.202 546.812 113.912 549.938Z" stroke="#040913" stroke-miterlimit="10" stroke-linecap="round" stroke-linejoin="round"/>
<path d="M104.173 527.202C104.041 530.426 103.745 535 102.989 537.698C101.738 542.238 96.2435 544.147 92.6243 544.147C89.005 544.147 86.965 545.101 91.8346 540.527C95.1577 537.435 95.9145 531.545 96.079 528.123C95.1578 528.321 94.3681 528.485 93.7429 528.617C93.2494 531.052 92.361 535.033 91.3082 536.908C89.7289 539.738 85.6489 543.982 80.0226 548.062C75.5479 551.287 76.1072 554.346 76.5021 555.465C76.6008 555.761 76.6994 555.926 76.6994 555.926C76.6994 555.926 80.1542 555.926 82.6548 555.926C85.1554 555.926 97.099 557.966 104.173 558.755C111.247 559.545 110.622 553.096 113.912 549.97C117.202 546.845 124.902 547.47 124.902 547.47L124.77 546.483L122.927 533.651C119.045 533.486 113.32 531.808 109.635 528.847C108.253 527.696 106.279 527.268 104.173 527.202Z" stroke="#040913" stroke-miterlimit="10" stroke-linecap="round" stroke-linejoin="round"/>
<path d="M91.8675 540.527C86.998 545.068 89.0379 544.147 92.6572 544.147C96.2764 544.147 101.771 542.271 103.021 537.698C103.778 535 104.074 530.426 104.206 527.202C101.442 527.103 98.4151 527.663 96.1119 528.123C95.9474 531.545 95.1578 537.402 91.8675 540.527Z" stroke="#040913" stroke-miterlimit="10" stroke-linecap="round" stroke-linejoin="round"/>
<path d="M179.948 527.005C180.474 527.399 181.001 527.761 181.461 528.123C181.363 528.025 181.264 527.926 181.165 527.827C180.803 527.465 180.408 527.202 179.948 527.005Z" stroke="#040913" stroke-miterlimit="10" stroke-linecap="round" stroke-linejoin="round"/>
<path d="M195.28 557.472C194.918 555.86 194.227 554.248 193.306 553.656C193.405 554.807 193.405 555.564 193.405 555.564C193.405 555.564 194.589 558.394 189.654 556.748C184.718 555.103 174.815 556.057 169.419 556.979C163.99 557.933 163.299 556.979 163.299 556.979C163.299 556.979 161.884 549.444 161.654 548.49C161.424 547.536 158.594 546.384 158.594 546.384C158.528 546.088 158.462 545.759 158.429 545.397C157.541 546.055 156.949 546.878 156.949 547.799C156.949 549.214 156.751 554.445 156.751 554.445C156.751 554.445 159.285 555.597 160.469 556.748C161.654 557.933 161.489 562.111 161.489 562.111C161.489 562.111 161.555 564.645 165.076 564.875C168.596 565.106 177.019 566.685 183.304 565.665C188.173 564.875 192.878 564.546 192.878 564.546C192.878 564.546 195.774 559.578 195.28 557.472Z" stroke="#040913" stroke-miterlimit="10" stroke-linecap="round" stroke-linejoin="round"/>
<path d="M161.621 548.523C161.851 549.477 163.266 557.012 163.266 557.012C163.266 557.012 163.957 557.966 169.386 557.012C174.815 556.057 184.685 555.136 189.621 556.781C194.556 558.426 193.372 555.597 193.372 555.597C193.372 555.597 193.372 554.84 193.273 553.688C193.076 551.319 192.516 547.305 190.772 544.772C188.173 540.988 185.837 536.546 184.883 533.947C184.389 532.598 184.159 531.611 183.83 530.821C183.205 530.262 182.481 529.242 181.428 528.123C180.967 527.794 180.441 527.399 179.915 527.037C179.98 530.163 180.605 536.349 183.962 539.475C188.601 543.818 186.66 542.929 183.205 542.929C179.75 542.929 174.519 541.12 173.334 536.777C172.676 534.408 172.38 530.525 172.248 527.498C170.866 527.893 169.484 528.386 168.168 528.88C164.747 530.163 161.423 533.782 160.173 533.618C159.745 534.079 159.482 534.375 159.482 534.375C159.482 534.375 157.903 541.35 158.363 545.397C158.396 545.759 158.462 546.088 158.528 546.384C158.561 546.417 161.39 547.569 161.621 548.523Z" stroke="#040913" stroke-miterlimit="10" stroke-linecap="round" stroke-linejoin="round"/>
<path d="M172.281 527.498C172.413 530.492 172.709 534.375 173.367 536.777C174.552 541.12 179.816 542.929 183.238 542.929C186.693 542.929 188.634 543.818 183.995 539.475C180.606 536.316 180.013 530.163 179.948 527.037C179.948 527.037 179.948 527.037 179.948 527.005C178.006 526.182 175.177 526.643 172.281 527.498Z" stroke="#040913" stroke-miterlimit="10" stroke-linecap="round" stroke-linejoin="round"/>
<path d="M75.7454 272.109C73.179 281.454 72.7842 360.025 72.7842 368.81C72.7842 377.594 74.6596 395.822 74.6596 395.822C74.6596 395.822 77.1602 404.607 77.1602 414.017C77.1602 423.428 84.6949 464.26 85.9452 471.136C87.1955 478.046 88.4457 499.399 89.696 505.026C90.9463 510.685 92.8217 512.56 92.8217 516.969C92.8217 521.378 90.6502 528.781 92.5585 528.781C92.7888 528.781 93.1837 528.715 93.7101 528.617C94.3352 528.485 95.1249 528.321 96.0462 528.123C98.3494 527.663 101.376 527.103 104.14 527.202C106.246 527.268 108.22 527.695 109.602 528.781C113.287 531.742 119.012 533.421 122.895 533.585C125.395 533.684 127.139 533.19 127.139 532.039C127.139 528.913 125.889 524.504 125.889 513.844C125.889 503.183 124.638 501.9 122.763 483.08C120.888 464.26 120.888 462.976 119.012 446.032C117.137 429.087 116.511 421.552 118.387 405.233C119.703 393.75 123.487 342.882 124.309 319.752C124.375 317.975 126.975 317.811 127.238 319.587C129.179 332.88 133.325 360.65 134.081 366.243C135.332 375.653 134.739 401.482 142.274 419.677C149.809 437.872 148.559 473.045 150.434 480.579C151.421 484.495 153.889 498.577 156.06 511.178C155.764 512.363 155.534 513.613 155.534 515.094C155.534 520.128 159.153 531.348 159.778 533.223C159.877 533.486 160.041 533.618 160.239 533.651C161.522 533.815 164.812 530.196 168.234 528.913C169.55 528.419 170.932 527.926 172.314 527.531C175.21 526.675 178.039 526.215 179.98 527.005C180.441 527.202 180.869 527.465 181.198 527.794C181.296 527.893 181.395 527.992 181.494 528.09C182.547 529.176 183.303 530.229 183.896 530.788C184.62 531.446 185.146 531.446 185.804 530.13C187.054 527.63 187.054 516.936 188.93 503.775C190.805 490.582 188.239 479.296 188.239 472.386C188.239 465.477 190.739 420.894 187.614 415.268C184.488 409.609 184.225 406.483 184.225 400.824C184.225 395.164 181.955 389.538 181.955 386.379C181.955 383.221 182.58 383.254 181.329 378.845C180.079 374.436 180.079 373.186 180.079 370.685C180.079 368.184 182.152 281.552 181.922 274.939" stroke="#040913" stroke-miterlimit="10" stroke-linecap="round" stroke-linejoin="round"/>
<path d="M95.1906 531.479C95.1906 531.479 100.521 529.275 104.601 531.019" stroke="#040913" stroke-miterlimit="10" stroke-linecap="round" stroke-linejoin="round"/>
<path d="M94.1375 535.066C94.1375 535.066 99.8626 532.697 104.272 534.572" stroke="#040913" stroke-miterlimit="10" stroke-linecap="round" stroke-linejoin="round"/>
<path d="M92.5914 538.093C92.5914 538.093 99.0074 535.461 103.877 537.533" stroke="#040913" stroke-miterlimit="10" stroke-linecap="round" stroke-linejoin="round"/>
<path d="M91.3082 540.659C91.3082 540.659 97.7241 538.027 102.594 540.1" stroke="#040913" stroke-miterlimit="10" stroke-linecap="round" stroke-linejoin="round"/>
<path d="M88.0179 543.258C88.0179 543.258 94.4339 540.626 99.3034 542.699" stroke="#040913" stroke-miterlimit="10" stroke-linecap="round" stroke-linejoin="round"/>
<path d="M86.7676 530.755C86.7676 530.755 87.8205 521.345 97.1319 523.681C106.41 526.05 95.1249 535.559 86.7676 530.755Z" stroke="#040913" stroke-miterlimit="10" stroke-linecap="round" stroke-linejoin="round"/>
<path d="M104.798 528.781C97.494 528.946 106.049 516.048 110.984 521.51C112.563 523.286 112.103 528.617 104.798 528.781Z" stroke="#040913" stroke-miterlimit="10" stroke-linecap="round" stroke-linejoin="round"/>
<path d="M89.0377 535.954C93.677 530.69 100.817 527.07 100.817 527.07C100.817 527.07 102.297 526.05 107.726 534.046" stroke="#040913" stroke-miterlimit="10" stroke-linecap="round" stroke-linejoin="round"/>
<path d="M180.803 530.854C180.935 531.019 175.966 529.11 171.821 530.393" stroke="#040913" stroke-miterlimit="10" stroke-linecap="round" stroke-linejoin="round"/>
<path d="M181.823 534.276C181.823 534.276 176.361 532.039 172.15 533.782" stroke="#040913" stroke-miterlimit="10" stroke-linecap="round" stroke-linejoin="round"/>
<path d="M183.303 537.138C183.303 537.138 177.184 534.638 172.511 536.612" stroke="#040913" stroke-miterlimit="10" stroke-linecap="round" stroke-linejoin="round"/>
<path d="M184.521 539.606C184.521 539.606 178.401 537.106 173.729 539.08" stroke="#040913" stroke-miterlimit="10" stroke-linecap="round" stroke-linejoin="round"/>
<path d="M187.68 542.107C187.68 542.107 181.56 539.606 176.888 541.58" stroke="#040913" stroke-miterlimit="10" stroke-linecap="round" stroke-linejoin="round"/>
<path d="M188.732 530.854C190.081 528.189 187.877 521.148 178.993 523.418C170.11 525.655 184.587 539.08 188.732 530.854Z" stroke="#040913" stroke-miterlimit="10" stroke-linecap="round" stroke-linejoin="round"/>
<path d="M171.952 527.794C179.158 527.926 170.735 515.258 165.865 520.621C164.253 522.365 164.746 527.663 171.952 527.794Z" stroke="#040913" stroke-miterlimit="10" stroke-linecap="round" stroke-linejoin="round"/>
<path d="M175.473 526.676C175.473 526.676 174.058 525.688 168.892 533.355" stroke="#040913" stroke-miterlimit="10" stroke-linecap="round" stroke-linejoin="round"/>
<path d="M157.014 52.3867C157.014 52.3867 160.206 48.6688 163.299 50.9719C166.359 53.2751 162.509 59.6911 160.798 63.3762C158.989 67.2257 155.534 68.3773 153.823 65.4161" stroke="#040913" stroke-miterlimit="10" stroke-linecap="round" stroke-linejoin="round"/>
<path d="M162.443 55.4137C162.443 55.4137 158.89 53.7686 155.665 58.9343" stroke="#040913" stroke-miterlimit="10" stroke-linecap="round" stroke-linejoin="round"/>
<path d="M157.738 56.4666C157.738 56.4666 161.522 59.0659 158.528 61.9942" stroke="#040913" stroke-miterlimit="10" stroke-linecap="round" stroke-linejoin="round"/>
<path d="M103.778 46.6617C103.778 46.6617 101.442 42.3515 97.9545 43.9637C94.4669 45.543 96.4739 52.6171 97.8558 56.5325C99.2706 60.5466 101.87 62.6194 104.173 60.0859" stroke="#040913" stroke-miterlimit="10" stroke-linecap="round" stroke-linejoin="round"/>
<path d="M97.8228 48.4713C97.8228 48.4713 101.639 47.6487 103.679 53.3738" stroke="#040913" stroke-miterlimit="10" stroke-linecap="round" stroke-linejoin="round"/>
<path d="M102.166 50.5113C102.166 50.5113 97.9215 52.2222 100.225 55.7428" stroke="#040913" stroke-miterlimit="10" stroke-linecap="round" stroke-linejoin="round"/>
<path d="M158.067 42.7463C158.067 42.7463 156.093 91.9684 126.547 88.8098C97.0003 85.6511 104.601 36.9884 104.601 36.9884C104.601 36.9884 106.312 7.77104 135.891 10.9297C163.463 13.8909 158.067 42.7463 158.067 42.7463Z" stroke="#040913" stroke-miterlimit="10" stroke-linecap="round" stroke-linejoin="round"/>
<path d="M160.732 27.5125C161.226 22.9062 158.956 18.4314 154.942 16.0954L150.335 12.9696C148.657 6.98138 144.413 1.28925 134.41 0.466693C133.489 0.400889 132.535 0.466693 131.647 0.664108C128.751 1.28925 122.829 3.2305 120.888 8.82391L113.813 11.6535C109.405 13.1012 106.246 16.9837 105.752 21.5901L103.877 39.0284C103.712 40.2787 103.548 41.496 103.482 42.6476L103.449 42.8121C103.449 42.8121 103.449 42.7463 103.482 42.6476C103.416 43.7663 103.383 44.8521 103.449 45.8721C103.449 45.8721 110.786 34.422 110.457 26.7886C110.326 24.1235 111.017 21.4255 112.761 19.3856C113.221 18.8592 113.682 18.3656 114.175 17.9379C116.446 15.9308 118.815 14.6476 121.019 13.858C121.973 18.0695 125.264 24.2881 135.792 27.8744C135.792 27.8744 129.212 22.3797 125.823 16.3257C128.916 19.9778 135.792 25.1435 150.598 27.7757C150.598 27.7757 151.487 23.8603 151.256 18.9908C152.211 19.8462 153.165 20.8662 154.02 22.0178C154.02 22.0507 154.053 22.0507 154.053 22.0836C155.994 24.7487 156.356 28.2364 155.304 31.3292C152.309 40.147 157.08 51.6629 157.08 51.6629C157.508 50.1165 157.804 48.3397 158.001 46.4643C157.87 47.9449 157.738 48.9649 157.705 49.1952L160.732 27.5125Z" fill="#040913"/>
<path d="M130.002 48.5372L127.995 58.704C127.962 59.033 127.994 59.3292 128.06 59.6253C128.389 60.7769 129.607 61.4349 130.758 61.2375L133.292 60.8427" stroke="#040913" stroke-miterlimit="10" stroke-linecap="round" stroke-linejoin="round"/>
<path d="M128.488 31.9543C128.225 32.2505 126.514 36.1658 126.514 36.1658L112.399 34.6523L117.498 32.4479C118.782 31.9872 120.131 31.7569 121.513 31.7898L128.488 31.9543Z" fill="#040913"/>
<path d="M137.404 32.9085C137.569 33.2375 138.424 37.449 138.424 37.449L152.54 38.9626L148.032 35.7381C146.88 35.0143 145.597 34.4878 144.248 34.2246L137.404 32.9085Z" fill="#040913"/>
<path d="M129.113 80.1893L127.863 83.1505" stroke="#040913" stroke-miterlimit="10" stroke-linecap="round" stroke-linejoin="round"/>
<path d="M136.845 45.4772C136.845 45.4772 136.944 45.3456 137.174 45.1153C137.273 45.0166 137.437 44.885 137.602 44.7534C137.701 44.6876 137.799 44.6218 137.898 44.556C137.997 44.4902 138.128 44.4244 138.227 44.3586C138.457 44.227 138.721 44.0953 139.017 43.9637C139.313 43.865 139.642 43.7334 139.971 43.7005C140.135 43.6676 140.3 43.6347 140.497 43.6018C140.662 43.6018 140.859 43.5689 141.057 43.5689C141.254 43.5689 141.419 43.5689 141.616 43.5689L142.175 43.6018C142.537 43.6676 142.899 43.7334 143.261 43.865C143.426 43.9308 143.59 43.9966 143.755 44.0624C143.919 44.1283 144.084 44.1611 144.248 44.2599C144.544 44.4244 144.841 44.5889 145.104 44.7534C145.367 44.9179 145.597 45.1153 145.795 45.2798C145.893 45.3785 145.992 45.4443 146.091 45.5102C146.19 45.6089 146.255 45.6747 146.321 45.7734C146.486 45.9379 146.584 46.0695 146.716 46.2011C146.913 46.4314 147.045 46.563 147.045 46.563C147.045 46.563 146.88 46.4972 146.617 46.3327C146.486 46.2669 146.321 46.1682 146.124 46.0695C146.025 46.0037 145.926 45.9708 145.828 45.905C145.729 45.8392 145.597 45.8063 145.499 45.7405C145.268 45.6418 145.005 45.5102 144.742 45.3785C144.479 45.2798 144.182 45.1811 143.886 45.0495C143.59 44.9508 143.294 44.885 142.965 44.7534C142.669 44.6876 142.34 44.6218 142.011 44.556L141.517 44.5231C141.353 44.4902 141.188 44.4902 141.024 44.4902C140.859 44.4902 140.695 44.4902 140.563 44.4902C140.399 44.4902 140.267 44.5231 140.102 44.5231C139.806 44.5231 139.51 44.5889 139.214 44.6218C138.951 44.6876 138.655 44.7205 138.425 44.8192C137.931 44.9508 137.536 45.1153 137.24 45.2469C137.108 45.3127 136.977 45.3456 136.911 45.3785C136.878 45.4443 136.845 45.4772 136.845 45.4772Z" fill="#040913"/>
<path d="M140.135 46.9578C139.971 48.5371 140.563 49.8861 141.484 49.9848C142.406 50.0836 143.294 48.8662 143.459 47.2868C143.623 45.7075 143.031 44.3585 142.11 44.2598C141.188 44.194 140.3 45.3785 140.135 46.9578Z" fill="#040913"/>
<path d="M115.36 43.1741C115.36 43.1741 115.459 43.0424 115.689 42.8121C115.788 42.7134 115.952 42.5818 116.117 42.4502C116.215 42.3844 116.314 42.3186 116.413 42.2528C116.511 42.187 116.643 42.1212 116.742 42.0554C116.972 41.9238 117.235 41.7922 117.531 41.6605C117.828 41.5618 118.157 41.4302 118.486 41.3973C118.65 41.3644 118.815 41.3315 119.012 41.2986C119.177 41.2986 119.374 41.2657 119.571 41.2657C119.769 41.2657 119.933 41.2657 120.131 41.2657L120.69 41.2986C121.052 41.3644 121.414 41.4302 121.776 41.5618C121.94 41.6276 122.105 41.6934 122.269 41.7593C122.434 41.8251 122.598 41.858 122.763 41.9567C123.059 42.1212 123.355 42.2857 123.618 42.4502C123.882 42.6147 124.112 42.8121 124.309 42.9766C124.408 43.0754 124.507 43.1412 124.605 43.207C124.704 43.3057 124.77 43.3715 124.836 43.4702C125 43.6347 125.099 43.7663 125.231 43.8979C125.428 44.1282 125.56 44.2598 125.56 44.2598C125.56 44.2598 125.395 44.194 125.132 44.0295C125 43.9637 124.836 43.865 124.638 43.7663C124.54 43.7005 124.441 43.6676 124.342 43.6018C124.244 43.536 124.112 43.5031 124.013 43.4373C123.783 43.3386 123.52 43.207 123.256 43.0754C122.993 42.9766 122.697 42.8779 122.401 42.7463C122.105 42.6476 121.809 42.5818 121.48 42.4502C121.184 42.3844 120.855 42.3186 120.526 42.2528L120.032 42.2199C119.867 42.187 119.703 42.187 119.538 42.187C119.374 42.187 119.209 42.187 119.078 42.187C118.913 42.187 118.782 42.2199 118.617 42.2199C118.321 42.2199 118.025 42.2857 117.729 42.3186C117.466 42.3844 117.169 42.4173 116.939 42.516C116.446 42.6476 116.051 42.8121 115.755 42.9437C115.623 43.0095 115.491 43.0425 115.426 43.0754C115.426 43.1412 115.36 43.1741 115.36 43.1741Z" fill="#040913"/>
<path d="M118.683 44.6547C118.518 46.234 119.111 47.583 120.032 47.6817C120.953 47.7804 121.842 46.563 122.006 44.9837C122.171 43.4044 121.578 42.0554 120.657 41.9567C119.736 41.8909 118.848 43.0754 118.683 44.6547Z" fill="#040913"/>
<path d="M121.184 66.9297C121.184 66.9297 125 69.3973 128.389 69.7264C131.449 69.9896 135.595 68.4761 135.595 68.4761" stroke="#040913" stroke-miterlimit="10" stroke-linecap="round" stroke-linejoin="round"/>
<path d="M38.6316 74.8921C36.3284 77.261 33.6304 81.8674 34.0582 88.9414" stroke="#040913" stroke-miterlimit="10" stroke-linecap="round" stroke-linejoin="round"/>
<path d="M21.3905 80.5841C25.3388 80.1893 32.3141 77.6887 36.6572 69.6276" stroke="#040913" stroke-miterlimit="10" stroke-linecap="round" stroke-linejoin="round"/>
<path d="M26.7866 102.596C28.2014 103.616 29.8465 103.649 30.9652 102.859" stroke="#040913" stroke-miterlimit="10" stroke-linecap="round" stroke-linejoin="round"/>
<path d="M34.8476 99.7334C36.4269 99.6347 38.8617 100.128 41.2636 99.9637C42.7771 99.865 44.2577 99.5031 45.4751 98.5489" stroke="#040913" stroke-miterlimit="10" stroke-linecap="round" stroke-linejoin="round"/>
<path d="M109.536 91.3433C110.951 89.7968 111.477 88.2175 110.721 79.4984" stroke="#040913" stroke-miterlimit="10" stroke-linecap="round" stroke-linejoin="round"/>
<path d="M43.83 126.681C50.2789 121.153 62.1896 111.973 67.2894 109.9C72.4551 107.795 89.3998 102.793 99.9615 97.858" stroke="#040913" stroke-miterlimit="10" stroke-linecap="round" stroke-linejoin="round"/>
<path d="M37.0519 132.405C37.8086 131.813 37.7428 131.846 38.5983 131.122" stroke="#040913" stroke-miterlimit="10" stroke-linecap="round" stroke-linejoin="round"/>
<path d="M67.2894 109.9C69.0661 111.381 72.126 116.02 73.0144 121.943" stroke="#040913" stroke-miterlimit="10" stroke-linecap="round" stroke-linejoin="round"/>
<path d="M59.8535 164.551C59.8206 136.387 47.5479 132.932 38.5327 131.221C38.072 130.037 43.3364 126.253 43.8628 126.681C44.3893 127.108 47.4164 128.688 48.1073 129.017C54.4904 132.241 56.6291 124.706 66.1379 144.645C68.0462 148.659 69.0661 160.438 69.0661 160.438C67.4539 163.005 60.4457 164.847 59.8535 164.551ZM59.8535 164.551C40.9346 177.778 21.9827 187.846 7.83466 187.188C-3.35218 182.187 1.87936 149.548 4.84058 142.704C9.34822 132.208 26.3917 103.188 26.8194 102.629C26.6549 102.366 26.4904 102.168 26.2272 101.971C24.8124 101.017 23.266 98.1212 21.4563 94.5019C19.6467 90.8826 18.3635 83.1506 17.179 79.6958C15.9945 76.241 15.2706 75.6159 13.5926 73.5101C11.9146 71.4044 7.73598 66.6993 5.89345 62.3233C5.82764 62.1917 5.79477 62.093 5.76187 61.9614C5.76187 61.9285 5.72893 61.8956 5.72893 61.8627C5.69603 61.7969 5.66314 61.6982 5.66314 61.6324C5.66314 61.5995 5.63021 61.5666 5.63021 61.5007C5.59731 61.4349 5.59732 61.3362 5.56442 61.2704C5.56442 61.2375 5.56439 61.2046 5.53149 61.1717C5.49858 61.073 5.4986 60.9743 5.4657 60.8756C5.4657 60.8427 5.46575 60.7769 5.43284 60.744C5.43284 60.6782 5.43281 60.6453 5.39991 60.5795C5.39991 60.5137 5.39991 60.4808 5.39991 60.415C5.39991 60.3821 5.39991 60.3492 5.39991 60.3163C5.3012 57.6512 8.06504 57.1905 9.05211 58.2763C10.2366 59.5595 11.2894 61.6653 13.5268 64.2975C15.7642 66.9297 18.2977 69.4631 19.7783 70.7134C21.2589 71.9308 22.3118 71.1083 21.6208 70.0225C20.9299 68.9367 19.548 64.462 18.2648 61.1717C16.9816 57.9144 15.3693 52.3868 14.3494 49.6559C13.7571 48.1095 14.9417 46.7275 16.2907 46.2998C16.3236 46.2998 16.3893 46.2669 16.4222 46.2669C16.4551 46.2669 16.488 46.2669 16.521 46.234C16.5539 46.234 16.5868 46.2011 16.6197 46.2011C16.6526 46.2011 16.6854 46.2011 16.7183 46.1682C16.7512 46.1682 16.7841 46.1682 16.817 46.1682C16.8499 46.1682 16.8829 46.1682 16.9158 46.1682C16.9487 46.1682 16.9816 46.1682 17.0145 46.1682C17.0474 46.1682 17.0803 46.1682 17.1132 46.1682C17.1461 46.1682 17.179 46.1682 17.2119 46.1682C17.2448 46.1682 17.2777 46.1682 17.3106 46.1682C17.3435 46.1682 17.3764 46.1682 17.4422 46.1682C17.4751 46.1682 17.508 46.1682 17.5409 46.1682C17.6067 46.1682 17.6396 46.2011 17.7054 46.2011C17.7383 46.2011 17.7384 46.2011 17.7713 46.2011C17.8371 46.234 17.9029 46.234 17.9358 46.2669C17.9687 46.2669 17.9687 46.2998 18.0016 46.2998C18.0345 46.3327 18.0673 46.3327 18.1331 46.3656C18.166 46.3656 18.166 46.3985 18.1989 46.3985C18.2318 46.4314 18.2647 46.4314 18.2977 46.4643C18.3306 46.4643 18.3305 46.4972 18.3634 46.4972C18.3963 46.5301 18.4293 46.5301 18.4622 46.563C18.4951 46.5959 18.4951 46.5959 18.528 46.6288C18.5609 46.6617 18.5938 46.6946 18.6267 46.7275C18.6596 46.7604 18.6596 46.7604 18.6925 46.7934C18.7254 46.8263 18.7583 46.8592 18.7912 46.925C18.7912 46.9579 18.8241 46.9579 18.8241 46.9908C18.857 47.0566 18.8899 47.1224 18.9557 47.1882C20.206 49.5572 20.6667 51.0049 22.4434 55.2493C24.253 59.4937 26.0956 64.0342 26.9839 65.3832C27.0169 65.4161 27.0497 65.4819 27.0826 65.5148L27.1155 65.5477C27.1484 65.5806 27.1484 65.6136 27.1813 65.6465L27.2142 65.6794C27.2472 65.7123 27.2471 65.7452 27.28 65.7781L27.313 65.811C27.3788 65.9097 27.4446 65.9755 27.4775 66.0413C27.4775 66.0413 27.4774 66.0742 27.5103 66.0742C27.5432 66.1071 27.5432 66.14 27.5761 66.14L27.6091 66.1729C27.642 66.2058 27.6419 66.2387 27.6749 66.2387C27.6749 66.2387 27.6749 66.2387 27.7078 66.2716C27.7736 66.3374 27.8065 66.4032 27.8723 66.4361C27.8723 66.4361 27.8723 66.4361 27.9052 66.4361C27.9381 66.469 27.9381 66.469 27.971 66.5019C27.971 66.5019 27.971 66.5019 28.0039 66.5348C28.0368 66.5348 28.0368 66.5677 28.0697 66.5677C28.1026 66.6006 28.1684 66.6335 28.2013 66.6335C28.2342 66.6335 28.2342 66.6335 28.2671 66.6335H28.3C28.3329 66.6335 28.3329 66.6335 28.3658 66.6335C28.5303 66.6006 28.6291 66.3045 28.6291 65.7452C28.6291 64.1987 28.4645 60.3821 27.7736 57.7828C27.0826 55.1835 26.4904 47.1224 25.8324 43.865C25.273 41.167 28.6948 39.5548 30.4716 40.838C30.4716 40.838 30.5045 40.838 30.5045 40.8709C30.5374 40.9038 30.5703 40.9367 30.6032 40.9696C30.6361 41.0025 30.669 41.0025 30.669 41.0354C30.7019 41.0683 30.7348 41.1012 30.7348 41.1341C30.7677 41.167 30.8006 41.1999 30.8335 41.2328C30.8664 41.2657 30.8664 41.2986 30.8993 41.3315C30.9322 41.3644 30.9651 41.3974 30.998 41.4632C31.0309 41.4961 31.0309 41.529 31.0638 41.5619C31.0967 41.5948 31.1296 41.6606 31.1625 41.7264C31.1625 41.7593 31.1954 41.7922 31.1954 41.7922C31.2283 41.858 31.2612 41.9567 31.2941 42.0554C32.3799 45.0495 33.3999 51.63 33.729 54.6241C34.0251 57.6512 34.9463 65.7452 35.7031 64.9884C35.736 64.9555 35.736 64.9555 35.7689 64.9226C35.7689 64.9226 35.7689 64.9226 35.7689 64.8897C35.7689 64.8568 35.8017 64.8568 35.8017 64.8239C35.8675 64.7252 35.9004 64.5936 35.9663 64.4291C36.5256 62.751 36.7888 58.3092 36.5585 56.4996C36.2953 54.3938 36.5585 48.3398 36.7888 45.6747C37.0191 43.0096 40.9346 41.8909 41.5268 44.0954C42.0862 46.1353 42.9416 52.8803 43.3035 56.7628V56.7957C43.3035 56.8944 43.3035 56.9602 43.3364 57.0589C43.3364 57.1247 43.3364 57.2234 43.3693 57.2892C43.3693 57.3221 43.3693 57.3221 43.3693 57.355C43.3693 57.4208 43.3693 57.5196 43.4022 57.5854C43.6984 61.2046 42.9416 70.2857 43.5668 72.6218C44.1919 74.9578 46.6925 79.6629 47.9756 79.1036C49.2588 78.5442 50.6408 76.4056 51.2001 74.5959C51.7594 72.7863 54.5562 68.509 57.6161 66.8309C60.4128 65.2516 62.7489 66.5348 62.5844 68.3116V68.3445C62.5844 68.4103 62.5844 68.4432 62.5514 68.509V68.5419C62.5514 68.6077 62.5186 68.6735 62.4857 68.7393C61.8276 70.7134 58.0438 76.2739 55.7407 80.1235C53.4704 83.9731 55.609 84.7628 53.6678 87.3292C51.7265 89.8956 50.6408 90.5536 49.0286 93.2187C47.8112 95.1929 47.1531 97.1012 46.1989 97.9896C46.1331 98.0554 46.0345 98.1212 45.9686 98.187C45.9357 98.2199 45.9358 98.2199 45.9029 98.2528L45.8699 98.2857C45.837 98.3186 45.837 98.3186 45.8041 98.3515C45.8041 98.3515 45.8041 98.3515 45.7712 98.3844C45.7383 98.4173 45.7383 98.4173 45.7054 98.4502C45.6725 98.4831 45.6725 98.4831 45.6396 98.516C45.6067 98.5489 45.6067 98.5489 45.5738 98.5818C45.5409 98.6147 45.5409 98.6147 45.508 98.6476C45.508 98.6476 45.4751 98.6805 45.4751 98.7134C45.4751 98.7134 45.4751 98.7134 45.4751 98.7463C45.4751 98.7792 45.4422 98.7792 45.4422 98.8121C45.4422 98.8121 45.4422 98.8121 45.4422 98.845C45.4422 98.8779 45.4422 98.8779 45.4422 98.9108V98.9437C45.4422 98.9766 45.4422 98.9766 45.4422 99.0095C45.4422 99.0424 45.4422 99.0753 45.4422 99.1082V99.1412C45.4422 99.1741 45.4422 99.207 45.4422 99.2399C45.4422 99.3715 44.7183 111.512 39.1907 125.99C32.6431 143.23 33.8277 165.834 31.4258 168.236" stroke="#040913" stroke-miterlimit="10" stroke-linecap="round" stroke-linejoin="round"/>
<path d="M147.604 94.798C146.124 86.7698 146.551 83.8744 147.407 78.8732" stroke="#040913" stroke-miterlimit="10" stroke-linecap="round" stroke-linejoin="round"/>
<path d="M196.234 316.56C196.497 318.666 195.51 321.134 194.392 322.812C193.306 324.457 194.03 332.814 193.931 335.841C193.832 338.868 189.983 339.329 188.601 337.783C187.219 336.236 187.943 319.785 187.68 315.014C187.416 310.243 192.45 303.597 192.187 301.162C191.825 297.938 189.16 277.604 187.614 262.897" stroke="#040913" stroke-miterlimit="10" stroke-linecap="round" stroke-linejoin="round"/>
<path d="M194.556 322.582C196.234 323.832 197.517 324.819 197.616 326.102C197.715 327.385 197.616 331.07 197.616 331.696C196.793 332.255 196.234 334.723 196.103 335.545C195.313 335.545 193.931 335.808 193.931 335.808" stroke="#040913" stroke-miterlimit="10" stroke-linecap="round" stroke-linejoin="round"/>
<path d="M188.93 338.046C187.679 338.243 185.277 339.888 184.356 341.402C184.027 341.961 184.389 342.652 185.014 342.718C187.811 343.014 190.279 343.804 191.364 343.738C192.549 343.639 194.655 342.356 196.135 341.797C197.089 341.435 200.446 341.599 201.169 340.777C201.893 339.954 206.401 330.577 207.322 328.372C208.243 326.168 209.329 324.885 207.98 321.956C206.598 319.028 207.388 314.586 204.92 301.656C203.209 292.772 209.987 243.78 205.743 212.556C205.052 196.861 207.223 186.333 204.986 176.528" stroke="#040913" stroke-miterlimit="10" stroke-linecap="round" stroke-linejoin="round"/>
<path d="M186.791 339.066C185.771 338.868 183.501 337.355 188.107 335.841" stroke="#040913" stroke-miterlimit="10" stroke-linecap="round" stroke-linejoin="round"/>
<path d="M193.898 332.814C194.523 332.09 196.76 330.807 197.616 330.445" stroke="#040913" stroke-miterlimit="10" stroke-linecap="round" stroke-linejoin="round"/>
<path d="M188.996 333.604C188.93 332.518 192.812 332.584 192.878 333.736C192.944 334.887 192.746 337.717 190.772 337.454C188.798 337.19 189.193 336.368 188.996 333.604Z" stroke="#040913" stroke-miterlimit="10" stroke-linecap="round" stroke-linejoin="round"/>
<path d="M205.841 320.838C206.467 321.825 207.684 325.74 206.138 327.616C204.624 329.524 201.071 337.388 200.643 338.638C200.215 339.888 199.787 340.382 196.695 341.665" stroke="#040913" stroke-miterlimit="10" stroke-linecap="round" stroke-linejoin="round"/>
<path d="M155.764 102.859C155.402 99.0095 153.395 92.2645 152.342 91.9026C152.013 91.8039 148.065 88.3492 146.584 87.1647C146.453 87.724 148.328 96.9696 148.262 98.2199C148.229 98.5489 148.164 98.9437 148.131 99.2728C148.361 100.326 148.065 101.379 147.44 102.53C145.696 105.853 141.945 113.717 141.945 113.717C141.945 113.717 138.457 118.619 137.733 119.31C137.174 119.87 135.397 119.87 134.608 119.475C135.332 120.034 137.042 120.955 139.675 119.113C143.162 116.678 143.426 113.849 148.328 117.698C153.23 121.548 153.461 123.719 153.461 123.719C153.461 123.719 156.257 117.435 156.257 112.532C156.257 107.63 156.126 106.709 155.764 102.859Z" stroke="#040913" stroke-miterlimit="10" stroke-linecap="round" stroke-linejoin="round"/>
<path d="M118.683 103.32C116.775 99.4701 111.115 92.758 109.536 91.3432C108.878 90.751 109.536 89.6981 110.392 89.4678C110.918 87.8885 111.017 86.0459 111.017 84.5653C111.017 84.5324 108.055 84.7956 105.654 87.7569C102.462 91.6393 99.5338 97.0683 99.5338 97.0683C99.5338 97.0683 101.278 99.865 104.765 107.202C108.253 114.539 107.891 120.791 107.891 120.791C107.891 120.791 112.793 122.535 116.972 117.994C118.453 116.382 121.677 114.836 121.677 114.836C121.677 114.836 120.624 107.169 118.683 103.32Z" stroke="#040913" stroke-miterlimit="10" stroke-linecap="round" stroke-linejoin="round"/>
<path d="M127.205 141.322C127.205 142.342 128.027 143.165 129.047 143.165C130.067 143.165 130.89 142.342 130.89 141.322C130.89 140.302 130.067 139.48 129.047 139.48C128.027 139.512 127.205 140.335 127.205 141.322Z" fill="#040913"/>
<path d="M126.711 131.386C126.711 132.406 127.534 133.228 128.554 133.228C129.574 133.228 130.396 132.406 130.396 131.386C130.396 130.366 129.574 129.543 128.554 129.543C127.534 129.543 126.711 130.366 126.711 131.386Z" fill="#040913"/>
<path d="M125.395 123.489C125.395 124.509 126.218 125.331 127.238 125.331C128.258 125.331 129.08 124.509 129.08 123.489C129.08 122.469 128.258 121.646 127.238 121.646C126.218 121.679 125.395 122.502 125.395 123.489Z" fill="#040913"/>
<path d="M121.677 114.868C122.829 115.888 127.567 117.928 129.969 118.751C132.206 122.601 134.377 140.039 133.917 146.751" stroke="#040913" stroke-miterlimit="10" stroke-linecap="round" stroke-linejoin="round"/>
<path d="M102.22 145.496H100.035L97.3245 148.119V145.54H95.6198V152.097H97.3245V150.261L98.2426 149.43L100.079 152.097H102.308L99.554 148.162L102.22 145.496Z" fill="#040913"/>
<path d="M109.783 145.496H107.597L104.887 148.119V145.54H103.182V152.097H104.887V150.261L105.805 149.43L107.641 152.097H109.827L107.117 148.162L109.783 145.496Z" fill="#040913"/>
<path d="M92.7349 145.496C91.7295 145.233 90.6804 145.233 89.675 145.496C88.8007 145.714 88.145 146.37 87.9264 147.244C87.6641 148.25 87.6641 149.299 87.9264 150.304C88.145 151.179 88.8007 151.834 89.675 152.053C90.1995 152.184 90.6804 152.228 91.2049 152.228C91.7295 152.228 92.2103 152.184 92.7349 152.053C93.6092 151.834 94.2649 151.179 94.4834 150.304C94.7457 149.299 94.7457 148.25 94.4834 147.244C94.3086 146.414 93.6092 145.714 92.7349 145.496ZM90.1121 150.435C89.8498 150.392 89.6313 150.173 89.5875 149.911C89.4127 149.168 89.4127 148.425 89.5875 147.681C89.6313 147.419 89.8498 147.201 90.1121 147.157C90.5055 147.069 90.8553 147.026 91.2487 147.026C91.6421 147.026 91.9917 147.069 92.3852 147.157C92.6474 147.201 92.866 147.419 92.9097 147.681C93.0846 148.425 93.0846 149.168 92.9097 149.911C92.866 150.173 92.6474 150.392 92.3852 150.435C91.5983 150.654 90.8552 150.654 90.1121 150.435Z" fill="#040913"/>
<path d="M116.472 147.288C116.253 146.414 115.597 145.758 114.723 145.539C113.718 145.277 112.668 145.277 111.663 145.539C110.789 145.758 110.133 146.414 109.915 147.288C109.652 148.293 109.652 149.343 109.915 150.348C110.133 151.222 110.789 151.878 111.663 152.097C112.188 152.228 112.668 152.271 113.193 152.271C113.718 152.271 114.198 152.228 114.723 152.097C115.597 151.878 116.253 151.222 116.472 150.348C116.734 149.343 116.734 148.293 116.472 147.288ZM114.81 149.911C114.767 150.173 114.548 150.392 114.286 150.435C113.543 150.61 112.8 150.61 112.056 150.435C111.794 150.392 111.576 150.173 111.532 149.911C111.357 149.168 111.357 148.425 111.532 147.681C111.576 147.419 111.794 147.201 112.056 147.157C112.45 147.069 112.8 147.026 113.193 147.026C113.586 147.026 113.936 147.069 114.33 147.157C114.592 147.201 114.81 147.419 114.854 147.681C114.985 148.425 114.985 149.168 114.81 149.911Z" fill="#040913"/>
<path d="M134.641 119.508C133.752 120.955 131.976 125.299 132.403 127.997" stroke="#040913" stroke-miterlimit="10" stroke-linecap="round" stroke-linejoin="round"/>
<path d="M74.8239 262.666L74.5607 271.55C74.5607 271.55 79.7263 274.083 83.1811 275.136C86.6359 276.222 95.2563 277.308 101.113 278.032C106.97 278.756 131.153 281.98 135.299 281.98C139.444 281.98 149.447 281.618 157.376 280.17C165.306 278.723 183.994 274.544 183.994 274.544C183.994 274.544 185.245 269.444 184.817 266.22" stroke="#040913" stroke-miterlimit="10" stroke-linecap="round" stroke-linejoin="round"/>
<path d="M178.269 170.704C178.269 170.704 178.269 170.704 177.907 172.152C177.71 173.007 177.743 174.554 178.302 177.087L178.697 178.469C178.697 178.469 182.81 179.259 189.654 179.259C194.72 179.259 205.973 176.264 205.973 176.264C205.973 176.264 206.993 173.895 206.993 171.724C206.993 169.552 206.138 165.209 205.776 163.4C201.104 166.295 178.993 167.809 178.993 167.809L178.269 170.704Z" stroke="#040913" stroke-miterlimit="10" stroke-linecap="round" stroke-linejoin="round"/>
<path d="M69.0661 160.438C69.9215 159.813 74.3962 155.898 74.3962 161.064L74.5607 162.544C74.1988 172.612 72.7511 203.87 72.0273 208.542C71.3034 213.214 69.4938 247.432 69.1318 251.743C68.7699 256.053 69.1319 259.672 74.5279 262.535C74.5937 262.568 74.6923 262.633 74.791 262.666C80.878 265.595 112.168 271.55 125.296 271.55C138.622 271.55 148.69 271.912 154.81 272.636C160.93 273.36 167.839 272.636 172.347 270.694C175.736 269.247 181.165 268.589 184.817 266.22C186.396 265.2 187.482 264.114 187.581 262.897C187.943 258.948 186.133 255.329 186.133 251.019C186.133 246.709 184.685 243.089 185.771 238.417C186.857 233.745 186.495 229.04 184.323 224.73C182.152 220.42 182.876 190.873 180.375 184.029C179.322 181.167 178.664 178.897 178.236 177.087C177.677 174.554 177.644 172.974 177.842 172.152C178.203 170.704 178.203 170.704 178.203 170.704L178.927 167.809C178.927 167.809 201.038 166.295 205.71 163.4C210.382 160.504 200.051 146.948 200.051 140.829C200.051 134.709 193.306 115.888 193.306 115.888C193.306 115.888 165.635 96.0154 154.086 95.4231" stroke="#040913" stroke-miterlimit="10" stroke-linecap="round" stroke-linejoin="round"/>
<path d="M178.993 167.809C180.276 163.959 178.434 157.346 178.993 153.299" stroke="#040913" stroke-miterlimit="10" stroke-linecap="round" stroke-linejoin="round"/>
<path d="M193.898 20.0765V32.415C193.898 33.5007 193.207 34.1259 192.253 34.1259C191.299 34.1259 190.608 33.5007 190.608 32.415V21.261H183.731V32.415C183.731 33.5007 183.04 34.1259 182.086 34.1259C181.132 34.1259 180.441 33.5007 180.441 32.415V20.0765C180.441 18.9908 181.165 18.3656 182.086 18.3656H192.253C193.174 18.3656 193.898 18.9579 193.898 20.0765Z" fill="#040913"/>
<path d="M196.892 23.9261C196.892 22.8733 197.55 22.1823 198.471 22.1823C199.36 22.1823 199.853 22.6758 200.051 23.4984C200.643 22.5442 201.86 22.0507 203.045 22.0507C206.434 22.0507 208.145 25.2422 208.145 28.3022C208.145 31.2963 206.138 34.2575 202.946 34.2575C201.959 34.2575 200.873 33.8956 200.051 33.1717V37.0213C200.051 38.0742 199.393 38.7651 198.471 38.7651C197.55 38.7651 196.892 38.0742 196.892 37.0213V23.9261ZM202.518 31.3292C204.164 31.3292 204.986 29.6183 204.986 28.1376C204.986 26.657 204.164 24.9132 202.518 24.9132C200.84 24.9132 200.051 26.4925 200.051 28.0389C200.051 29.5854 200.808 31.3292 202.518 31.3292Z" fill="#040913"/>
<path d="M219.397 34.093C218.476 34.093 217.818 33.402 217.818 32.3492V27.7099H217.785L213.475 33.402C213.113 33.8627 212.718 34.1259 212.192 34.1259C211.27 34.1259 210.612 33.4349 210.612 32.3821V23.9261C210.612 22.8733 211.27 22.1823 212.192 22.1823C213.113 22.1823 213.771 22.8733 213.771 23.9261V28.4996H213.804L217.851 23.1365C218.279 22.5771 218.838 22.1823 219.43 22.1823C220.351 22.1823 221.01 22.8733 221.01 23.9261V32.3492C220.977 33.402 220.319 34.093 219.397 34.093Z" fill="#040913"/>
<path d="M223.872 23.7616C223.872 22.9391 224.563 22.3139 225.386 22.3139H229.63C231.341 22.3139 232.69 23.4655 232.69 25.2094C232.69 26.3609 232.229 27.1177 231.176 27.6112V27.6441C232.591 27.8415 233.677 28.9931 233.677 30.4408C233.677 32.744 232.131 33.9943 229.86 33.9943H225.386C224.563 33.9943 223.872 33.3363 223.872 32.5137V23.7616ZM226.998 26.9203H228.281C229.104 26.9203 229.597 26.4267 229.597 25.6371C229.597 24.8803 229.005 24.4855 228.281 24.4855H226.998V26.9203ZM226.998 31.7898H228.939C229.827 31.7898 230.485 31.2963 230.485 30.375C230.485 29.6183 229.893 29.0918 228.742 29.0918H226.998V31.7898Z" fill="#040913"/>
<path d="M239.698 19.1553C239.698 20.1424 238.909 20.9649 237.922 20.9649C236.967 20.9649 236.145 20.1095 236.145 19.1553C236.145 18.2669 236.967 17.4115 237.922 17.4115C238.876 17.4115 239.698 18.234 239.698 19.1553ZM236.342 23.9262C236.342 22.8733 237 22.1823 237.922 22.1823C238.843 22.1823 239.501 22.8733 239.501 23.9262V32.3492C239.501 33.4021 238.843 34.093 237.922 34.093C237 34.093 236.342 33.4021 236.342 32.3492V23.9262Z" fill="#040913"/>
<path d="M245.061 25.0777H242.857C242.001 25.0777 241.475 24.5513 241.475 23.6958C241.475 22.9062 242.067 22.3139 242.857 22.3139H250.457C251.28 22.3139 251.971 22.6759 251.971 23.6958C251.971 24.6829 251.28 25.0777 250.457 25.0777H248.253V32.3492C248.253 33.4021 247.595 34.093 246.674 34.093C245.752 34.093 245.094 33.4021 245.094 32.3492V25.0777H245.061Z" fill="#040913"/>
<path d="M253.155 36.0672C253.155 35.771 253.484 34.9156 253.583 34.6195C254.34 32.3821 254.735 30.046 254.735 27.7099C254.735 25.5713 254.438 23.2352 253.715 21.2282C253.616 20.932 253.155 19.7146 253.155 19.4843C253.155 18.6618 253.715 18.0695 254.57 18.0695C255.097 18.0695 255.458 18.4314 255.722 18.8921C256.873 20.8991 257.498 25.3739 257.498 27.677C257.498 29.7499 256.807 35.4749 255.294 37.0213C255.129 37.2187 254.8 37.3174 254.57 37.3174C253.846 37.3504 253.155 36.8568 253.155 36.0672Z" fill="#040913"/>
</svg>
