<svg width="117" height="30" viewBox="0 0 117 30" fill="none" xmlns="http://www.w3.org/2000/svg">
<path d="M50.0973 1.45209L38.025 13.2903V1.50658H31.8692V28.725H38.025V21.1915L42.4125 16.9685L50.3499 28.725H58.4202L47.2653 12.3231L57.8751 1.45209H50.0973Z" fill="white"/>
<path d="M80.1982 1.45209L68.1126 13.2903V1.50658H61.9702V28.725H68.1126V21.1915L72.5001 16.9685L80.4508 28.725H88.5212L77.3663 12.3231L87.976 1.45209H80.1982Z" fill="white"/>
<path d="M27.5482 8.64495C26.684 5.07577 23.9717 2.29671 20.4883 1.41123C18.4009 0.879939 16.2736 0.607483 14.173 0.607483C12.0723 0.607483 9.93171 0.879939 7.84432 1.41123C4.34762 2.29671 1.64864 5.06214 0.784437 8.64495C-0.252609 12.9361 -0.252609 17.2954 0.784437 21.6002C1.64864 25.1694 4.36091 27.9485 7.84432 28.834C9.93171 29.3653 12.059 29.6377 14.1597 29.6377C16.2603 29.6377 18.3876 29.3653 20.475 28.834C23.9584 27.9485 26.6707 25.1694 27.5349 21.6002C28.5852 17.2954 28.5852 12.9361 27.5482 8.64495ZM21.5652 20.0745C21.2461 21.3687 20.2623 22.3767 18.9992 22.7037C15.7817 23.5211 12.5509 23.5211 9.33341 22.7037C8.07035 22.3767 7.08648 21.3687 6.76739 20.0745C5.96966 16.7778 5.96966 13.4674 6.76739 10.1707C7.07319 8.86291 8.05705 7.85482 9.33341 7.5415C12.5509 6.72413 15.7817 6.72413 18.9992 7.5415C20.2623 7.86845 21.2461 8.87653 21.5652 10.1707C22.363 13.4674 22.363 16.7641 21.5652 20.0745Z" fill="white"/>
<path d="M116.056 8.64495C115.192 5.07577 112.48 2.29671 108.996 1.41123C106.909 0.879939 104.781 0.607483 102.681 0.607483C100.58 0.607483 98.4528 0.879939 96.3655 1.41123C92.882 2.29671 90.1698 5.07577 89.3056 8.64495C88.2685 12.9361 88.2685 17.2954 89.3056 21.6002C90.1698 25.1694 92.882 27.9485 96.3655 28.834C98.4528 29.3653 100.58 29.6377 102.681 29.6377C104.781 29.6377 106.909 29.3653 108.996 28.834C112.48 27.9485 115.192 25.1694 116.056 21.6002C117.106 17.2954 117.106 12.9361 116.056 8.64495ZM110.073 20.0745C109.754 21.3687 108.77 22.3767 107.507 22.7037C104.29 23.5211 101.059 23.5211 97.8412 22.7037C96.5782 22.3767 95.5943 21.3687 95.2752 20.0745C94.4775 16.7778 94.4775 13.4674 95.2752 10.1707C95.5943 8.87653 96.5782 7.86845 97.8412 7.5415C101.059 6.72413 104.29 6.72413 107.507 7.5415C108.77 7.86845 109.754 8.87653 110.073 10.1707C110.884 13.4674 110.884 16.7641 110.073 20.0745Z" fill="white"/>
</svg>
