<svg width="132" height="169" viewBox="0 0 132 169" fill="none" xmlns="http://www.w3.org/2000/svg">
<path d="M116.864 93.2121C116.864 93.2121 122.123 85.5842 128.377 89.2797C134.631 92.9752 128.661 105.909 126.15 113.158C123.544 120.786 117.196 123.629 113.405 118.417" stroke="#231F20" stroke-miterlimit="10" stroke-linecap="round" stroke-linejoin="round"/>
<path d="M127.714 97.8077C127.714 97.8077 120.654 95.4388 115.68 105.815" stroke="#231F20" stroke-miterlimit="10" stroke-linecap="round" stroke-linejoin="round"/>
<path d="M119.043 100.745C119.043 100.745 126.718 104.867 121.649 111.026" stroke="#231F20" stroke-miterlimit="10" stroke-linecap="round" stroke-linejoin="round"/>
<path d="M15.4279 93.2121C15.4279 93.2121 10.1691 85.5842 3.91521 89.2797C-2.33867 92.9752 2.92023 105.909 6.23668 112.969C9.69526 120.217 15.049 123.629 18.8392 118.417" stroke="#231F20" stroke-miterlimit="10" stroke-linecap="round" stroke-linejoin="round"/>
<path d="M4.62592 97.8077C4.62592 97.8077 11.6852 95.4388 16.6598 105.815" stroke="#231F20" stroke-miterlimit="10" stroke-linecap="round" stroke-linejoin="round"/>
<path d="M13.2483 100.745C13.2483 100.745 5.5731 104.867 10.6425 111.026" stroke="#231F20" stroke-miterlimit="10" stroke-linecap="round" stroke-linejoin="round"/>
<path d="M116.864 74.8294C116.864 74.8294 123.118 167.927 66.8328 167.927C10.548 167.927 15.049 74.8294 15.049 74.8294C15.049 74.8294 12.3483 19.4447 68.728 19.4447C121.223 19.4447 116.864 74.8294 116.864 74.8294Z" stroke="#231F20" stroke-miterlimit="10" stroke-linecap="round" stroke-linejoin="round"/>
<path d="M118.854 45.5973C118.854 36.785 113.689 28.8255 105.683 25.2248L96.3966 20.2975C92.0379 9.35321 82.894 -0.501374 63.8481 0.0197822C62.0951 0.0671601 60.342 0.398805 58.6838 0.967339C53.3775 2.72032 42.5754 7.60023 40.1117 18.5445L27.4144 25.2722C19.4076 28.8729 14.2434 36.8324 14.2434 45.6446V78.8565C14.1486 81.2254 14.1486 83.5469 14.2434 85.7737V86.1053C14.2434 86.1053 14.2434 86.0106 14.2434 85.8211C14.3381 87.9531 14.5277 90.0377 14.812 91.9328C14.812 91.9328 26.2774 68.8598 24.1454 54.5517C23.3874 49.5296 24.098 44.3181 26.9881 40.1488C27.7461 39.0591 28.5042 38.0642 29.357 37.1166C33.242 32.8526 37.4112 30.01 41.3909 28.0675C44.0914 35.8374 51.4824 46.8765 72.0443 51.4721C72.0443 51.4721 58.5417 42.4703 50.9612 31.7629C57.5467 38.0642 71.5233 46.308 99.95 48.2978C99.95 48.2978 100.85 40.7647 99.4288 31.6208C101.419 33.0895 103.409 34.7477 105.256 36.785C105.304 36.8324 105.304 36.8324 105.351 36.8797C109.52 41.4754 110.942 47.9662 109.615 54.0779C105.777 71.3234 117.101 91.9802 117.101 91.9802C117.575 88.9954 117.764 85.5842 117.764 81.9835C117.811 84.8261 117.764 86.7212 117.764 87.195L118.854 45.5973Z" fill="#231F20"/>
<path d="M65.2221 91.459L63.5165 110.979C63.5165 111.595 63.6113 112.163 63.8482 112.684C64.701 114.769 67.1173 115.764 69.2967 115.195L73.987 113.963" stroke="#231F20" stroke-miterlimit="10" stroke-linecap="round" stroke-linejoin="round"/>
<path d="M59.0155 60.5212C58.5891 61.1372 56.1729 68.8597 56.1729 68.8597H29.2623L38.4062 63.6956C40.7277 62.5585 43.2387 61.8478 45.7972 61.6109L59.0155 60.5212Z" fill="#231F20"/>
<path d="M75.9767 60.5212C76.4031 61.1372 78.8194 68.8597 78.8194 68.8597H105.73L96.5861 63.6956C94.2646 62.5585 91.7536 61.8478 89.1952 61.6109L75.9767 60.5212Z" fill="#231F20"/>
<path d="M69.9599 151.25L68.2069 157.03" stroke="#231F20" stroke-miterlimit="10" stroke-linecap="round" stroke-linejoin="round"/>
<path d="M96.1596 83.689C95.9227 83.4995 95.6859 83.2626 95.3542 82.9784C95.2121 82.8362 95.0225 82.6941 94.833 82.552C94.6435 82.4098 94.454 82.3151 94.2171 82.173C93.7907 81.8887 93.3169 81.6044 92.7957 81.3201C92.2746 81.0833 91.7061 80.8464 91.0902 80.6095C90.806 80.4673 90.4743 80.42 90.1427 80.3252C89.811 80.2305 89.4793 80.1357 89.1477 80.0883C88.4844 79.9462 87.7738 79.8988 87.0631 79.8514L86.0207 79.8988C85.689 79.8988 85.3101 79.8988 84.9784 79.9936C84.6468 80.0409 84.3152 80.0883 83.9835 80.1831C83.6519 80.2305 83.3202 80.3726 83.036 80.4673C82.4201 80.6095 81.8514 80.9411 81.2829 81.178C80.7618 81.4623 80.2406 81.6992 79.8616 82.0308C79.6721 82.1729 79.4353 82.3151 79.2458 82.4572C79.0562 82.5994 78.9141 82.7415 78.7246 82.8836C78.3929 83.1679 78.156 83.4522 77.9665 83.6417C77.5874 84.0681 77.3979 84.3997 77.3979 84.3997C77.3979 84.3997 77.4454 84.3523 77.5875 84.2576C77.7297 84.1628 77.9192 84.0681 78.156 83.9259C78.3929 83.7838 78.7245 83.6417 79.0562 83.4521C79.4352 83.2626 79.8142 83.0731 80.2406 82.8836C80.667 82.6941 81.1882 82.552 81.662 82.3625C82.1831 82.2203 82.7043 82.0308 83.3202 81.9834C83.6044 81.9361 83.8887 81.8413 84.173 81.8413C84.4573 81.7939 84.7889 81.7939 85.0731 81.7466C85.2626 81.6992 85.4048 81.6992 85.5943 81.6992C84.552 82.5994 83.8414 84.4471 83.8414 86.5791C83.8414 89.6113 85.2627 92.0276 87.0157 92.0276C88.7687 92.0276 90.19 89.5639 90.19 86.5791C90.19 84.5419 89.5267 82.7889 88.5792 81.8413C88.6265 81.8413 88.6739 81.8413 88.7213 81.8413C89.3372 81.9834 89.9057 82.0308 90.4743 82.173C91.0428 82.3625 91.6114 82.5046 92.1325 82.6467C92.6537 82.8363 93.1274 83.0258 93.6012 83.1679C93.838 83.2626 94.075 83.31 94.2645 83.4048C94.454 83.4995 94.6435 83.5943 94.833 83.6417C95.212 83.8312 95.5437 83.9259 95.7806 84.0681C96.3017 84.305 96.6334 84.3997 96.6334 84.3997C96.6334 84.3997 96.586 84.0681 96.1596 83.689Z" fill="#231F20"/>
<path d="M54.5144 82.9784C54.3723 82.8362 54.1829 82.6941 53.9934 82.552C53.8038 82.4098 53.6143 82.3151 53.3774 82.173C52.951 81.8887 52.4772 81.6044 51.9561 81.3201C51.4349 81.0833 50.8664 80.8464 50.2504 80.6095C49.9662 80.4673 49.6345 80.42 49.3029 80.3252C48.9712 80.2305 48.6397 80.1357 48.308 80.0883C47.6447 79.9462 46.934 79.8988 46.2233 79.8514L45.181 79.8988C44.8494 79.8988 44.4704 79.8988 44.1387 79.9936C43.8071 80.0409 43.4754 80.0883 43.1438 80.1831C42.8121 80.2305 42.4805 80.3726 42.1962 80.4673C41.5803 80.6095 41.0118 80.9411 40.4432 81.178C39.9221 81.4623 39.4009 81.6992 39.0219 82.0308C38.8324 82.1729 38.5955 82.3151 38.406 82.4572C38.2165 82.5994 38.0744 82.7415 37.8849 82.8836C37.5532 83.1679 37.3163 83.4522 37.1268 83.6417C36.7478 84.0681 36.5583 84.3997 36.5583 84.3997C36.5583 84.3997 36.6056 84.3523 36.7478 84.2576C36.8899 84.1628 37.0795 84.0681 37.3164 83.9259C37.5533 83.7838 37.8849 83.6417 38.2165 83.4521C38.5955 83.2626 38.9746 83.0731 39.401 82.8836C39.8274 82.6941 40.3485 82.552 40.8223 82.3625C41.3435 82.2203 41.8646 82.0308 42.4805 81.9834C42.7648 81.9361 43.0491 81.8413 43.3333 81.8413C43.6176 81.7939 43.9492 81.7939 44.2335 81.7466C44.423 81.6992 44.5652 81.6992 44.7547 81.6992C43.7124 82.5994 43.0017 84.4471 43.0017 86.5791C43.0017 89.6113 44.423 92.0276 46.176 92.0276C47.929 92.0276 49.3503 89.5639 49.3503 86.5791C49.3503 84.5419 48.6871 82.7889 47.7395 81.8413C47.7869 81.8413 47.8342 81.8413 47.8815 81.8413C48.4975 81.9834 49.066 82.0308 49.6819 82.173C50.2505 82.3625 50.819 82.5046 51.3402 82.6467C51.8613 82.8363 52.3351 83.0258 52.8089 83.1679C53.0458 83.2626 53.2826 83.31 53.4722 83.4048C53.6617 83.4995 53.8512 83.5943 54.0407 83.6417C54.4197 83.8312 54.7513 83.9259 54.9882 84.0681C55.5094 84.305 55.841 84.3997 55.841 84.3997C55.841 84.3997 55.6042 84.1628 55.1778 83.7838C55.083 83.4995 54.7987 83.2626 54.5144 82.9784Z" fill="#231F20"/>
<path d="M52.2879 127.845H79.7671" stroke="#231F20" stroke-miterlimit="10" stroke-linecap="round" stroke-linejoin="round"/>
</svg>
