<svg width="24" height="24" viewBox="0 0 24 24" fill="none" xmlns="http://www.w3.org/2000/svg">
<path fill-rule="evenodd" clip-rule="evenodd" d="M13.0272 0.504602C15.2423 1.05439 16.9602 2.77155 17.5102 4.98577C18.1657 7.64435 18.1657 10.3481 17.4952 13.0218C17.3903 13.4439 17.243 13.8481 17.0578 14.2295L23.8969 21.0685L21.0684 23.8969L14.2317 17.0602C13.8468 17.2479 13.4387 17.3971 13.0121 17.5029C11.6861 17.8343 10.3298 18 8.99623 18C7.66261 18 6.3064 17.8343 4.98032 17.5029C2.76517 16.9531 1.0473 15.236 0.497279 13.0218C-0.16576 10.3556 -0.16576 7.65188 0.497279 4.98577C1.0473 2.76402 2.76517 1.04686 4.98032 0.497071C6.31393 0.16569 7.67015 0 9.00376 0C10.3374 0 11.6936 0.16569 13.0272 0.504602ZM12.0778 13.6996C12.8765 13.5038 13.5019 12.8787 13.7053 12.0728C14.2101 10.0243 14.2101 7.97573 13.7053 5.9272C13.5094 5.12887 12.884 4.50377 12.0778 4.30042C10.0285 3.78828 7.97906 3.78828 5.92967 4.30042C5.13101 4.49623 4.50565 5.12134 4.30221 5.9272C3.78987 7.97573 3.78987 10.0243 4.30221 12.0728C4.49811 12.8711 5.12348 13.4962 5.92967 13.6996C7.97906 14.2117 10.0285 14.2117 12.0778 13.6996Z" fill="white"/>
</svg>
